<svg width="66" height="65" viewBox="0 0 66 65" fill="none" xmlns="http://www.w3.org/2000/svg">
<path d="M51.0469 5.07812C50.3353 5.07812 49.7578 5.64688 49.7578 6.34766C49.7578 7.04844 50.3353 7.61719 51.0469 7.61719C51.7584 7.61719 52.3359 7.04844 52.3359 6.34766C52.3359 5.64688 51.7584 5.07812 51.0469 5.07812Z" fill="white"/>
<path d="M51.0469 57.3828C50.3353 57.3828 49.7578 57.9516 49.7578 58.6523C49.7578 59.3531 50.3353 59.9219 51.0469 59.9219C51.7584 59.9219 52.3359 59.3531 52.3359 58.6523C52.3359 57.9516 51.7584 57.3828 51.0469 57.3828Z" fill="white"/>
<path d="M33 37.0703C32.2884 37.0703 31.7109 37.6391 31.7109 38.3398C31.7109 39.0406 32.2884 39.6094 33 39.6094C33.7116 39.6094 34.2891 39.0406 34.2891 38.3398C34.2891 37.6391 33.7116 37.0703 33 37.0703Z" fill="white"/>
<path d="M33 44.6875C32.2884 44.6875 31.7109 45.2563 31.7109 45.957C31.7109 46.6578 32.2884 47.2266 33 47.2266C33.7116 47.2266 34.2891 46.6578 34.2891 45.957C34.2891 45.2563 33.7116 44.6875 33 44.6875Z" fill="white"/>
<path d="M33 52.3047C32.2884 52.3047 31.7109 52.8734 31.7109 53.5742C31.7109 54.275 32.2884 54.8438 33 54.8438C33.7116 54.8438 34.2891 54.275 34.2891 53.5742C34.2891 52.8734 33.7116 52.3047 33 52.3047Z" fill="white"/>
<path d="M14.9531 5.07812C14.2416 5.07812 13.6641 5.64688 13.6641 6.34766C13.6641 7.04844 14.2416 7.61719 14.9531 7.61719C15.6647 7.61719 16.2422 7.04844 16.2422 6.34766C16.2422 5.64688 15.6647 5.07812 14.9531 5.07812Z" fill="white"/>
<path d="M14.9531 57.3828C14.2416 57.3828 13.6641 57.9516 13.6641 58.6523C13.6641 59.3531 14.2416 59.9219 14.9531 59.9219C15.6647 59.9219 16.2422 59.3531 16.2422 58.6523C16.2422 57.9516 15.6647 57.3828 14.9531 57.3828Z" fill="white"/>
<path d="M53.625 0H12.375C10.2426 0 8.50781 1.70854 8.50781 3.80859V61.1914C8.50781 63.2915 10.2426 65 12.375 65H53.625C55.7574 65 57.4922 63.2915 57.4922 61.1914V3.80859C57.4922 1.70854 55.7574 0 53.625 0ZM54.9141 61.1914C54.9141 61.8914 54.3358 62.4609 53.625 62.4609H12.375C11.6642 62.4609 11.0859 61.8914 11.0859 61.1914V3.80859C11.0859 3.10857 11.6642 2.53906 12.375 2.53906H53.625C54.3358 2.53906 54.9141 3.10857 54.9141 3.80859V61.1914Z" fill="white"/>
<path d="M45.8906 10.918H20.1094C17.977 10.918 16.2422 12.6265 16.2422 14.7266C16.2422 16.3447 16.2422 25.8562 16.2422 27.4219C16.2422 29.5219 17.977 31.2305 20.1094 31.2305H45.8906C48.0225 31.2305 49.757 29.5227 49.7578 27.4233C49.7578 27.4226 49.7578 27.4219 49.7578 27.4212V14.7266C49.7578 12.6265 48.023 10.918 45.8906 10.918ZM20.1094 28.6915C19.3986 28.6914 18.8203 28.1219 18.8203 27.4219V25.4088L25.2656 19.0611C26.7715 20.5442 33.5204 27.1908 35.0441 28.6915H20.1094ZM45.8906 28.6914H38.6903L36.1122 26.1523L40.7344 21.6001L47.0967 27.866C46.9132 28.3474 46.4426 28.6914 45.8906 28.6914ZM47.1797 24.3568L41.6459 18.9069C41.1424 18.4111 40.3264 18.4111 39.8228 18.9069L34.2891 24.3568L26.1771 16.3678C25.6736 15.8721 24.8576 15.8721 24.354 16.3678L18.8203 21.8178V14.7266C18.8203 14.0265 19.3986 13.457 20.1094 13.457H45.8906C46.6014 13.457 47.1797 14.0265 47.1797 14.7266V24.3568Z" fill="white"/>
<path d="M27.8438 37.0703H17.5312C16.8194 37.0703 16.2422 37.6387 16.2422 38.3398C16.2422 39.041 16.8194 39.6094 17.5312 39.6094H27.8438C28.5556 39.6094 29.1328 39.041 29.1328 38.3398C29.1328 37.6387 28.5556 37.0703 27.8438 37.0703Z" fill="white"/>
<path d="M27.8438 44.6875H17.5312C16.8194 44.6875 16.2422 45.2559 16.2422 45.957C16.2422 46.6582 16.8194 47.2266 17.5312 47.2266H27.8438C28.5556 47.2266 29.1328 46.6582 29.1328 45.957C29.1328 45.2559 28.5556 44.6875 27.8438 44.6875Z" fill="white"/>
<path d="M27.8438 52.3047H17.5312C16.8194 52.3047 16.2422 52.8731 16.2422 53.5742C16.2422 54.2754 16.8194 54.8438 17.5312 54.8438H27.8438C28.5556 54.8438 29.1328 54.2754 29.1328 53.5742C29.1328 52.8731 28.5556 52.3047 27.8438 52.3047Z" fill="white"/>
<path d="M48.4688 37.0703H38.1562C37.4444 37.0703 36.8672 37.6387 36.8672 38.3398C36.8672 39.041 37.4444 39.6094 38.1562 39.6094H48.4688C49.1806 39.6094 49.7578 39.041 49.7578 38.3398C49.7578 37.6387 49.1806 37.0703 48.4688 37.0703Z" fill="white"/>
<path d="M48.4688 44.6875H38.1562C37.4444 44.6875 36.8672 45.2559 36.8672 45.957C36.8672 46.6582 37.4444 47.2266 38.1562 47.2266H48.4688C49.1806 47.2266 49.7578 46.6582 49.7578 45.957C49.7578 45.2559 49.1806 44.6875 48.4688 44.6875Z" fill="white"/>
<path d="M48.4688 52.3047H38.1562C37.4444 52.3047 36.8672 52.8731 36.8672 53.5742C36.8672 54.2754 37.4444 54.8438 38.1562 54.8438H48.4688C49.1806 54.8438 49.7578 54.2754 49.7578 53.5742C49.7578 52.8731 49.1806 52.3047 48.4688 52.3047Z" fill="white"/>
</svg>
