<svg width="35" height="35" viewBox="-3 -3 32 32" fill="none" xmlns="http://www.w3.org/2000/svg">
    <path d="M12.0227 22.1036L8.60556 25.5207C7.18888 26.9374 4.89468 26.9374 3.47919 25.521C2.06341 24.1052 2.06341 21.8108 3.4789 20.3953L10.3144 13.5598C11.7299 12.1443 14.0243 12.1443 15.4398 13.5598C15.9117 14.0317 16.6768 14.0317 17.1486 13.5598C17.6205 13.088 17.6205 12.3229 17.1486 11.851C14.7893 9.49172 10.9648 9.49172 8.60556 11.851L1.77013 18.6865C-0.589149 21.0458 -0.589149 24.8703 1.77013 27.2295C4.12913 29.5901 7.95391 29.5901 10.3144 27.2295L13.7316 23.8124C14.2035 23.3405 14.2035 22.5754 13.7316 22.1036C13.2597 21.6317 12.4946 21.6317 12.0227 22.1036Z"
    />
    <path d="M27.23 10.313C29.5893 7.95372 29.5893 4.12922 27.23 1.76994C24.8708 -0.589282 21.0464 -0.589282 18.686 1.76966L14.5859 5.86977C14.114 6.34164 14.114 7.10673 14.5859 7.5786C15.0577 8.05046 15.8228 8.05046 16.2947 7.5786L20.3945 3.47877C21.811 2.06322 24.1056 2.06322 25.5212 3.47877C26.9367 4.89426 26.9367 7.18869 25.5212 8.60418L18.003 16.1223C16.5875 17.5379 14.2931 17.5379 12.8776 16.1223C12.4057 15.6505 11.6406 15.6505 11.1688 16.1223C10.6969 16.5942 10.6969 17.3593 11.1688 17.8312C13.5281 20.1904 17.3526 20.1904 19.7118 17.8312L27.23 10.313Z"
    />
    <path d="M22.605 20.8959C22.1331 20.424 21.368 20.424 20.8961 20.8959C20.4243 21.3678 20.4243 22.1329 20.8961 22.6047L24.5199 26.2285C24.9918 26.7004 25.7569 26.7004 26.2287 26.2285C26.7006 25.7566 26.7006 24.9915 26.2287 24.5197L22.605 20.8959Z"
    />
    <path d="M6.39725 8.10565C6.86912 8.57752 7.63421 8.57752 8.10608 8.10565C8.57794 7.63378 8.57794 6.86869 8.10608 6.39682L4.47868 2.76943C4.00682 2.29756 3.24172 2.29756 2.76986 2.76943C2.29799 3.2413 2.29799 4.00639 2.76986 4.47826L6.39725 8.10565Z"
    />
    <path d="M27.7915 18.125H24.1666C23.4992 18.125 22.9583 18.666 22.9583 19.3333C22.9583 20.0006 23.4992 20.5416 24.1666 20.5416H27.7915C28.4588 20.5416 28.9998 20.0006 28.9998 19.3333C28.9998 18.666 28.4588 18.125 27.7915 18.125Z"
    />
    <path d="M9.6668 6.04162C10.3341 6.04162 10.8751 5.50065 10.8751 4.83331V1.20836C10.8751 0.540968 10.3341 0 9.6668 0C8.99946 0 8.4585 0.540968 8.4585 1.2083V4.83326C8.45844 5.50059 8.99946 6.04162 9.6668 6.04162Z"
    />
    <path d="M1.20848 10.8751H4.83344C5.50077 10.8751 6.04174 10.3341 6.04174 9.6668C6.04174 8.99946 5.50077 8.4585 4.83344 8.4585H1.20848C0.541151 8.4585 0.000183105 8.99946 0.000183105 9.6668C0.000183105 10.3341 0.541151 10.8751 1.20848 10.8751Z"
    />
    <path d="M19.3332 22.958C18.6659 22.958 18.1249 23.499 18.1249 24.1663V27.7913C18.1249 28.4586 18.6659 28.9996 19.3332 28.9996C20.0006 28.9996 20.5415 28.4586 20.5415 27.7913V24.1663C20.5416 23.499 20.0006 22.958 19.3332 22.958Z"
    />
</svg>
