<svg width="19" height="20" viewBox="0 0 19 20" fill="none" xmlns="http://www.w3.org/2000/svg">
<g clip-path="url(#clip0)">
<path d="M2.11113 0.5H16.8889C18.0553 0.5 19 1.44471 19 2.61113V6.83333H16.8889V2.61113H2.11108V17.3889H16.8889V13.1667H19V17.3889C19 18.5553 18.0553 19.5 16.8889 19.5H2.11108C0.944704 19.5 0 18.5553 0 17.3889V2.61113C0 1.44471 0.944704 0.5 2.11113 0.5Z" fill="black"/>
<path d="M11.5214 13.7841L10.0278 15.2778L4.75 9.99996L10.0278 4.72217L11.5214 6.2158L8.79279 8.94442H19V11.0555H8.79279L11.5214 13.7841Z" fill="black"/>
</g>
<defs>
<clipPath id="clip0">
<rect width="19" height="19" fill="white" transform="matrix(-1 0 0 1 19 0.5)"/>
</clipPath>
</defs>
</svg>
