<svg width="17" height="18" viewBox="0 0 17 18" fill="none" xmlns="http://www.w3.org/2000/svg">

        <path d="M8.5 0.5C3.80568 0.5 0 4.30568 0 9C0 13.6943 3.80568 17.5 8.5 17.5C13.1943 17.5 17 13.6943 17 9C17 4.30568 13.1943 0.5 8.5 0.5ZM8.5 16.0833C4.58807 16.0833 1.41668 12.9119 1.41668 9C1.41668 5.08807 4.58807 1.91668 8.5 1.91668C12.4119 1.91668 15.5833 5.08807 15.5833 9C15.5833 12.9119 12.4119 16.0833 8.5 16.0833Z"
              />
        <path d="M7.5842 4.95746C7.30758 4.68085 6.85908 4.68085 6.58246 4.95746C6.30585 5.23408 6.30585 5.68258 6.58246 5.9592L9.62327 9.00001L6.58246 12.0408C6.30585 12.3174 6.30585 12.7659 6.58246 13.0426C6.85908 13.3192 7.30758 13.3192 7.5842 13.0426L11.1259 9.50088C11.4025 9.22426 11.4025 8.77575 11.1259 8.49914L7.5842 4.95746Z"
              />

</svg>
