<svg width="46" height="46" viewBox="0 0 46 46" fill="none" xmlns="http://www.w3.org/2000/svg">
<g clip-path="url(#clip0)">
<path d="M25.3047 17.1205C29.6404 15.9599 32.6077 12.6501 32.6077 8.86681C32.6077 6.50771 31.4748 4.30232 29.4179 2.65741C27.4202 1.05952 24.7758 0.179688 21.9721 0.179688C19.168 0.179688 16.5235 1.05952 14.5259 2.65741C12.4693 4.30232 11.3365 6.50771 11.3365 8.86681C11.3365 11.0087 12.2946 13.0645 14.0342 14.6551C15.5998 16.0866 17.7031 17.0531 20.0004 17.4044C21.1364 19.5354 22.5606 21.0452 24.2382 21.8959C24.8688 22.2156 25.623 21.6867 25.5419 20.9876C25.5398 20.9683 25.3408 19.2329 25.3047 17.1205ZM24.216 15.5247C23.797 15.6107 23.4959 15.9789 23.4952 16.4067C23.4934 17.456 23.5352 18.4443 23.5854 19.248C22.7642 18.4829 22.0307 17.4543 21.3947 16.1722C21.2589 15.8981 20.9929 15.7114 20.689 15.677C16.3856 15.1864 13.1404 12.2588 13.1404 8.86681C13.1404 5.07126 17.1022 1.98358 21.9721 1.98358C26.8419 1.98358 30.8034 5.07126 30.8034 8.86681C30.8038 11.9913 28.0948 14.7291 24.216 15.5247Z" fill="white"/>
<path d="M22.807 8.26527C22.6677 7.92765 22.3279 7.7062 21.9636 7.70901C21.585 7.71182 21.2428 7.9631 21.1203 8.32037C20.9968 8.68115 21.1224 9.09422 21.4253 9.3255C21.7232 9.55291 22.1402 9.57187 22.4574 9.37147C22.8224 9.14055 22.9719 8.66465 22.807 8.26527Z" fill="white"/>
<path d="M20.146 7.86029C19.8376 7.65639 19.4269 7.66235 19.1244 7.87468C18.8152 8.09157 18.6745 8.49586 18.7787 8.85805C18.8833 9.22093 19.2122 9.4859 19.5887 9.51012C19.9702 9.53433 20.3313 9.30727 20.478 8.95526C20.6409 8.56535 20.5002 8.09437 20.146 7.86029Z" fill="white"/>
<path d="M24.8032 7.86028C24.494 7.65638 24.0841 7.6627 23.7816 7.87467C23.4717 8.09156 23.332 8.4955 23.4362 8.85804C23.5401 9.22092 23.869 9.48589 24.2455 9.51011C24.6263 9.53432 24.9896 9.30726 25.1359 8.95525C25.298 8.56534 25.157 8.09402 24.8032 7.86028Z" fill="white"/>
<path d="M18.9777 33.0741C19.8235 31.4341 19.9797 29.5628 19.4182 27.8053L17.9122 23.0923C17.5076 21.8268 16.7524 20.7115 15.7279 19.8678C13.9047 18.3657 11.4754 17.8972 9.22934 18.6149C7.47177 19.1768 6.03813 20.3889 5.19234 22.0289C4.34689 23.6693 4.19037 25.5402 4.75189 27.2978L6.25818 32.0111C6.49928 32.7656 6.85936 33.4496 7.31033 34.0501L7.17381 34.4597C2.98766 35.6883 0 39.9858 0 44.8935C0 45.3915 0.403946 45.7954 0.901947 45.7954H18.3246C18.823 45.7954 19.2266 45.3915 19.2266 44.8935C19.2266 41.4885 17.8028 38.3296 15.4331 36.3085C16.9654 35.6898 18.2127 34.5579 18.9777 33.0741ZM6.79549 22.8558C7.42053 21.6443 8.47971 20.7483 9.77823 20.3331C10.2903 20.1696 10.8149 20.0896 11.3358 20.0896C12.2612 20.0896 13.1733 20.3426 13.9763 20.8304C13.4362 21.7513 12.8055 22.6196 12.0615 23.3864C11.3119 24.1585 10.4187 24.8155 9.40762 25.198C9.11458 25.3089 8.81557 25.3749 8.5141 25.4553C8.26598 25.5216 8.05365 25.695 7.93959 25.9252C7.81992 26.1656 7.815 26.4464 7.92345 26.6913C7.92696 26.6991 7.92906 26.7068 7.93257 26.7145C7.97434 26.8026 8.02382 26.9177 8.07576 27.0525C8.34529 27.7575 8.69695 29.0592 8.34038 29.9124C8.21509 30.2117 7.98697 30.4493 7.70129 30.6013L6.47015 26.7485C6.05533 25.45 6.17079 24.0676 6.79549 22.8558ZM12.5402 36.8096L12.2468 37.6895C12.2254 37.7534 12.2012 37.8158 12.1742 37.8765C11.9847 38.3008 11.6572 38.6441 11.2361 38.8546C10.7546 39.0954 10.2081 39.134 9.69751 38.9638C9.18688 38.7936 8.77275 38.4345 8.53235 37.953C8.2916 37.4715 8.25299 36.9251 8.4232 36.4145L8.73976 35.4655C8.74503 35.4694 8.75064 35.4729 8.75591 35.4771C8.81452 35.5195 8.87348 35.561 8.93314 35.6017C8.94086 35.6069 8.94858 35.6125 8.9563 35.6178C10.0081 36.3309 11.2484 36.7524 12.5402 36.8096ZM17.3837 43.9915H1.84355C2.13028 40.7287 3.95593 37.9106 6.53719 36.6356C6.45647 37.3617 6.59229 38.1064 6.91867 38.7595C7.37491 39.672 8.15894 40.3525 9.12686 40.675C10.0829 40.994 11.141 40.9186 12.0426 40.4683C12.955 40.0121 13.6355 39.2281 13.9581 38.2605L14.1764 37.606C15.9915 39.108 17.1602 41.4261 17.3837 43.9915ZM14.3918 34.7699C12.6066 35.3402 10.5952 34.8555 9.25777 33.5447C8.88681 33.1811 8.57236 32.7597 8.32915 32.301C9.04263 31.9767 9.63504 31.4232 9.96213 30.7066C10.4703 29.5934 10.3141 28.2948 10.06 27.3297C10.0295 27.2139 9.98459 27.1016 9.95546 26.9861C9.95265 26.9756 9.9516 26.9647 9.95195 26.9539C9.9323 26.9265 9.94037 26.9124 9.97582 26.9121C10.0004 26.8935 10.0471 26.8858 10.0755 26.8745C10.1369 26.851 10.198 26.8265 10.2587 26.8008C10.5219 26.6913 10.7791 26.5682 11.0297 26.4327C11.4733 26.1933 11.8931 25.9087 12.2896 25.5985C13.0912 24.9717 13.7938 24.2199 14.4119 23.4134C14.7481 22.9748 15.0601 22.5175 15.3496 22.0465C15.7216 22.5206 16.008 23.0593 16.1936 23.6412L17.6999 28.3542C18.5566 31.0351 17.0724 33.9132 14.3918 34.7699Z" fill="white"/>
<path d="M43.0917 36.9953C43.5349 36.2211 43.7743 35.3377 43.7743 34.4396C43.7743 32.2781 42.4441 30.3998 40.4971 29.6481L41.2481 27.2978C42.4076 23.6696 40.3991 19.7744 36.7707 18.6149C35.0131 18.053 33.1422 18.2095 31.5022 19.0553C29.8622 19.9011 28.6496 21.3347 28.0877 23.0923L26.5818 27.8052C26.0203 29.5628 26.1765 31.4341 27.0223 33.0741C27.7635 34.5119 28.9571 35.621 30.4247 36.2513C28.1218 38.2875 26.7734 41.3734 26.7734 44.7145C26.7734 45.2125 27.1774 45.6164 27.6754 45.6164H35.2138C35.7122 45.6164 36.1158 45.2125 36.1158 44.7145C36.1158 44.2165 35.7122 43.8125 35.2138 43.8125H28.6159C28.8086 41.5724 29.7144 39.5295 31.16 38.0397C31.6369 39.3256 32.7301 40.3328 34.0504 40.7031C34.4284 40.8091 34.8211 40.8631 35.2138 40.8631C37.5968 40.8631 39.5355 38.9245 39.5355 36.5415C39.5355 36.5261 39.5351 36.5103 39.534 36.4948C39.9527 36.7075 40.356 36.9623 40.7371 37.2567C40.9319 37.408 41.1204 37.5677 41.3007 37.7361C42.886 39.2182 43.9441 41.3924 44.1568 43.8125H42.4277C41.9296 43.8125 41.5257 44.2165 41.5257 44.7145C41.5257 45.2125 41.9296 45.6164 42.4277 45.6164H45.098C45.596 45.6164 46 45.2125 46 44.7145C46 41.7307 44.8962 38.975 43.0917 36.9953ZM39.9468 31.3706C41.154 31.8833 41.9704 33.0748 41.9704 34.4396C41.9704 34.8917 41.8823 35.3276 41.7117 35.7319C41.2692 35.4016 40.8027 35.1131 40.3188 34.8696C39.9605 34.6888 39.5899 34.5379 39.2122 34.4031C39.1227 34.3712 39.0318 34.3445 38.9416 34.3158C38.8855 34.2982 38.8234 34.2954 38.7946 34.2466C38.756 34.1813 38.7405 34.0897 38.7156 34.0182C39.1648 33.4117 39.5095 32.7386 39.7422 32.0107L39.9468 31.3706ZM32.3287 20.6585C33.5405 20.0338 34.9229 19.9183 36.2218 20.3331C37.5203 20.7483 38.5795 21.6443 39.2045 22.8558C39.8292 24.0676 39.9447 25.4504 39.5298 26.7489C39.4983 26.8478 39.4797 26.9735 39.4291 27.0637C39.4239 27.0732 39.4246 27.0833 39.4175 27.0897C39.3859 27.1184 39.2631 27.1188 39.2199 27.1258C39.0985 27.1455 38.9764 27.1605 38.8539 27.1714C38.3499 27.2156 37.839 27.1707 37.3564 27.0156C37.0925 26.931 36.838 26.8156 36.6001 26.6741C34.4242 25.3819 33.6682 22.0886 33.6612 22.057C33.5345 21.4793 32.8639 21.1719 32.3448 21.4611C32.1419 21.5741 31.9809 21.7699 31.8012 21.9159C31.5839 22.0924 31.3537 22.2546 31.1101 22.3922C30.8287 22.5508 30.522 22.6813 30.2001 22.7249C30.6837 21.8454 31.4169 21.1291 32.3287 20.6585ZM28.3001 28.3545L29.5277 24.5133C30.5083 24.6646 31.4969 24.3066 32.3146 23.7847C32.3308 23.8272 32.3473 23.8697 32.3637 23.9121C32.8172 25.0752 33.644 26.6783 35.0215 27.7712C35.861 28.4373 36.8714 28.8651 37.9407 28.9665C38.2313 28.9939 38.5244 28.9988 38.8157 28.983C38.7086 29.3182 38.2959 30.6094 38.1969 30.9199C38.0639 31.3355 37.9386 31.7507 37.7491 32.1451C37.5585 32.5413 37.3111 32.9134 37.0233 33.2457C36.0635 34.3533 34.6569 35.0064 33.1783 35.012C32.6473 35.0128 32.1139 34.9317 31.6081 34.7699C28.9276 33.9132 27.4434 31.0351 28.3001 28.3545ZM35.2138 39.0592C34.2364 39.0592 33.3254 38.4696 32.9214 37.5803C32.8095 37.3343 32.7372 37.0704 32.7094 36.8016C32.9565 36.8184 33.2053 36.8205 33.4528 36.81C34.8404 36.7538 36.1814 36.2797 37.2992 35.4423L37.7277 36.6819C37.6544 38.005 36.5548 39.0592 35.2138 39.0592Z" fill="white"/>
<path d="M39.3199 43.9641C38.9943 43.7455 38.5503 43.7679 38.2471 44.0175C37.9684 44.2466 37.8519 44.6306 37.9572 44.9759C38.0685 45.3416 38.4078 45.6024 38.79 45.6161C39.1662 45.629 39.5203 45.3946 39.6583 45.0454C39.8127 44.6541 39.6688 44.1979 39.3199 43.9641Z" fill="white"/>
</g>
<defs>
<clipPath id="clip0">
<rect width="46" height="46" fill="white"/>
</clipPath>
</defs>
</svg>
