<svg width="35" height="35" viewBox="0 0 35 35" fill="none" xmlns="http://www.w3.org/2000/svg">
    <path d="M3.81377 10.7828C4.78584 10.7828 5.57669 9.99196 5.57669 9.01982C5.57669 8.04769 4.78584 7.25684 3.81377 7.25684C2.84163 7.25684 2.05078 8.04769 2.05078 9.01982C2.05078 9.99196 2.84163 10.7828 3.81377 10.7828ZM3.81377 8.28229C4.22044 8.28229 4.5513 8.61315 4.5513 9.01989C4.5513 9.42663 4.22044 9.75749 3.81377 9.75749C3.4071 9.75749 3.07617 9.42656 3.07617 9.01989C3.07617 8.61322 3.4071 8.28229 3.81377 8.28229Z"
    />
    <path d="M7.78868 10.7828C8.76082 10.7828 9.55167 9.99196 9.55167 9.01982C9.55167 8.04769 8.76082 7.25684 7.78868 7.25684C6.81655 7.25684 6.0257 8.04769 6.0257 9.01982C6.0257 9.99196 6.81655 10.7828 7.78868 10.7828ZM7.78868 8.28229C8.19535 8.28229 8.52628 8.61315 8.52628 9.01989C8.52628 9.42663 8.19535 9.75749 7.78868 9.75749C7.38201 9.75749 7.05109 9.42663 7.05109 9.01989C7.05109 8.61315 7.38195 8.28229 7.78868 8.28229Z"
    />
    <path d="M11.7636 10.7828C12.7357 10.7828 13.5265 9.99196 13.5265 9.01982C13.5265 8.04769 12.7357 7.25684 11.7636 7.25684C10.7915 7.25684 10.0006 8.04769 10.0006 9.01982C10.0006 9.99196 10.7915 10.7828 11.7636 10.7828ZM11.7636 8.28229C12.1703 8.28229 12.5011 8.61315 12.5011 9.01989C12.5011 9.42663 12.1703 9.75749 11.7636 9.75749C11.3569 9.75749 11.026 9.42663 11.026 9.01989C11.026 8.61315 11.3569 8.28229 11.7636 8.28229Z"
    />
    <path d="M34.4873 4.69707C34.7705 4.69707 35 4.46752 35 4.18437V3.51035C35 2.08253 33.8384 0.920898 32.4105 0.920898H17.7215C16.2937 0.920898 15.132 2.08253 15.132 3.51035V5.37041H4.32988C1.94236 5.37041 0 7.31284 0 9.70036V29.7488C0 32.1367 1.94236 34.0794 4.32988 34.0794H27.38C29.7675 34.0794 31.7099 32.1367 31.7099 29.7488V17.615H32.4105C33.8384 17.615 35 16.4534 35 15.0256V6.23516C35 5.95201 34.7705 5.72246 34.4873 5.72246C34.2041 5.72246 33.9746 5.95201 33.9746 6.23516V15.0255C33.9746 15.8879 33.273 16.5895 32.4105 16.5895H25.8146C25.7136 16.5895 25.6149 16.6194 25.5309 16.6752L21.0312 19.6648C20.821 19.8045 20.626 19.7273 20.5519 19.6875C20.4776 19.6477 20.3049 19.5278 20.3049 19.2747V17.1022C20.3049 16.8191 20.0754 16.5895 19.7922 16.5895H17.7216C16.8591 16.5895 16.1575 15.8879 16.1575 15.0255V3.51035C16.1575 2.64793 16.8591 1.94629 17.7216 1.94629H32.4106C33.273 1.94629 33.9747 2.64793 33.9747 3.51035V4.18437C33.9746 4.46752 34.2041 4.69707 34.4873 4.69707ZM17.7215 17.6149H19.2794V19.2747C19.2794 19.8264 19.5814 20.3309 20.0676 20.5914C20.2889 20.7099 20.5311 20.7687 20.7727 20.7687C21.0615 20.7687 21.3491 20.6848 21.5988 20.5186L25.9693 17.6149H28.6337V29.7494C28.6337 30.4407 28.0712 31.0031 27.38 31.0031H8.50459C8.22138 31.0031 7.99189 31.2327 7.99189 31.5158C7.99189 31.799 8.22138 32.0285 8.50459 32.0285H27.38C28.6367 32.0285 29.6591 31.0061 29.6591 29.7494V17.6149H30.6845V29.7487C30.6845 31.5712 29.202 33.0539 27.38 33.0539H4.32988C2.50783 33.0539 1.02539 31.5712 1.02539 29.7487V9.70029C1.02539 7.87817 2.50783 6.3958 4.32988 6.3958H15.132V11.5076H4.72637C3.25103 11.5076 2.05078 12.7079 2.05078 14.1832V29.7493C2.05078 31.0061 3.07316 32.0284 4.32988 32.0284H6.45381C6.73702 32.0284 6.9665 31.7989 6.9665 31.5157C6.9665 31.2326 6.73702 31.0031 6.45381 31.0031H4.32988C3.63863 31.0031 3.07617 30.4407 3.07617 29.7493V14.1833C3.07617 13.2734 3.81644 12.5331 4.72637 12.5331H15.132V15.0255C15.132 16.4533 16.2937 17.6149 17.7215 17.6149Z"
    />
    <path d="M22.5485 12.6337C21.7049 12.6337 21.0186 13.32 21.0186 14.1636C21.0186 15.0072 21.7049 15.6936 22.5485 15.6936H27.5837C28.4273 15.6936 29.1136 15.0072 29.1136 14.1636C29.1136 13.32 28.4273 12.6337 27.5837 12.6337H27.4714V9.03024C27.4714 8.21061 26.8046 7.5437 25.9849 7.5437H22.5484C21.7048 7.5437 21.0185 8.23003 21.0185 9.07365C21.0185 9.91727 21.7048 10.6036 22.5484 10.6036H22.916V12.6337H22.5485ZM23.4288 9.57821H22.5485C22.2704 9.57821 22.044 9.35187 22.044 9.07365C22.044 8.79543 22.2704 8.56909 22.5485 8.56909H25.9849C26.2392 8.56909 26.4461 8.77595 26.4461 9.03024V13.1464C26.4461 13.4295 26.6756 13.6591 26.9588 13.6591H27.5837C27.8619 13.6591 28.0883 13.8854 28.0883 14.1636C28.0883 14.4418 27.8619 14.6682 27.5837 14.6682H22.5486C22.2704 14.6682 22.044 14.4418 22.044 14.1636C22.044 13.8854 22.2704 13.6591 22.5486 13.6591H23.4288C23.7121 13.6591 23.9415 13.4295 23.9415 13.1464V10.0909C23.9415 9.80776 23.7119 9.57821 23.4288 9.57821Z"
    />
    <path d="M27.4713 4.73152C27.4713 3.47562 26.4496 2.45386 25.1937 2.45386C23.9378 2.45386 22.916 3.47562 22.916 4.73152C22.916 5.98742 23.9378 7.00919 25.1937 7.00919C26.4496 7.00919 27.4713 5.98749 27.4713 4.73152ZM23.9414 4.73152C23.9414 4.04103 24.5032 3.47925 25.1937 3.47925C25.8842 3.47925 26.446 4.04103 26.446 4.73152C26.446 5.42202 25.8842 5.9838 25.1937 5.9838C24.5032 5.9838 23.9414 5.42202 23.9414 4.73152Z"
    />
    <path d="M8.33368 20.3018C8.33368 20.5849 8.56316 20.8145 8.84637 20.8145H16.7543C17.0375 20.8145 17.267 20.5849 17.267 20.3018C17.267 20.0186 17.0375 19.7891 16.7543 19.7891H8.84637C8.56323 19.7891 8.33368 20.0186 8.33368 20.3018Z"
    />
    <path d="M16.7543 22.4756H6.45374C6.17052 22.4756 5.94104 22.7051 5.94104 22.9883C5.94104 23.2714 6.17052 23.501 6.45374 23.501H16.7543C17.0375 23.501 17.267 23.2714 17.267 22.9883C17.267 22.7051 17.0374 22.4756 16.7543 22.4756Z"
    />
    <path d="M16.7543 25.1621H6.45374C6.17052 25.1621 5.94104 25.3917 5.94104 25.6748C5.94104 25.9579 6.17052 26.1875 6.45374 26.1875H16.7543C17.0375 26.1875 17.267 25.9579 17.267 25.6748C17.267 25.3917 17.0374 25.1621 16.7543 25.1621Z"
    />
    <path d="M13.3363 27.8484H6.45374C6.17052 27.8484 5.94104 28.0779 5.94104 28.3611C5.94104 28.6442 6.17052 28.8738 6.45374 28.8738H13.3363C13.6195 28.8738 13.849 28.6442 13.849 28.3611C13.849 28.0779 13.6194 27.8484 13.3363 27.8484Z"
    />
</svg>
