<svg width="136" height="174" viewBox="0 0 136 174" fill="none" xmlns="http://www.w3.org/2000/svg">
<mask id="mask0" mask-type="alpha" maskUnits="userSpaceOnUse" x="0" y="0" width="132" height="172">
<path d="M131.225 0.981689H0.798157V171.838H131.225V0.981689Z" fill="url(#paint0_linear)"/>
</mask>
<g mask="url(#mask0)">
<g clip-path="url(#clip0)">
<path d="M0.797922 141.83C1.05113 141.703 1.30434 141.514 1.55755 141.324C2.38049 142.651 3.33003 143.03 4.27957 142.525C5.03921 142.082 5.41902 141.072 4.9126 140.25C4.72269 139.934 4.34288 139.492 4.02636 139.492C3.26673 139.492 2.44379 139.618 1.55755 139.745C1.30434 139.366 1.05113 139.05 0.734619 138.86V141.83H0.797922Z" fill="#322D3E"/>
<path d="M0.797922 173.165H2.95022C3.01352 172.912 3.26673 172.66 3.58324 172.218C3.83645 172.597 4.08966 172.912 4.02636 173.039C4.02636 173.102 3.96306 173.102 3.96306 173.165H7.31811C7.31811 173.165 7.38141 173.165 7.38141 173.102C7.44471 173.102 7.44471 173.102 7.50801 173.165H21.7511C21.6245 172.912 21.4346 172.66 21.2447 172.407C21.5612 172.154 21.8144 172.028 22.0676 171.775C22.3209 171.523 22.5108 171.27 22.764 171.017C23.2071 172.597 24.03 173.165 25.2328 172.786C26.1823 172.47 26.6254 171.459 26.2456 170.512C26.0557 170.133 25.7392 169.754 25.3594 169.627C24.4098 169.185 23.6502 169.69 22.8906 170.322C22.5741 169.754 22.3209 169.311 22.0676 168.932C23.397 167.922 23.7135 166.974 23.0805 166.089C22.8906 165.774 22.4475 165.395 22.1309 165.395C21.3713 165.395 20.6117 165.647 19.7254 165.837C19.6621 165.774 19.5355 165.521 19.4089 165.268C19.219 165.015 19.0291 164.763 18.7759 164.51C19.0291 164.384 19.1557 164.257 19.3456 164.194C20.1686 163.689 20.4851 162.678 20.042 161.857C19.6621 161.099 18.7759 160.783 17.8897 161.035C16.7502 161.414 16.497 161.288 15.9906 160.151C17.2566 159.14 17.5732 158.192 16.9401 157.308C16.3071 156.36 15.3576 156.36 13.775 157.308C13.3952 156.866 13.0154 156.423 12.5722 155.981C14.0915 155.349 14.5979 154.465 14.0915 153.328C13.5851 152.191 12.5722 152.127 10.7998 153.075C10.4199 152.57 9.97682 152.064 9.597 151.559C11.053 151.053 11.6227 150.169 11.1163 149.095C10.9264 148.716 10.6098 148.337 10.23 148.211C9.28049 147.768 8.52086 148.211 7.76123 148.905C7.44471 148.337 7.1915 147.895 6.93829 147.516C8.26765 146.442 8.58416 145.494 7.95113 144.609C7.44471 143.915 6.43187 143.662 5.67223 144.104C4.72269 144.609 4.59609 145.431 5.35572 147.263C4.9759 147.579 4.53278 147.831 4.08966 148.211C3.70985 147.705 3.33003 147.263 2.95022 146.821C4.40618 146.063 4.9126 145.178 4.34288 144.104C4.15297 143.788 3.77315 143.346 3.45664 143.346C2.6337 143.346 1.81077 143.535 0.924527 143.725C0.861225 143.662 0.797922 143.599 0.734619 143.472V145.115C0.797922 145.052 0.861225 144.989 0.924527 144.925C1.17774 145.431 1.49425 145.999 1.81077 146.694C1.49425 146.884 1.11444 147.137 0.734619 147.389V149.79C0.861225 149.916 0.924527 150.043 1.05113 150.232C0.924527 150.359 0.861225 150.422 0.734619 150.485V164.826C0.861225 164.763 0.98783 164.7 0.98783 164.7C1.30434 164.889 1.62086 165.142 1.93737 165.395C1.87407 165.521 1.87407 165.647 1.81077 165.774C1.49425 165.837 1.11444 166.026 0.861225 165.963C0.797922 165.963 0.797922 165.9 0.734619 165.837V168.49C0.924527 168.617 1.11444 168.869 1.36765 169.122C1.11444 169.311 0.924527 169.501 0.734619 169.564V173.165H0.797922ZM3.70985 169.817C3.45664 169.438 3.45664 169.185 3.83645 168.996C4.53278 168.68 4.65939 169.248 4.9126 169.69C4.46948 170.07 4.15297 170.512 3.70985 169.817ZM5.35572 166.216C4.9759 166.595 4.53278 166.469 4.27957 166.026C3.83645 165.331 4.53278 165.268 4.9759 164.763C5.10251 165.395 5.98875 165.584 5.35572 166.216ZM6.24196 162.236C6.17866 162.552 5.60893 162.994 5.41902 162.931C5.03921 162.804 4.786 162.362 4.27957 161.857C4.9126 161.604 5.35572 161.288 5.73554 161.351C5.98875 161.414 6.36857 161.983 6.24196 162.236ZM7.82453 171.08C7.50801 170.701 7.1282 170.385 7.1915 170.133C7.1915 169.88 7.63462 169.627 7.82453 169.375C8.07774 169.627 8.52086 169.88 8.58416 170.196C8.58416 170.385 8.14104 170.701 7.82453 171.08ZM9.28049 166.469C9.09058 166.784 8.71077 167.163 8.39425 167.163C8.07774 167.163 7.82453 166.721 7.31811 166.279C7.95113 166.026 8.39425 165.71 8.83737 165.71C8.90067 165.647 9.34379 166.342 9.28049 166.469ZM9.85022 162.741C9.72361 163.057 9.34379 163.436 9.02728 163.562C8.90067 163.626 8.26765 162.994 8.33095 162.867C8.45756 162.488 8.83737 162.236 9.28049 161.73C9.5337 162.109 9.91352 162.488 9.85022 162.741ZM11.4961 171.523C11.1796 171.396 10.7998 170.954 10.7365 170.638C10.6732 170.385 11.3062 169.817 11.4328 169.88C11.8126 170.006 12.0658 170.385 12.5089 170.828C12.1291 171.144 11.7493 171.586 11.4961 171.523ZM14.5346 171.649C13.9649 170.765 14.9144 170.765 15.2309 170.259C15.5475 170.765 15.864 171.144 16.1805 171.586C15.5475 172.091 15.041 172.47 14.5346 171.649ZM19.7887 166.974C20.042 167.479 20.2952 167.985 20.5484 168.553C20.1053 168.869 19.7254 169.185 19.2823 169.501C18.9658 169.059 18.7126 168.617 18.3961 168.174C18.9025 167.795 19.3456 167.416 19.7887 166.974ZM19.0924 170.891C19.4089 171.27 19.6621 171.649 19.9787 172.028C18.7759 173.292 18.5227 173.292 17.7631 171.839C18.2062 171.523 18.586 171.207 19.0924 170.891ZM16.5603 162.931C16.9401 163.373 17.2566 163.815 17.6365 164.321C17.1933 164.636 16.8135 164.889 16.3704 165.205C16.0539 164.763 15.7374 164.321 15.4209 163.815C15.8007 163.562 16.1805 163.247 16.5603 162.931ZM16.0539 166.595C16.3704 167.037 16.6236 167.416 17.0034 167.922C16.497 168.237 16.1172 168.49 15.6108 168.806C15.2943 168.364 15.041 167.985 14.7245 167.479C15.1676 167.227 15.5475 166.911 16.0539 166.595ZM13.5851 158.571C13.9649 159.014 14.2814 159.456 14.5979 159.835C13.3952 161.035 13.2053 161.035 12.4456 159.519C12.7621 159.266 13.142 158.951 13.5851 158.571ZM13.0787 162.425C13.3319 162.741 13.6484 163.12 14.0282 163.499C13.4585 163.878 13.0787 164.131 12.6988 164.384C11.8126 163.31 11.8126 163.247 13.0787 162.425ZM13.2053 167.163C12.0025 168.111 11.9392 168.048 11.4328 167.353C10.9264 166.721 11.4328 166.532 11.8126 166.279C12.8254 165.774 12.6988 166.911 13.2053 167.163ZM10.1034 154.591C10.2933 154.402 10.4199 154.212 10.6098 153.96C10.9264 154.591 11.2429 155.097 11.4961 155.602C10.3566 156.613 10.2933 156.613 9.4071 155.16C9.66031 154.97 9.91352 154.781 10.1034 154.591ZM9.34379 158.508C10.0401 158.003 10.2933 158.445 10.5465 158.887C11.1163 159.835 9.91352 159.645 9.66031 160.151C9.5337 159.582 8.33095 159.33 9.34379 158.508ZM7.69792 149.6C7.95113 150.169 8.26765 150.738 8.58416 151.369C8.20434 151.622 7.69792 151.938 7.1915 152.254C6.87499 151.812 6.55847 151.369 6.24196 150.927C6.74838 150.422 7.2548 149.979 7.69792 149.6ZM6.87499 153.644C8.07774 154.97 8.07774 154.97 6.62178 155.792C6.30526 155.349 6.05205 154.97 5.67223 154.465C6.11535 154.212 6.49517 153.96 6.87499 153.644ZM6.24196 157.118C6.68508 157.813 6.93829 158.192 7.2548 158.698C6.81168 158.887 6.36856 159.266 5.92545 159.266C5.67223 159.266 5.22911 158.635 5.29242 158.382C5.41902 157.94 5.79884 157.624 6.24196 157.118ZM3.96306 149.285C4.27957 149.727 4.59609 150.106 4.9126 150.611C4.40618 150.927 3.96306 151.18 3.39333 151.559C3.14012 151.18 2.82361 150.864 2.5071 150.422C3.01352 150.043 3.45664 149.664 3.96306 149.285ZM3.20343 153.012C3.51994 153.517 3.83645 153.896 4.08966 154.275C3.45664 154.781 2.95022 155.349 2.38049 154.402C1.81077 153.517 2.88691 153.581 3.20343 153.012ZM1.81077 157.813C1.93737 157.497 2.38049 157.245 2.697 156.992C2.95022 157.245 3.33003 157.561 3.33003 157.813C3.26673 158.192 2.88691 158.508 2.697 158.887C2.5704 158.824 2.44379 158.761 2.31719 158.698C2.06398 158.382 1.68416 158.003 1.81077 157.813ZM1.55756 162.046C1.36765 162.046 1.05113 161.478 1.11444 161.225C1.17774 160.972 1.68416 160.53 1.81077 160.593C2.19058 160.783 2.44379 161.162 2.95022 161.604C2.31719 161.857 1.87407 162.109 1.55756 162.046Z" fill="#322D3E"/>
<path d="M17.2568 152.886C18.2064 154.212 18.1431 155.286 17.2568 155.918C16.4972 156.423 15.3578 156.234 14.8513 155.539C14.155 154.591 14.5348 153.58 15.9275 152.633C15.1045 151.053 15.1045 150.169 16.0541 149.6C16.877 149.095 17.8899 149.348 18.3963 150.106C18.966 150.99 18.6495 151.812 17.2568 152.886Z" fill="#322D3E"/>
<path d="M11.8761 146.947C10.3568 147.831 9.4706 147.831 8.83757 146.884C8.33115 146.126 8.52106 145.115 9.21739 144.546C10.1669 143.851 10.9899 144.167 12.1293 145.62C13.7119 144.736 14.5981 144.799 15.1678 145.747C15.611 146.505 15.4844 147.516 14.7247 148.021C13.9018 148.653 13.1422 148.4 11.8761 146.947Z" fill="#322D3E"/>
<path d="M27.0055 168.49C25.5495 169.438 24.5367 169.438 23.9037 168.427C23.3972 167.606 23.6505 166.532 24.4734 166.026C25.4862 165.394 26.3725 165.837 27.2587 167.29C28.6514 166.342 29.6642 166.279 30.2973 167.227C30.8037 167.985 30.6138 169.059 29.9174 169.564C28.9046 170.196 28.0184 169.88 27.0055 168.49Z" fill="#322D3E"/>
<path d="M2.57063 132.29C2.12751 131.595 1.43118 131.342 0.798157 131.469V138.292C0.988065 138.229 1.24128 138.165 1.43118 138.039C2.38073 137.407 2.31742 136.396 1.36788 135.007C2.82384 134.059 3.20366 133.238 2.57063 132.29Z" fill="#322D3E"/>
<path d="M11.623 140.629C12.6991 141.83 12.6991 142.967 11.8129 143.599C10.9899 144.167 9.85048 143.978 9.34406 143.156C8.71103 142.146 9.15415 141.198 10.4202 140.503C10.2303 139.682 9.97709 138.924 9.97709 138.229C9.97709 137.913 10.4202 137.534 10.8 137.281C11.5597 136.839 12.5092 137.155 12.9523 137.976C13.4587 138.924 13.1422 139.682 11.623 140.629Z" fill="#322D3E"/>
<path d="M33.4624 173.165C33.5257 173.039 33.589 172.912 33.589 172.849C33.589 172.091 33.2725 171.396 33.0193 170.575C34.222 169.69 34.5386 168.869 33.9055 167.985C33.3358 167.227 32.323 167.037 31.5633 167.542C30.6138 168.237 30.6771 169.122 31.6899 170.512C30.2973 171.586 29.9808 172.344 30.5505 173.165H33.4624Z" fill="#322D3E"/>
<path d="M27.4486 158.508C28.4615 160.151 28.4615 160.972 27.3853 161.604C26.6257 162.109 25.6761 161.793 25.1064 160.972C24.5367 160.024 24.9165 159.266 26.2459 158.382C26.056 157.624 25.7394 156.929 25.7394 156.234C25.7394 155.918 26.1193 155.476 26.4991 155.223C27.1954 154.718 28.2083 154.97 28.7147 155.728C29.2844 156.676 28.9679 157.434 27.4486 158.508Z" fill="#322D3E"/>
<path d="M22.511 151.369C24.0935 150.358 24.9798 150.422 25.5495 151.432C26.0559 152.191 25.7394 153.201 24.9165 153.707C23.9669 154.275 23.144 153.896 22.3844 152.633C21.5614 152.822 20.8651 153.138 20.1055 153.138C19.789 153.138 19.3458 152.633 19.0926 152.254C18.6495 151.496 18.966 150.611 19.789 150.106C20.7385 149.537 21.4981 149.853 22.511 151.369Z" fill="#322D3E"/>
<path d="M11.5596 150.169C11.6229 149.158 12.3826 148.526 13.3954 148.59C14.4083 148.653 15.1046 149.411 15.0413 150.485C14.978 151.432 14.2184 152.127 13.2055 152.064C12.1294 151.938 11.4963 151.18 11.5596 150.169Z" fill="#322D3E"/>
<path d="M22.1945 165.015C21.1816 165.015 20.4853 164.32 20.4853 163.31C20.4853 162.299 21.1816 161.604 22.1945 161.604C23.2073 161.604 23.9669 162.299 23.9036 163.373C23.9036 164.32 23.2073 165.015 22.1945 165.015Z" fill="#322D3E"/>
<path d="M20.9284 158.95C20.9284 159.961 20.2321 160.656 19.2192 160.656C18.2064 160.656 17.4467 159.898 17.51 158.887C17.5733 157.876 18.2697 157.245 19.2825 157.245C20.2954 157.182 20.9284 157.94 20.9284 158.95Z" fill="#322D3E"/>
<path d="M24.6 159.645C24.6 160.593 23.7771 161.351 22.8275 161.288C21.878 161.225 21.1817 160.467 21.245 159.582C21.245 158.635 22.0679 157.876 23.0174 157.94C23.9037 157.94 24.6 158.698 24.6 159.645Z" fill="#322D3E"/>
<path d="M25.9294 162.109C26.8789 162.109 27.5752 162.867 27.5752 163.815C27.5752 164.763 26.8156 165.521 25.8661 165.521C24.9165 165.521 24.1569 164.699 24.2202 163.752C24.2202 162.804 24.9798 162.109 25.9294 162.109Z" fill="#322D3E"/>
<path d="M4.15321 135.638C5.10275 135.638 5.86238 136.396 5.86238 137.344C5.86238 138.292 5.10275 138.987 4.15321 138.987C3.20366 138.987 2.44403 138.229 2.44403 137.281C2.44403 136.396 3.20366 135.638 4.15321 135.638Z" fill="#322D3E"/>
<path d="M27.2587 173.165H29.3477C29.7275 172.849 29.9807 172.407 29.9807 171.902C29.9807 170.954 29.2844 170.196 28.3982 170.196C27.4486 170.133 26.6257 170.891 26.6257 171.838C26.6257 172.344 26.8789 172.849 27.2587 173.165Z" fill="#322D3E"/>
<path d="M7.06515 143.409C6.11561 143.409 5.35597 142.588 5.41928 141.64C5.48258 140.693 6.24221 139.998 7.12845 140.061C8.07799 140.061 8.83763 140.882 8.77432 141.83C8.77432 142.714 8.01469 143.472 7.06515 143.409Z" fill="#322D3E"/>
<path d="M19.9156 156.929C18.9661 156.929 18.2064 156.171 18.2064 155.223C18.2064 154.275 18.9661 153.58 19.9156 153.58C20.8651 153.58 21.5615 154.275 21.6248 155.223C21.6248 156.108 20.8651 156.929 19.9156 156.929Z" fill="#322D3E"/>
<path d="M25.2963 155.918C25.2963 156.802 24.4734 157.624 23.6504 157.624C22.7642 157.624 21.8779 156.802 21.9413 155.918C21.9413 155.034 22.7642 154.275 23.6504 154.275C24.4734 154.212 25.2963 155.034 25.2963 155.918Z" fill="#322D3E"/>
<path d="M7.82479 139.745C6.93855 139.745 6.11561 138.987 6.11561 138.102C6.05231 137.218 6.87525 136.396 7.76148 136.333C8.64772 136.27 9.53396 137.091 9.53396 138.039C9.53396 138.924 8.71103 139.745 7.82479 139.745Z" fill="#322D3E"/>
<path d="M19.156 147.326C19.156 148.21 18.333 148.969 17.4468 149.032C16.5605 149.032 15.7376 148.21 15.7376 147.263C15.7376 146.378 16.6238 145.62 17.4468 145.62C18.333 145.683 19.156 146.505 19.156 147.326Z" fill="#322D3E"/>
<path d="M29.5376 162.804C30.4238 162.804 31.2468 163.625 31.2468 164.447C31.2468 165.331 30.4238 166.153 29.6009 166.153C28.7147 166.153 27.8917 165.331 27.8917 164.51C27.8917 163.625 28.6514 162.804 29.5376 162.804Z" fill="#322D3E"/>
<path d="M16.1807 142.967C16.1807 143.851 15.3577 144.673 14.4715 144.609C13.5853 144.609 12.7623 143.788 12.8256 142.904C12.8256 142.019 13.6486 141.198 14.5348 141.261C15.3577 141.261 16.1807 142.082 16.1807 142.967Z" fill="#322D3E"/>
<path d="M37.3871 173.165C37.3871 172.218 36.6275 171.396 35.7413 171.396C34.855 171.396 34.0321 172.154 34.0321 173.039V173.102H37.3871V173.165Z" fill="#322D3E"/>
<path d="M34.9183 165.205C34.9183 166.089 34.0954 166.911 33.2092 166.848C32.3229 166.848 31.5633 166.026 31.5633 165.142C31.5633 164.32 32.3229 163.562 33.2092 163.499C34.0954 163.499 34.9183 164.32 34.9183 165.205Z" fill="#322D3E"/>
<path d="M6.49539 133.68C6.49539 134.564 5.67245 135.323 4.78621 135.323C3.89997 135.323 3.14034 134.438 3.20364 133.617C3.26695 132.732 4.02658 132.037 4.84952 132.037C5.73575 132.037 6.49539 132.795 6.49539 133.68Z" fill="#322D3E"/>
<path d="M10.167 134.375C10.167 135.259 9.34406 136.017 8.45782 136.017C7.57158 136.017 6.81195 135.196 6.81195 134.312C6.87525 133.49 7.63489 132.732 8.45782 132.732C9.40736 132.732 10.167 133.49 10.167 134.375Z" fill="#322D3E"/>
<path d="M30.2972 162.488C29.411 162.488 28.588 161.667 28.6513 160.783C28.6513 159.898 29.4743 159.14 30.3605 159.14C31.1834 159.14 31.9431 159.898 32.0064 160.783C31.9431 161.667 31.1834 162.488 30.2972 162.488Z" fill="#322D3E"/>
<path d="M19.8522 143.599C19.8522 144.483 19.0926 145.304 18.2064 145.304C17.3201 145.304 16.4972 144.546 16.4972 143.662C16.4972 142.84 17.2568 142.019 18.0798 142.019C18.966 141.956 19.7889 142.714 19.8522 143.599Z" fill="#322D3E"/>
<path d="M15.1679 137.597C16.0541 137.597 16.8771 138.355 16.8771 139.239C16.8771 140.124 16.1174 140.945 15.2312 140.945C14.4083 140.945 13.5853 140.187 13.5853 139.366C13.4587 138.481 14.2817 137.66 15.1679 137.597Z" fill="#322D3E"/>
<path d="M21.1816 146.189C22.0679 146.189 22.8908 147.01 22.8275 147.895C22.8275 148.779 22.0046 149.537 21.1183 149.537C20.2321 149.537 19.5358 148.779 19.4725 147.895C19.4725 147.01 20.2321 146.189 21.1816 146.189Z" fill="#322D3E"/>
<path d="M27.8284 154.591C27.0055 154.591 26.1826 153.77 26.1826 152.949C26.1826 152.127 27.0688 151.243 27.8917 151.306C28.7147 151.369 29.5376 152.191 29.4743 153.012C29.4743 153.77 28.5881 154.591 27.8284 154.591Z" fill="#322D3E"/>
<path d="M32.6394 157.118C32.6394 157.94 31.8165 158.761 30.9935 158.761C30.1706 158.761 29.3477 157.94 29.3477 157.118C29.3477 156.297 30.1706 155.413 31.0568 155.413C31.8165 155.539 32.6394 156.36 32.6394 157.118Z" fill="#322D3E"/>
<path d="M26.4991 148.59C26.4991 149.411 25.6761 150.232 24.8532 150.232C24.0303 150.232 23.2073 149.411 23.2073 148.59C23.2073 147.768 24.0303 146.884 24.9165 146.884C25.6761 146.947 26.4991 147.768 26.4991 148.59Z" fill="#322D3E"/>
<path d="M21.8147 142.525C22.6376 142.525 23.4606 143.283 23.5239 144.104C23.5239 144.925 22.7642 145.747 21.9413 145.81C21.1184 145.873 20.2321 144.988 20.2321 144.167C20.1688 143.409 20.9918 142.525 21.8147 142.525Z" fill="#322D3E"/>
<path d="M1.8743 127.805C1.49449 127.805 1.11467 127.994 0.798157 128.247V130.647C1.11467 130.9 1.49449 131.09 1.8743 131.09C2.69724 131.09 3.52018 130.268 3.52018 129.447C3.52018 128.689 2.69724 127.805 1.8743 127.805Z" fill="#322D3E"/>
<path d="M35.5513 161.478C35.5513 162.362 34.7917 163.12 33.9687 163.12C33.0825 163.12 32.3229 162.362 32.3229 161.541C32.3229 160.656 33.0825 159.898 33.9054 159.898C34.7917 159.898 35.5513 160.656 35.5513 161.478Z" fill="#322D3E"/>
<path d="M7.1284 130.016C7.1284 130.9 6.36877 131.658 5.54584 131.658C4.6596 131.658 3.89996 130.9 3.89996 130.079C3.89996 129.194 4.6596 128.436 5.48253 128.436C6.36877 128.373 7.1284 129.131 7.1284 130.016Z" fill="#322D3E"/>
<path d="M36.2477 167.795C37.1339 167.795 37.8302 168.553 37.8302 169.438C37.8302 170.322 37.0706 171.017 36.1844 171.017C35.2981 171.017 34.6018 170.259 34.6018 169.375C34.6651 168.49 35.4247 167.795 36.2477 167.795Z" fill="#322D3E"/>
<path d="M12.1926 136.712C11.3064 136.712 10.5468 135.954 10.5468 135.07C10.5468 134.185 11.3064 133.427 12.1926 133.427C13.0789 133.427 13.8385 134.185 13.8385 135.07C13.8385 135.954 13.0789 136.712 12.1926 136.712Z" fill="#322D3E"/>
<path d="M20.4853 139.998C20.4853 140.882 19.7257 141.64 18.8394 141.64C17.9532 141.64 17.1935 140.882 17.1935 139.998C17.1935 139.113 17.9532 138.355 18.8394 138.355C19.7257 138.355 20.4853 139.113 20.4853 139.998Z" fill="#322D3E"/>
<path d="M31.5633 151.938C32.5128 151.938 33.1459 152.57 33.0826 153.58C33.0193 154.528 32.4495 155.097 31.5 155.034C30.5505 155.034 29.9174 154.402 29.9807 153.391C29.9807 152.443 30.6138 151.875 31.5633 151.938Z" fill="#322D3E"/>
<path d="M15.801 137.155C14.8514 137.091 14.2817 136.46 14.345 135.512C14.4083 134.564 15.0413 134.059 15.9909 134.059C16.9404 134.122 17.5101 134.754 17.4468 135.702C17.3835 136.649 16.7505 137.155 15.801 137.155Z" fill="#322D3E"/>
<path d="M3.89995 125.846C3.89995 126.794 3.33022 127.362 2.31738 127.362C1.36784 127.362 0.734812 126.73 0.798115 125.72C0.861417 124.772 1.43114 124.203 2.38068 124.267C3.39353 124.267 3.89995 124.898 3.89995 125.846Z" fill="#322D3E"/>
<path d="M25.5495 143.346C26.499 143.346 27.0688 143.978 27.0688 144.989C27.0055 145.936 26.4357 146.442 25.4862 146.442C24.5366 146.442 23.9669 145.81 23.9669 144.799C24.0302 143.851 24.5999 143.346 25.5495 143.346Z" fill="#322D3E"/>
<path d="M36.944 167.29C35.9945 167.29 35.4247 166.721 35.4247 165.774C35.4247 164.826 35.9945 164.194 36.944 164.194C37.8936 164.194 38.4633 164.763 38.4633 165.71C38.5266 166.658 37.8936 167.29 36.944 167.29Z" fill="#322D3E"/>
<path d="M10.6101 130.711C10.6101 131.658 9.97705 132.29 9.02751 132.227C8.07796 132.227 7.50824 131.595 7.50824 130.711C7.50824 129.763 8.14127 129.131 9.09081 129.194C10.0404 129.194 10.6101 129.763 10.6101 130.711Z" fill="#322D3E"/>
<path d="M12.7624 129.826C13.7119 129.826 14.2817 130.458 14.2817 131.406C14.2817 132.353 13.6486 132.985 12.6358 132.922C11.6863 132.859 11.1165 132.29 11.1798 131.342C11.1798 130.395 11.8129 129.826 12.7624 129.826Z" fill="#322D3E"/>
<path d="M36.0578 157.876C36.0578 158.824 35.4881 159.393 34.5386 159.393C33.5257 159.393 32.956 158.761 33.0193 157.813C33.0193 156.866 33.6523 156.297 34.6019 156.36C35.4881 156.297 36.0578 156.929 36.0578 157.876Z" fill="#322D3E"/>
<path d="M28.4614 150.801C27.5119 150.801 26.9421 150.169 26.9421 149.158C27.0054 148.21 27.5752 147.705 28.5247 147.705C29.4742 147.705 30.044 148.337 30.044 149.348C30.044 150.295 29.4109 150.801 28.4614 150.801Z" fill="#322D3E"/>
<path d="M20.9918 140.629C20.9918 139.682 21.5615 139.113 22.511 139.113C23.4606 139.113 24.0936 139.745 24.0303 140.692C24.0303 141.64 23.3973 142.209 22.4477 142.145C21.5615 142.209 20.9918 141.64 20.9918 140.629Z" fill="#322D3E"/>
<path d="M41.5018 170.133C41.5018 171.08 40.9321 171.649 39.9825 171.649C38.9697 171.649 38.4 171.017 38.4 170.07C38.4 169.122 39.033 168.553 39.9825 168.553C40.9321 168.553 41.5018 169.185 41.5018 170.133Z" fill="#322D3E"/>
<path d="M39.1596 162.046C39.1596 162.931 38.5266 163.562 37.6404 163.626C36.7541 163.626 36.0578 162.994 36.0578 162.109C36.0578 161.225 36.6908 160.53 37.5771 160.53C38.5266 160.467 39.1596 161.162 39.1596 162.046Z" fill="#322D3E"/>
<path d="M33.7156 149.79C33.7156 150.674 33.0193 151.306 32.133 151.306C31.2468 151.306 30.6138 150.611 30.6138 149.727C30.6138 148.842 31.3101 148.21 32.1963 148.21C33.1459 148.274 33.7789 148.905 33.7156 149.79Z" fill="#322D3E"/>
<path d="M19.4092 137.85C18.5229 137.85 17.8899 137.218 17.8899 136.333C17.8899 135.449 18.5229 134.817 19.4092 134.817C20.2954 134.817 20.9284 135.449 20.9284 136.333C20.9284 137.218 20.2954 137.85 19.4092 137.85Z" fill="#322D3E"/>
<path d="M29.2211 147.136C28.3349 147.136 27.7018 146.505 27.7018 145.62C27.7018 144.736 28.3349 144.104 29.2211 144.104C30.1073 144.104 30.7404 144.736 30.7404 145.62C30.7404 146.442 30.1073 147.136 29.2211 147.136Z" fill="#322D3E"/>
<path d="M7.57158 126.415C7.50828 127.299 6.87525 127.931 5.98901 127.868C5.10277 127.804 4.46974 127.173 4.53305 126.288C4.59635 125.404 5.22938 124.772 6.11561 124.835C7.00185 124.835 7.63488 125.467 7.57158 126.415Z" fill="#322D3E"/>
<path d="M40.6789 164.889C41.5651 164.889 42.1981 165.647 42.1981 166.468C42.1981 167.29 41.4385 167.985 40.5523 167.922C39.7293 167.858 39.0963 167.227 39.0963 166.405C39.0963 165.584 39.7926 164.889 40.6789 164.889Z" fill="#322D3E"/>
<path d="M17.9532 131.974C17.9532 132.795 17.1936 133.49 16.3706 133.49C15.5477 133.427 14.8513 132.732 14.9146 131.848C14.978 131.026 15.6743 130.395 16.4972 130.395C17.3202 130.395 17.9532 131.09 17.9532 131.974Z" fill="#322D3E"/>
<path d="M26.2458 139.682C27.1321 139.682 27.7651 140.377 27.7651 141.261C27.7651 142.082 27.0055 142.777 26.1825 142.777C25.3596 142.714 24.7266 142.082 24.7266 141.261C24.7266 140.377 25.4229 139.682 26.2458 139.682Z" fill="#322D3E"/>
<path d="M35.2348 152.633C36.1211 152.633 36.7541 153.391 36.7541 154.212C36.7541 155.034 35.9945 155.728 35.1082 155.665C34.2853 155.602 33.6523 154.97 33.6523 154.149C33.6523 153.328 34.3486 152.633 35.2348 152.633Z" fill="#322D3E"/>
<path d="M38.9064 153.328C39.7294 153.328 40.3624 154.023 40.3624 154.844C40.3624 155.665 39.6028 156.36 38.7798 156.36C37.9569 156.297 37.3239 155.602 37.3239 154.781C37.3872 153.96 38.0835 153.328 38.9064 153.328Z" fill="#322D3E"/>
<path d="M35.8679 148.969C36.6908 148.969 37.3872 149.664 37.3872 150.485C37.3872 151.306 36.6908 152.064 35.8046 152.001C34.9817 152.001 34.3486 151.306 34.3486 150.485C34.4119 149.664 35.045 148.969 35.8679 148.969Z" fill="#322D3E"/>
<path d="M0.798157 116.433V119.086C1.24128 118.833 1.55779 118.391 1.62109 117.823C1.62109 117.191 1.30458 116.685 0.798157 116.433Z" fill="#322D3E"/>
<path d="M42.8312 162.678C42.8312 163.499 42.1982 164.194 41.3752 164.257C40.5523 164.32 39.7927 163.562 39.7927 162.741C39.7927 161.92 40.489 161.225 41.3119 161.225C42.1349 161.225 42.8312 161.92 42.8312 162.678Z" fill="#322D3E"/>
<path d="M34.4119 146.252C34.4119 147.073 33.7789 147.768 32.956 147.768C32.133 147.768 31.4367 147.136 31.3734 146.315C31.3101 145.494 32.0697 144.736 32.8927 144.736C33.7156 144.799 34.4119 145.431 34.4119 146.252Z" fill="#322D3E"/>
<path d="M9.72386 128.563C8.90092 128.563 8.20459 127.868 8.20459 127.046C8.20459 126.225 8.90092 125.467 9.78716 125.53C10.6101 125.53 11.2431 126.288 11.2431 127.11C11.2431 127.868 10.5468 128.563 9.72386 128.563Z" fill="#322D3E"/>
<path d="M41.8817 160.593C41.0587 160.593 40.3624 159.961 40.2991 159.14C40.2358 158.319 40.9954 157.561 41.8184 157.561C42.6413 157.561 43.3376 158.256 43.3376 159.077C43.4009 159.835 42.7046 160.53 41.8817 160.593Z" fill="#322D3E"/>
<path d="M14.978 127.678C14.978 128.499 14.345 129.194 13.5221 129.194C12.6991 129.194 12.0028 128.563 11.9395 127.741C11.8762 126.92 12.5725 126.162 13.4587 126.162C14.2184 126.225 14.9147 126.857 14.978 127.678Z" fill="#322D3E"/>
<path d="M39.6661 158.508C39.6661 159.33 38.9697 160.024 38.1468 160.024C37.3239 160.024 36.5642 159.33 36.6275 158.445C36.6275 157.624 37.3239 156.929 38.1468 156.992C39.033 157.055 39.6661 157.75 39.6661 158.508Z" fill="#322D3E"/>
<path d="M11.9394 123.319C11.9394 124.14 11.2431 124.835 10.4835 124.835C9.66054 124.835 8.9009 124.14 8.96421 123.319C8.96421 122.498 9.66054 121.803 10.4835 121.866C11.2431 121.803 11.9394 122.498 11.9394 123.319Z" fill="#322D3E"/>
<path d="M17.1302 126.92C17.9532 126.92 18.6495 127.615 18.5862 128.436C18.5862 129.258 17.8266 129.952 17.0036 129.952C16.1807 129.889 15.5477 129.194 15.5477 128.373C15.611 127.552 16.3073 126.857 17.1302 126.92Z" fill="#322D3E"/>
<path d="M24.6 136.965C24.6 137.786 23.9669 138.481 23.144 138.481C22.3211 138.481 21.6247 137.85 21.5614 137.028C21.4981 136.207 22.1945 135.449 23.0807 135.449C23.9036 135.449 24.6 136.144 24.6 136.965Z" fill="#322D3E"/>
<path d="M45.8064 167.1C45.8064 167.922 45.1734 168.616 44.3504 168.616C43.5275 168.616 42.8312 167.985 42.7679 167.163C42.7046 166.342 43.4642 165.584 44.2871 165.584C45.1101 165.584 45.8064 166.279 45.8064 167.1Z" fill="#322D3E"/>
<path d="M6.74864 121.297C7.57157 121.297 8.2679 121.929 8.2679 122.75C8.2679 123.572 7.63488 124.267 6.81194 124.33C5.989 124.393 5.22937 123.635 5.22937 122.814C5.22937 121.992 5.9257 121.297 6.74864 121.297Z" fill="#322D3E"/>
<path d="M29.7275 140.377C30.5505 140.377 31.2468 141.072 31.2468 141.83C31.2468 142.651 30.5505 143.409 29.7275 143.409C28.9046 143.409 28.2083 142.714 28.2083 141.893C28.2083 141.072 28.9046 140.377 29.7275 140.377Z" fill="#322D3E"/>
<path d="M4.59631 122.119C4.59631 122.94 3.89998 123.635 3.07704 123.572C2.2541 123.572 1.49447 122.814 1.55777 121.992C1.62108 121.171 2.31741 120.539 3.14034 120.539C3.96328 120.602 4.59631 121.36 4.59631 122.119Z" fill="#322D3E"/>
<path d="M21.6247 132.606C21.6247 133.427 20.9284 134.122 20.1688 134.122C19.3458 134.122 18.5862 133.427 18.5862 132.543C18.5862 131.721 19.2825 131.027 20.1054 131.09C20.9284 131.09 21.6247 131.785 21.6247 132.606Z" fill="#322D3E"/>
<path d="M28.2715 137.534C28.2715 138.355 27.5752 139.05 26.7523 139.05C25.9293 139.05 25.1697 138.355 25.233 137.47C25.233 136.649 25.9293 135.954 26.7523 136.017C27.5752 136.017 28.2715 136.712 28.2715 137.534Z" fill="#322D3E"/>
<path d="M22.2578 133.301C22.2578 132.48 22.9541 131.785 23.777 131.785C24.5999 131.785 25.3596 132.48 25.2963 133.364C25.2963 134.185 24.5999 134.817 23.777 134.817C22.9541 134.817 22.2578 134.122 22.2578 133.301Z" fill="#322D3E"/>
<path d="M45.11 170.764C45.11 171.586 44.477 172.281 43.6541 172.281C42.8311 172.281 42.1348 171.649 42.0715 170.828C42.0082 170.006 42.7678 169.248 43.5908 169.248C44.4137 169.311 45.11 169.943 45.11 170.764Z" fill="#322D3E"/>
<path d="M31.9431 138.229C31.9431 139.05 31.3101 139.745 30.4239 139.745C29.6009 139.745 28.9046 139.05 28.9046 138.229C28.9046 137.407 29.5376 136.776 30.3606 136.776C31.2468 136.712 31.9431 137.344 31.9431 138.229Z" fill="#322D3E"/>
<path d="M34.9183 142.588C34.9183 143.409 34.2853 144.104 33.4624 144.104C32.6394 144.104 31.9431 143.409 31.9431 142.588C31.9431 141.766 32.5761 141.135 33.3991 141.135C34.222 141.072 34.9183 141.766 34.9183 142.588Z" fill="#322D3E"/>
<path d="M36.5642 145.304C37.3871 145.304 38.0835 145.936 38.0835 146.757C38.0835 147.579 37.3871 148.274 36.5642 148.274C35.7413 148.274 35.1083 147.642 35.1083 146.821C35.0449 145.999 35.7413 145.368 36.5642 145.304Z" fill="#322D3E"/>
<path d="M20.7386 130.458C19.9156 130.458 19.2826 129.763 19.2826 128.942C19.3459 128.12 20.0422 127.489 20.8652 127.489C21.6881 127.552 22.2578 128.184 22.2578 129.005C22.2578 129.763 21.5615 130.458 20.7386 130.458Z" fill="#322D3E"/>
<path d="M48.7816 171.333C48.7816 172.154 48.1486 172.849 47.3257 172.849C46.5027 172.849 45.8064 172.154 45.8064 171.333C45.8064 170.512 46.4394 169.88 47.2624 169.88C48.0853 169.817 48.7816 170.449 48.7816 171.333Z" fill="#322D3E"/>
<path d="M15.611 124.014C15.611 124.835 14.978 125.53 14.0918 125.53C13.2688 125.53 12.6358 124.898 12.5725 124.077C12.5092 123.256 13.2055 122.561 14.0284 122.498C14.9147 122.561 15.611 123.193 15.611 124.014Z" fill="#322D3E"/>
<path d="M5.29262 118.391C5.29262 119.213 4.65959 119.907 3.77336 119.907C2.95042 119.907 2.25409 119.213 2.25409 118.391C2.25409 117.57 2.88712 116.938 3.71005 116.938C4.59629 116.938 5.22932 117.57 5.29262 118.391Z" fill="#322D3E"/>
<path d="M39.5394 152.696C38.7165 152.696 38.0202 152.001 38.0835 151.18C38.0835 150.358 38.8431 149.727 39.666 149.727C40.489 149.79 41.0587 150.422 41.0587 151.243C41.0587 152.001 40.3624 152.696 39.5394 152.696Z" fill="#322D3E"/>
<path d="M44.7936 161.983C45.6165 161.983 46.3128 162.615 46.3128 163.436C46.3128 164.257 45.6798 164.952 44.7936 164.952C43.9706 164.952 43.3376 164.321 43.3376 163.499C43.3376 162.678 43.9706 161.983 44.7936 161.983Z" fill="#322D3E"/>
<path d="M49.478 167.606C49.478 168.364 48.7816 169.122 48.022 169.122C47.2624 169.122 46.566 168.427 46.566 167.669C46.566 166.911 47.2624 166.153 48.022 166.153C48.7183 166.153 49.478 166.848 49.478 167.606Z" fill="#322D3E"/>
<path d="M24.4734 131.153C23.7138 131.153 22.9541 130.395 23.0174 129.637C23.0807 128.879 23.7771 128.184 24.5367 128.184C25.2963 128.184 26.056 128.942 25.9927 129.7C25.9294 130.458 25.233 131.153 24.4734 131.153Z" fill="#322D3E"/>
<path d="M27.5119 132.353C28.3349 132.416 28.9679 133.175 28.9046 133.933C28.8413 134.691 28.0816 135.322 27.3853 135.322C26.6257 135.259 25.9294 134.501 25.9927 133.743C26.056 132.985 26.8156 132.353 27.5119 132.353Z" fill="#322D3E"/>
<path d="M19.2826 124.709C19.2826 125.467 18.5863 126.225 17.7633 126.225C17.0037 126.225 16.3074 125.53 16.3074 124.772C16.3074 124.014 17.0037 123.256 17.8266 123.256C18.5863 123.256 19.2826 123.951 19.2826 124.709Z" fill="#322D3E"/>
<path d="M8.96424 119.149C8.96424 119.907 8.20461 120.666 7.44498 120.602C6.68534 120.602 5.98901 119.844 5.98901 119.149C5.98901 118.391 6.74865 117.633 7.50828 117.696C8.26791 117.696 8.96424 118.391 8.96424 119.149Z" fill="#322D3E"/>
<path d="M44.0339 155.413C44.0339 156.171 43.2743 156.929 42.5147 156.929C41.755 156.929 41.0587 156.234 41.0587 155.476C41.0587 154.718 41.8183 153.96 42.578 153.96C43.3376 153.96 44.0339 154.654 44.0339 155.413Z" fill="#322D3E"/>
<path d="M45.5532 161.225C44.7935 161.225 44.0972 160.53 44.0339 159.772C43.9706 159.014 44.7302 158.255 45.4899 158.255C46.2495 158.255 46.9459 158.95 47.0092 159.709C47.0725 160.467 46.3128 161.225 45.5532 161.225Z" fill="#322D3E"/>
<path d="M12.5906 119.726C12.609 118.924 11.9722 118.258 11.1684 118.24C10.3645 118.222 9.69792 118.857 9.67951 119.659C9.6611 120.462 10.2978 121.127 11.1017 121.145C11.9056 121.164 12.5722 120.528 12.5906 119.726Z" fill="#322D3E"/>
<path d="M0.861459 112.642C0.861459 112.642 0.798157 112.642 0.861459 112.642L0.798157 115.485C1.55779 115.485 2.19082 114.853 2.25412 114.095C2.25412 113.337 1.6844 112.642 0.861459 112.642Z" fill="#322D3E"/>
<path d="M38.6004 143.121C38.603 142.319 37.9533 141.666 37.1492 141.663C36.3451 141.661 35.6911 142.309 35.6885 143.112C35.6858 143.914 36.3356 144.567 37.1397 144.57C37.9438 144.572 38.5978 143.924 38.6004 143.121Z" fill="#322D3E"/>
<path d="M34.1645 140.377C34.9686 140.374 35.618 139.721 35.6149 138.919C35.6119 138.116 34.9575 137.468 34.1534 137.471C33.3493 137.474 32.6999 138.127 32.703 138.93C32.7061 139.732 33.3604 140.38 34.1645 140.377Z" fill="#322D3E"/>
<path d="M40.1233 148.964C40.9273 148.955 41.5721 148.298 41.5634 147.496C41.5548 146.693 40.8959 146.05 40.0919 146.058C39.2879 146.067 38.6431 146.724 38.6518 147.527C38.6605 148.329 39.3193 148.973 40.1233 148.964Z" fill="#322D3E"/>
<path d="M43.211 150.295C43.9706 150.295 44.6669 150.99 44.6669 151.748C44.6669 152.443 43.9706 153.138 43.2743 153.201C42.5146 153.201 41.8183 152.506 41.8183 151.748C41.8183 150.99 42.5146 150.295 43.211 150.295Z" fill="#322D3E"/>
<path d="M50.1743 173.165H51.7569C52.1367 172.912 52.3899 172.47 52.3899 172.028C52.3899 171.333 51.7569 170.575 50.9972 170.575C50.2376 170.512 49.478 171.207 49.478 171.965C49.5413 172.407 49.7945 172.912 50.1743 173.165Z" fill="#322D3E"/>
<path d="M20.0422 125.214C20.1055 124.456 20.8651 123.761 21.5614 123.824C22.2578 123.888 22.9541 124.646 22.8908 125.341C22.8275 126.099 22.0679 126.794 21.3715 126.73C20.6752 126.667 20.0422 125.909 20.0422 125.214Z" fill="#322D3E"/>
<path d="M48.5284 165.584C47.7688 165.584 47.0724 164.826 47.0724 164.131C47.0724 163.436 47.8321 162.741 48.5284 162.741C49.288 162.741 49.9844 163.499 49.9844 164.194C49.9211 164.889 49.2247 165.584 48.5284 165.584Z" fill="#322D3E"/>
<path d="M16.1174 120.35C16.1174 121.108 15.4211 121.803 14.6615 121.803C13.9651 121.803 13.2688 121.108 13.2055 120.413C13.2055 119.655 13.9018 118.96 14.6615 118.96C15.3578 118.897 16.0541 119.592 16.1174 120.35Z" fill="#322D3E"/>
<path d="M31.1835 133.111C31.9431 133.111 32.6395 133.869 32.6395 134.628C32.5762 135.323 31.8798 136.017 31.1835 136.017C30.4239 136.017 29.7275 135.259 29.7275 134.501C29.7275 133.806 30.4872 133.111 31.1835 133.111Z" fill="#322D3E"/>
<path d="M5.67247 114.79C5.67247 115.611 5.10274 116.18 4.27981 116.18C3.45687 116.18 2.88715 115.611 2.88715 114.79C2.88715 113.969 3.45687 113.4 4.27981 113.4C5.10274 113.4 5.67247 113.969 5.67247 114.79Z" fill="#322D3E"/>
<path d="M36.1844 135.259C36.1844 136.081 35.6146 136.649 34.7917 136.649C34.0321 136.649 33.4623 136.144 33.4623 135.322C33.4623 134.501 33.9688 133.933 34.7917 133.869C35.6146 133.869 36.1844 134.438 36.1844 135.259Z" fill="#322D3E"/>
<path d="M29.5376 130.332C29.5376 131.153 28.9679 131.721 28.145 131.721C27.322 131.721 26.7523 131.153 26.7523 130.332C26.7523 129.51 27.322 128.942 28.145 128.942C28.9679 129.005 29.5376 129.51 29.5376 130.332Z" fill="#322D3E"/>
<path d="M42.1982 143.788C42.1982 144.609 41.6284 145.178 40.8055 145.178C39.9826 145.178 39.4128 144.609 39.4128 143.788C39.4128 143.03 39.9826 142.461 40.7422 142.461C41.5651 142.461 42.1349 143.03 42.1982 143.788Z" fill="#322D3E"/>
<path d="M9.34404 115.485C9.34404 116.306 8.71101 116.812 7.88807 116.812C7.12844 116.812 6.55872 116.243 6.55872 115.422C6.55872 114.601 7.12844 114.032 7.95138 114.032C8.83762 114.095 9.40734 114.664 9.34404 115.485Z" fill="#322D3E"/>
<path d="M45.1734 148.21C45.1734 149.032 44.6036 149.6 43.844 149.6C43.0211 149.6 42.4514 149.032 42.4514 148.21C42.4514 147.452 43.0211 146.884 43.7807 146.884C44.5403 146.821 45.1101 147.389 45.1734 148.21Z" fill="#322D3E"/>
<path d="M26.3724 125.972C26.3724 126.794 25.8027 127.362 24.9798 127.299C24.1568 127.299 23.5871 126.667 23.6504 125.909C23.6504 125.151 24.2202 124.582 24.9798 124.582C25.8027 124.582 26.3724 125.151 26.3724 125.972Z" fill="#322D3E"/>
<path d="M47.6422 156.044C47.6422 156.866 47.1358 157.434 46.3128 157.434C45.4899 157.434 44.9202 156.929 44.9202 156.108C44.9202 155.286 45.4266 154.718 46.2495 154.718C47.0092 154.718 47.5789 155.286 47.6422 156.044Z" fill="#322D3E"/>
<path d="M37.8302 140.819C37.0073 140.819 36.4376 140.25 36.5009 139.429C36.5009 138.608 37.1339 138.102 37.9569 138.102C38.7165 138.102 39.2862 138.671 39.2862 139.492C39.1596 140.25 38.5899 140.819 37.8302 140.819Z" fill="#322D3E"/>
<path d="M19.7257 121.045C19.7257 121.866 19.156 122.434 18.333 122.371C17.5734 122.371 17.0037 121.803 17.0037 121.045C17.0037 120.223 17.5734 119.655 18.333 119.655C19.156 119.718 19.7257 120.286 19.7257 121.045Z" fill="#322D3E"/>
<path d="M53.0229 168.364C53.0229 169.185 52.3899 169.69 51.567 169.69C50.8073 169.69 50.2376 169.122 50.2376 168.301C50.2376 167.479 50.8073 166.911 51.6303 166.911C52.5165 166.974 53.0862 167.606 53.0229 168.364Z" fill="#322D3E"/>
<path d="M50.6174 160.467C50.6174 161.288 50.0477 161.857 49.2247 161.857C48.4651 161.857 47.8954 161.288 47.8954 160.53C47.8954 159.709 48.4018 159.14 49.2247 159.14C49.9844 159.077 50.6174 159.645 50.6174 160.467Z" fill="#322D3E"/>
<path d="M33.7155 127.236C33.7155 127.994 33.1458 128.563 32.3862 128.563C31.6266 128.563 31.0568 127.994 31.0568 127.236C31.0568 126.478 31.6265 125.846 32.4495 125.846C33.1458 125.846 33.7155 126.478 33.7155 127.236Z" fill="#322D3E"/>
<path d="M30.0441 126.73C30.0441 127.489 29.4743 128.057 28.7147 128.057C27.8918 128.057 27.322 127.425 27.3854 126.667C27.4487 125.909 28.0184 125.404 28.778 125.404C29.5376 125.341 30.0441 125.972 30.0441 126.73Z" fill="#322D3E"/>
<path d="M6.3688 111.126C6.3688 111.884 5.79907 112.453 5.03944 112.453C4.27981 112.453 3.71008 111.884 3.71008 111.126C3.71008 110.305 4.27981 109.736 5.10274 109.736C5.79907 109.736 6.3688 110.368 6.3688 111.126Z" fill="#322D3E"/>
<path d="M1.36788 109.231C1.17797 109.231 0.988065 109.231 0.798157 109.357V111.821C0.924762 111.884 1.11467 111.947 1.30458 111.947C2.06421 111.947 2.63394 111.379 2.69724 110.62C2.69724 109.862 2.12751 109.231 1.36788 109.231Z" fill="#322D3E"/>
<path d="M48.845 148.779C48.845 149.537 48.2753 150.106 47.5156 150.106C46.756 150.106 46.123 149.474 46.1863 148.716C46.2496 147.958 46.8193 147.452 47.5789 147.452C48.2752 147.452 48.845 148.021 48.845 148.779Z" fill="#322D3E"/>
<path d="M20.3587 117.38C20.3587 118.139 19.7889 118.707 19.0293 118.77C18.2697 118.77 17.6999 118.265 17.6366 117.507C17.5733 116.685 18.2064 116.117 18.966 116.117C19.7889 116.054 20.3587 116.622 20.3587 117.38Z" fill="#322D3E"/>
<path d="M15.4211 118.012C14.6614 118.012 14.0917 117.507 14.0284 116.749C13.9651 115.927 14.5981 115.359 15.3578 115.359C16.1174 115.359 16.6871 115.927 16.6871 116.685C16.6871 117.444 16.1807 118.012 15.4211 118.012Z" fill="#322D3E"/>
<path d="M46.8193 153.77C46.0596 153.77 45.4899 153.265 45.4266 152.506C45.3633 151.748 45.933 151.117 46.756 151.117C47.5156 151.117 48.0853 151.622 48.1486 152.38C48.1486 153.138 47.5789 153.77 46.8193 153.77Z" fill="#322D3E"/>
<path d="M13.0156 115.991C13.0156 116.749 12.4459 117.38 11.6229 117.38C10.8633 117.38 10.2936 116.812 10.2936 116.054C10.2936 115.296 10.8633 114.664 11.6862 114.664C12.4459 114.664 13.0156 115.232 13.0156 115.991Z" fill="#322D3E"/>
<path d="M51.8202 153.138C51.8202 153.896 51.2505 154.465 50.4908 154.465C49.7312 154.465 49.0982 153.833 49.1615 153.075C49.2248 152.317 49.7945 151.748 50.5541 151.812C51.2505 151.812 51.8202 152.38 51.8202 153.138Z" fill="#322D3E"/>
<path d="M55.9349 173.165C55.9982 173.039 55.9982 172.912 55.9982 172.786C55.9982 172.028 55.4918 171.459 54.7321 171.396C53.9725 171.333 53.3395 171.902 53.3395 172.66C53.3395 172.849 53.3395 173.039 53.4028 173.165H55.9349Z" fill="#322D3E"/>
<path d="M38.5266 134.628C39.2863 134.628 39.856 135.196 39.856 135.954C39.856 136.712 39.2863 137.281 38.5266 137.281C37.7037 137.281 37.134 136.712 37.134 135.891C37.1973 135.133 37.767 134.628 38.5266 134.628Z" fill="#322D3E"/>
<path d="M55.2385 170.385C54.4789 170.385 53.9091 169.88 53.8458 169.122C53.8458 168.301 54.4155 167.732 55.1752 167.732C55.9348 167.732 56.5045 168.301 56.5045 169.059C56.5678 169.817 55.9981 170.385 55.2385 170.385Z" fill="#322D3E"/>
<path d="M42.8312 140.187C42.8312 140.945 42.2615 141.514 41.5018 141.514C40.6789 141.514 40.1092 140.882 40.1725 140.124C40.2358 139.366 40.8055 138.797 41.5651 138.86C42.3248 138.86 42.8312 139.429 42.8312 140.187Z" fill="#322D3E"/>
<path d="M23.3972 121.55C23.3972 122.308 22.8275 122.877 22.0679 122.94C21.3082 122.94 20.7385 122.435 20.6752 121.676C20.6119 120.855 21.2449 120.287 22.0046 120.287C22.7642 120.223 23.3339 120.792 23.3972 121.55Z" fill="#322D3E"/>
<path d="M51.2505 156.802C51.2505 157.561 50.6807 158.129 49.9211 158.129C49.1615 158.129 48.5917 157.561 48.5917 156.802C48.5917 155.981 49.1615 155.413 49.9844 155.413C50.744 155.476 51.2505 156.044 51.2505 156.802Z" fill="#322D3E"/>
<path d="M36.6908 131.595C36.6908 132.353 36.1211 132.922 35.3615 132.922C34.5385 132.922 33.9688 132.353 33.9688 131.532C33.9688 130.774 34.6018 130.205 35.3615 130.268C36.1211 130.268 36.6908 130.837 36.6908 131.595Z" fill="#322D3E"/>
<path d="M25.7394 120.981C26.499 120.981 27.0688 121.55 27.0688 122.308C27.0688 123.066 26.4357 123.698 25.6761 123.635C24.9165 123.572 24.41 123.003 24.41 122.245C24.41 121.487 24.9798 120.918 25.7394 120.981Z" fill="#322D3E"/>
<path d="M33.0193 130.9C33.0193 131.658 32.4495 132.227 31.6899 132.227C30.9303 132.227 30.2972 131.658 30.2972 130.9C30.2972 130.142 30.9303 129.51 31.6899 129.573C32.4495 129.573 33.0193 130.142 33.0193 130.9Z" fill="#322D3E"/>
<path d="M53.5294 164.636C53.5294 165.394 52.9596 165.963 52.2 166.026C51.4404 166.026 50.8707 165.521 50.8073 164.763C50.744 163.941 51.3771 163.373 52.1367 163.373C52.9596 163.31 53.5294 163.878 53.5294 164.636Z" fill="#322D3E"/>
<path d="M45.8064 144.546C45.8064 145.304 45.2367 145.873 44.477 145.873C43.6541 145.873 43.0844 145.241 43.1477 144.483C43.1477 143.725 43.7807 143.156 44.5403 143.22C45.3 143.22 45.8064 143.788 45.8064 144.546Z" fill="#322D3E"/>
<path d="M8.71101 113.148C7.95138 113.148 7.38165 112.579 7.38165 111.821C7.38165 111.063 8.01468 110.431 8.77431 110.494C9.53395 110.494 10.1037 111.126 10.0404 111.884C10.0404 112.579 9.40734 113.148 8.71101 113.148Z" fill="#322D3E"/>
<path d="M52.833 162.362C52.0734 162.299 51.5036 161.73 51.5669 160.972C51.5669 160.214 52.2 159.645 53.0229 159.709C53.7825 159.772 54.289 160.404 54.2257 161.162C54.2257 161.857 53.5926 162.362 52.833 162.362Z" fill="#322D3E"/>
<path d="M12.3826 113.842C11.6862 113.842 11.0532 113.211 11.0532 112.516C11.0532 111.821 11.7496 111.189 12.4459 111.189C13.1422 111.189 13.7119 111.821 13.7119 112.516C13.7119 113.148 13.0789 113.779 12.3826 113.842Z" fill="#322D3E"/>
<path d="M46.5027 140.882C46.5027 141.577 45.933 142.146 45.2366 142.209C44.5403 142.209 43.9073 141.64 43.9073 140.882C43.9073 140.187 44.5403 139.555 45.2366 139.555C45.933 139.555 46.5027 140.187 46.5027 140.882Z" fill="#322D3E"/>
<path d="M22.7009 119.402C22.0046 119.402 21.3716 118.707 21.4349 118.012C21.4982 117.317 22.1312 116.749 22.7642 116.812C23.4605 116.812 24.0936 117.507 24.0303 118.202C23.967 118.833 23.3339 119.402 22.7009 119.402Z" fill="#322D3E"/>
<path d="M43.3376 136.46C43.3376 137.155 42.7046 137.786 42.0083 137.786C41.3119 137.786 40.7422 137.218 40.6789 136.523C40.6789 135.828 41.3119 135.196 42.0083 135.196C42.7046 135.196 43.3376 135.765 43.3376 136.46Z" fill="#322D3E"/>
<path d="M55.9349 164.068C56.6312 164.068 57.2642 164.7 57.2642 165.394C57.2642 166.089 56.6312 166.658 55.9349 166.658C55.2386 166.658 54.6055 166.026 54.6055 165.331C54.6055 164.636 55.2386 164.068 55.9349 164.068Z" fill="#322D3E"/>
<path d="M29.411 121.676C30.1073 121.676 30.7404 122.371 30.6771 123.066C30.6138 123.761 30.044 124.33 29.3477 124.33C28.6514 124.33 28.0183 123.635 28.0816 122.94C28.145 122.245 28.7147 121.676 29.411 121.676Z" fill="#322D3E"/>
<path d="M2.06421 105.566C1.49449 105.566 0.988065 105.945 0.798157 106.451V107.335C0.988065 107.841 1.43118 108.157 2.00091 108.22C2.69724 108.22 3.26696 107.651 3.33027 107.019C3.39357 106.261 2.76054 105.566 2.06421 105.566Z" fill="#322D3E"/>
<path d="M54.922 157.371C54.922 158.066 54.2256 158.698 53.5293 158.635C52.833 158.571 52.2632 158.003 52.2632 157.308C52.2632 156.613 52.9596 155.981 53.6559 156.044C54.3522 156.044 54.922 156.676 54.922 157.371Z" fill="#322D3E"/>
<path d="M58.8467 168.427C59.4798 168.427 60.1761 169.059 60.1761 169.69C60.2394 170.385 59.5431 171.08 58.8467 171.08C58.2137 171.08 57.5807 170.449 57.5174 169.817C57.5807 169.122 58.2137 168.49 58.8467 168.427Z" fill="#322D3E"/>
<path d="M26.4358 119.907C25.8028 119.907 25.1697 119.276 25.1697 118.644C25.1697 117.949 25.8661 117.317 26.4991 117.317C27.1321 117.317 27.7652 118.012 27.7652 118.644C27.7019 119.276 27.0688 119.907 26.4358 119.907Z" fill="#322D3E"/>
<path d="M16.0541 114.285C15.4211 114.285 14.788 113.653 14.788 113.021C14.788 112.326 15.4844 111.695 16.1174 111.695C16.7504 111.695 17.3834 112.389 17.3834 113.021C17.3201 113.653 16.6871 114.348 16.0541 114.285Z" fill="#322D3E"/>
<path d="M37.3871 127.931C37.3871 128.563 36.6908 129.194 36.0578 129.194C35.3615 129.194 34.7284 128.499 34.7917 127.805C34.855 127.173 35.5514 126.541 36.1211 126.604C36.7541 126.604 37.3871 127.299 37.3871 127.931Z" fill="#322D3E"/>
<path d="M40.3624 132.29C40.3624 132.922 39.7293 133.554 39.0963 133.554C38.4 133.554 37.767 132.859 37.767 132.227C37.767 131.595 38.4633 130.963 39.0963 130.963C39.7293 130.963 40.3624 131.658 40.3624 132.29Z" fill="#322D3E"/>
<path d="M49.478 145.052C49.478 145.683 48.7817 146.315 48.1486 146.315C47.4523 146.315 46.8193 145.62 46.8193 144.925C46.8826 144.294 47.5156 143.662 48.1486 143.662C48.845 143.788 49.478 144.42 49.478 145.052Z" fill="#322D3E"/>
<path d="M5.73572 106.072C6.36875 106.072 7.00177 106.767 7.00177 107.398C7.00177 108.093 6.30544 108.725 5.60911 108.662C4.97609 108.599 4.34306 107.904 4.40636 107.272C4.46966 106.704 5.10269 106.072 5.73572 106.072Z" fill="#322D3E"/>
<path d="M51.2504 148.147C51.8835 148.21 52.5165 148.842 52.5165 149.474C52.5165 150.169 51.7569 150.801 51.1238 150.738C50.4908 150.674 49.8578 149.979 49.9211 149.348C49.9211 148.716 50.6174 148.084 51.2504 148.147Z" fill="#322D3E"/>
<path d="M57.8972 161.73C57.8339 162.362 57.2009 162.994 56.5679 162.994C55.8715 162.994 55.2385 162.236 55.3018 161.604C55.3651 160.972 56.0614 160.34 56.6945 160.404C57.3275 160.467 57.9605 161.162 57.8972 161.73Z" fill="#322D3E"/>
<path d="M10.6733 108.093C10.6733 108.725 10.0403 109.42 9.40728 109.42C8.71095 109.42 8.01462 108.788 8.07793 108.093C8.07793 107.462 8.71095 106.83 9.40728 106.83C10.0403 106.767 10.6733 107.462 10.6733 108.093Z" fill="#322D3E"/>
<path d="M34.3486 123.698C34.3486 124.393 33.7789 124.962 33.0826 124.962C32.3863 124.962 31.8165 124.33 31.8165 123.698C31.8165 123.066 32.3863 122.498 33.0193 122.435C33.7156 122.435 34.3486 123.003 34.3486 123.698Z" fill="#322D3E"/>
<path d="M43.9706 132.795C43.9706 133.49 43.3376 134.059 42.7046 134.059C42.0083 134.059 41.4385 133.427 41.4385 132.732C41.4385 132.101 42.0083 131.532 42.7046 131.532C43.4009 131.532 43.9706 132.101 43.9706 132.795Z" fill="#322D3E"/>
<path d="M14.345 108.852C14.345 109.547 13.7119 110.115 13.0156 110.115C12.3193 110.115 11.7496 109.42 11.8129 108.788C11.8762 108.157 12.4459 107.588 13.0789 107.588C13.7752 107.525 14.345 108.157 14.345 108.852Z" fill="#322D3E"/>
<path d="M54.1624 155.097C53.466 155.097 52.8963 154.528 52.833 153.833C52.833 153.201 53.4027 152.633 54.0358 152.57C54.7321 152.507 55.3651 153.075 55.3651 153.77C55.4284 154.465 54.8587 155.034 54.1624 155.097Z" fill="#322D3E"/>
<path d="M60.8725 166.089C60.8725 166.784 60.2395 167.353 59.5431 167.29C58.9101 167.227 58.3404 166.658 58.3404 166.026C58.3404 165.331 58.9734 164.763 59.6064 164.763C60.3028 164.826 60.8725 165.458 60.8725 166.089Z" fill="#322D3E"/>
<path d="M23.4605 113.148C24.1568 113.148 24.7266 113.779 24.7266 114.474C24.7266 115.169 24.0935 115.738 23.3972 115.675C22.7642 115.611 22.1945 115.043 22.1945 114.411C22.1945 113.716 22.7642 113.148 23.4605 113.148Z" fill="#322D3E"/>
<path d="M19.7257 114.98C19.0293 114.98 18.4596 114.348 18.4596 113.716C18.4596 113.021 19.0926 112.453 19.789 112.453C20.422 112.453 20.9917 113.084 20.9917 113.716C20.9917 114.348 20.422 114.98 19.7257 114.98Z" fill="#322D3E"/>
<path d="M45.7431 138.418C45.0468 138.418 44.4771 137.85 44.4771 137.155C44.4771 136.46 45.1101 135.891 45.8064 135.891C46.4394 135.891 47.0092 136.46 47.0092 137.155C47.0092 137.85 46.3761 138.418 45.7431 138.418Z" fill="#322D3E"/>
<path d="M57.0743 156.739C57.7706 156.739 58.3403 157.308 58.3403 158.003C58.3403 158.635 57.7706 159.203 57.1376 159.266C56.4413 159.33 55.8082 158.761 55.8082 158.066C55.8082 157.371 56.4413 156.802 57.0743 156.739Z" fill="#322D3E"/>
<path d="M50.111 141.577C50.111 142.272 49.478 142.84 48.7817 142.777C48.0853 142.777 47.5156 142.146 47.5789 141.451C47.6422 140.819 48.2119 140.25 48.845 140.25C49.5413 140.313 50.1743 140.882 50.111 141.577Z" fill="#322D3E"/>
<path d="M31.3101 119.276C31.3101 120.034 30.867 120.476 30.1074 120.476C29.3477 120.476 28.9046 119.971 28.9046 119.276C28.9046 118.518 29.3477 118.139 30.0441 118.139C30.8037 118.075 31.3101 118.581 31.3101 119.276Z" fill="#322D3E"/>
<path d="M39.7927 129.763C39.033 129.763 38.5899 129.321 38.5899 128.563C38.5899 127.804 39.033 127.362 39.7927 127.362C40.5523 127.362 40.9321 127.741 40.9954 128.499C40.9954 129.258 40.489 129.763 39.7927 129.763Z" fill="#322D3E"/>
<path d="M3.89995 103.229C3.89995 103.987 3.39353 104.429 2.6339 104.366C1.87426 104.303 1.49445 103.924 1.49445 103.166C1.49445 102.408 1.93756 101.965 2.6972 101.965C3.45683 102.029 3.89995 102.471 3.89995 103.229Z" fill="#322D3E"/>
<path d="M51.8835 144.546C52.6431 144.546 53.0863 144.988 53.0863 145.747C53.0863 146.505 52.5798 146.947 51.8835 146.947C51.1239 146.947 50.7441 146.505 50.7441 145.81C50.6175 145.052 51.1239 144.546 51.8835 144.546Z" fill="#322D3E"/>
<path d="M35.6147 124.14C35.678 123.445 36.1211 123.003 36.8175 123.066C37.5138 123.066 38.0202 123.635 37.9569 124.33C37.8936 125.025 37.3872 125.404 36.6908 125.404C35.9945 125.341 35.5514 124.835 35.6147 124.14Z" fill="#322D3E"/>
<path d="M46.4394 134.691C45.7431 134.691 45.3 134.248 45.3 133.554C45.3 132.859 45.8064 132.353 46.5027 132.353C47.1991 132.353 47.6422 132.859 47.6422 133.554C47.5789 134.185 47.0725 134.691 46.4394 134.691Z" fill="#322D3E"/>
<path d="M7.38163 103.734C7.38163 104.429 6.93851 104.871 6.24218 104.935C5.54585 104.935 5.03943 104.492 5.03943 103.797C5.03943 103.103 5.48255 102.597 6.24218 102.597C6.93851 102.534 7.38163 103.039 7.38163 103.734Z" fill="#322D3E"/>
<path d="M9.977 103.229C10.6733 103.229 11.1164 103.734 11.1164 104.429C11.1164 105.124 10.61 105.63 9.85039 105.566C9.15406 105.503 8.71094 104.998 8.77425 104.366C8.77425 103.671 9.28067 103.229 9.977 103.229Z" fill="#322D3E"/>
<path d="M55.9982 150.169C55.9982 150.864 55.4918 151.306 54.8588 151.306C54.1624 151.306 53.7193 150.864 53.656 150.169C53.656 149.474 54.1624 148.969 54.8588 148.969C55.5551 148.969 55.9982 149.474 55.9982 150.169Z" fill="#322D3E"/>
<path d="M50.5541 137.913C50.5541 138.608 50.0477 139.05 49.4147 139.05C48.7183 139.05 48.2752 138.608 48.2119 137.913C48.2119 137.218 48.7183 136.712 49.4147 136.712C50.111 136.712 50.5541 137.218 50.5541 137.913Z" fill="#322D3E"/>
<path d="M17.7633 109.294C17.7633 109.989 17.3202 110.494 16.6238 110.494C15.9275 110.494 15.4211 110.052 15.4211 109.294C15.4211 108.599 15.9275 108.157 16.5605 108.157C17.2569 108.157 17.7633 108.599 17.7633 109.294Z" fill="#322D3E"/>
<path d="M21.4348 110.052C21.4348 110.747 20.9284 111.189 20.2321 111.189C19.5357 111.189 19.0293 110.684 19.0926 109.926C19.1559 109.231 19.6623 108.788 20.2954 108.852C20.9917 108.915 21.4348 109.357 21.4348 110.052Z" fill="#322D3E"/>
<path d="M58.9734 154.402C58.9734 155.097 58.467 155.539 57.7706 155.539C57.0743 155.539 56.5679 155.034 56.6312 154.275C56.6945 153.58 57.2009 153.138 57.8339 153.201C58.5303 153.201 59.0367 153.707 58.9734 154.402Z" fill="#322D3E"/>
<path d="M28.0816 114.98C28.0816 115.675 27.5752 116.117 26.8789 116.117C26.1825 116.117 25.6761 115.611 25.7394 114.853C25.8027 114.158 26.3091 113.716 26.9422 113.779C27.7018 113.779 28.1449 114.285 28.0816 114.98Z" fill="#322D3E"/>
<path d="M63.7211 170.322C63.7211 171.017 63.2147 171.459 62.5183 171.459C61.822 171.459 61.3156 170.954 61.3789 170.196C61.4422 169.501 61.9486 169.059 62.5816 169.122C63.278 169.122 63.7844 169.627 63.7211 170.322Z" fill="#322D3E"/>
<path d="M53.5294 142.082C53.5294 142.777 53.0862 143.22 52.3899 143.22C51.6936 143.22 51.1871 142.714 51.1871 142.019C51.1871 141.324 51.6936 140.882 52.3899 140.882C53.0862 140.945 53.5294 141.387 53.5294 142.082Z" fill="#322D3E"/>
<path d="M60.3027 163.562C59.6064 163.562 59.1633 163.12 59.1 162.425C59.1 161.73 59.5431 161.225 60.1761 161.225C60.8725 161.162 61.4422 161.667 61.4422 162.362C61.4422 163.057 60.9991 163.562 60.3027 163.562Z" fill="#322D3E"/>
<path d="M34.9816 119.971C34.9816 120.666 34.5385 121.108 33.8422 121.171C33.1458 121.171 32.6394 120.666 32.6394 119.971C32.6394 119.276 33.1458 118.833 33.8422 118.833C34.4752 118.833 34.9183 119.339 34.9816 119.971Z" fill="#322D3E"/>
<path d="M44.6036 129.131C44.6036 129.763 44.0339 130.268 43.4009 130.268C42.7679 130.205 42.2614 129.637 42.3248 129.005C42.3881 128.373 42.8312 127.931 43.4642 127.931C44.0972 127.931 44.6036 128.563 44.6036 129.131Z" fill="#322D3E"/>
<path d="M13.5853 106.261C12.9523 106.261 12.4459 105.63 12.4459 105.061C12.5092 104.429 13.0789 103.924 13.7119 103.987C14.3449 104.05 14.7881 104.492 14.7881 105.124C14.7881 105.756 14.155 106.324 13.5853 106.261Z" fill="#322D3E"/>
<path d="M63.2146 165.458C63.8477 165.458 64.4174 165.963 64.4174 166.595C64.4174 167.227 63.8477 167.795 63.2779 167.732C62.5816 167.669 62.2018 167.29 62.1385 166.658C62.0752 166.026 62.6449 165.458 63.2146 165.458Z" fill="#322D3E"/>
<path d="M61.9486 158.761C61.9486 159.393 61.3789 159.961 60.7459 159.898C60.0496 159.835 59.6697 159.456 59.6064 158.761C59.5431 158.129 60.1129 157.561 60.7459 157.561C61.4422 157.561 61.9486 158.129 61.9486 158.761Z" fill="#322D3E"/>
<path d="M41.6285 124.898C41.6285 125.53 41.122 126.099 40.489 126.099C39.7927 126.099 39.4129 125.656 39.3496 125.025C39.2863 124.393 39.856 123.824 40.4257 123.824C40.9954 123.761 41.5652 124.267 41.6285 124.898Z" fill="#322D3E"/>
<path d="M25.1064 110.747C25.1064 111.379 24.5367 111.884 23.9036 111.884C23.2706 111.821 22.7642 111.252 22.8275 110.621C22.8908 109.989 23.3339 109.547 23.9669 109.547C24.6 109.547 25.1064 110.115 25.1064 110.747Z" fill="#322D3E"/>
<path d="M30.6138 116.812C29.9807 116.812 29.4743 116.243 29.4743 115.611C29.5376 114.98 30.1073 114.474 30.7404 114.537C31.3734 114.601 31.8165 115.043 31.8165 115.675C31.8165 116.243 31.1835 116.812 30.6138 116.812Z" fill="#322D3E"/>
<path d="M55.4917 147.642C54.8587 147.642 54.3523 147.073 54.3523 146.442C54.4156 145.81 54.9853 145.241 55.6184 145.368C56.2514 145.431 56.6945 145.873 56.6945 146.505C56.6945 147.073 56.1248 147.642 55.4917 147.642Z" fill="#322D3E"/>
<path d="M59.6697 150.738C59.5431 151.369 59.1633 151.812 58.467 151.812C57.8339 151.812 57.2642 151.18 57.3908 150.611C57.5174 149.979 57.8972 149.537 58.5936 149.6C59.2899 149.6 59.6064 150.043 59.6697 150.738Z" fill="#322D3E"/>
<path d="M20.9917 105.187C21.6248 105.314 22.0679 105.63 22.0679 106.325C22.0679 107.019 21.6248 107.399 20.9917 107.462C20.3587 107.525 19.789 106.893 19.8523 106.325C19.9156 105.63 20.2954 105.314 20.9917 105.187Z" fill="#322D3E"/>
<path d="M3.33026 98.3643C3.89999 98.4274 4.34311 98.8065 4.34311 99.5014C4.40641 100.133 3.77338 100.702 3.14036 100.639C2.44403 100.575 2.06421 100.196 2.06421 99.5014C2.12751 98.9328 2.63393 98.3643 3.33026 98.3643Z" fill="#322D3E"/>
<path d="M51.2505 134.312C51.1872 134.88 50.8073 135.323 50.111 135.323C49.4147 135.323 49.0349 134.943 48.9716 134.249C48.9083 133.617 49.478 133.048 50.111 133.111C50.744 133.111 51.2505 133.617 51.2505 134.312Z" fill="#322D3E"/>
<path d="M8.07797 100.196C8.01467 100.828 7.63485 101.27 6.93852 101.334C6.30549 101.397 5.73577 100.765 5.79907 100.196C5.86237 99.5014 6.24219 99.1224 6.93852 99.1224C7.63485 99.1224 7.95137 99.5646 8.07797 100.196Z" fill="#322D3E"/>
<path d="M28.778 111.315C28.6514 111.947 28.2716 112.389 27.6385 112.389C27.0055 112.389 26.4358 111.821 26.5624 111.189C26.6257 110.557 27.0688 110.115 27.7651 110.178C28.3982 110.178 28.7147 110.621 28.778 111.315Z" fill="#322D3E"/>
<path d="M10.6101 99.6278C11.2431 99.691 11.6862 100.07 11.7495 100.702C11.8129 101.334 11.2431 101.902 10.6101 101.839C9.91377 101.776 9.53395 101.397 9.53395 100.702C9.47065 100.07 9.91377 99.691 10.6101 99.6278Z" fill="#322D3E"/>
<path d="M45.3 125.656C45.1734 126.288 44.8569 126.73 44.1606 126.73C43.5275 126.73 42.9578 126.162 43.0211 125.53C43.0844 124.898 43.5275 124.456 44.2239 124.519C44.8569 124.519 45.2367 124.962 45.3 125.656Z" fill="#322D3E"/>
<path d="M53.0862 137.281C53.7192 137.344 54.1624 137.723 54.2257 138.418C54.2257 139.113 53.8458 139.492 53.1495 139.555C52.5165 139.619 51.9468 139.05 52.0101 138.418C52.0101 137.723 52.4532 137.344 53.0862 137.281Z" fill="#322D3E"/>
<path d="M35.4247 116.433C35.2981 117.001 34.9816 117.444 34.2853 117.444C33.6522 117.444 33.0825 116.875 33.1458 116.243C33.2091 115.611 33.6522 115.169 34.3486 115.169C34.9183 115.232 35.488 115.801 35.4247 116.433Z" fill="#322D3E"/>
<path d="M57.2009 142.904C57.1376 143.472 56.7578 143.914 56.0614 143.914C55.4284 143.978 54.8587 143.346 54.922 142.714C54.9853 142.019 55.4284 141.64 56.0614 141.64C56.6945 141.64 57.2009 142.209 57.2009 142.904Z" fill="#322D3E"/>
<path d="M65.1138 162.994C65.0505 163.562 64.6707 164.005 64.0376 164.068C63.4046 164.131 62.8349 163.562 62.8982 162.931C62.9615 162.236 63.3413 161.857 64.0376 161.857C64.5441 161.793 65.1138 162.299 65.1138 162.994Z" fill="#322D3E"/>
<path d="M66.2532 172.091C65.6202 172.028 65.1771 171.649 65.1138 171.017C65.0505 170.385 65.6202 169.817 66.2532 169.88C66.9496 169.943 67.3294 170.322 67.3294 171.017C67.3927 171.649 66.9496 172.028 66.2532 172.091Z" fill="#322D3E"/>
<path d="M47.1991 128.689C47.8321 128.815 48.2752 129.194 48.2752 129.889C48.2752 130.521 47.6422 131.09 47.0724 130.963C46.4394 130.837 45.9963 130.458 46.0596 129.763C46.0596 129.068 46.5027 128.752 47.1991 128.689Z" fill="#322D3E"/>
<path d="M61.5688 153.896C62.2018 154.023 62.6449 154.339 62.6449 155.034C62.6449 155.665 62.0752 156.234 61.4422 156.171C60.8092 156.108 60.3661 155.665 60.4294 154.97C60.4294 154.339 60.8725 153.96 61.5688 153.896Z" fill="#322D3E"/>
<path d="M37.2605 119.402C37.9569 119.465 38.3367 119.844 38.4 120.476C38.4633 121.108 37.8936 121.676 37.2605 121.676C36.5642 121.613 36.1844 121.234 36.1844 120.539C36.1844 119.844 36.6275 119.528 37.2605 119.402Z" fill="#322D3E"/>
<path d="M41.0587 120.097C41.6284 120.16 42.0716 120.539 42.0716 121.171C42.0716 121.866 41.6917 122.245 40.9954 122.308C40.3624 122.371 39.7927 121.803 39.856 121.171C39.856 120.666 40.4257 120.097 41.0587 120.097Z" fill="#322D3E"/>
<path d="M18.3963 105.945C18.333 106.514 17.9532 106.956 17.2569 106.956C16.6239 107.019 16.0541 106.388 16.1174 105.756C16.1807 105.061 16.6239 104.682 17.2569 104.682C17.8899 104.682 18.3963 105.251 18.3963 105.945Z" fill="#322D3E"/>
<path d="M60.3027 146.947C60.3027 147.579 59.8596 148.084 59.2266 148.084C58.5936 148.084 58.0871 147.579 58.1504 147.01C58.2137 146.378 58.5303 145.999 59.1633 145.936C59.7963 145.873 60.3027 146.315 60.3027 146.947Z" fill="#322D3E"/>
<path d="M65.5568 159.456C65.5568 160.088 65.0504 160.53 64.4174 160.53C63.7844 160.53 63.3412 160.024 63.3412 159.393C63.4046 158.761 63.7844 158.382 64.4174 158.382C65.1137 158.319 65.6201 158.824 65.5568 159.456Z" fill="#322D3E"/>
<path d="M66.8862 168.364C66.2532 168.301 65.8101 167.795 65.8734 167.227C65.9367 166.595 66.4431 166.153 67.0761 166.216C67.7092 166.279 68.0257 166.721 68.0257 167.353C68.0257 167.985 67.5193 168.427 66.8862 168.364Z" fill="#322D3E"/>
<path d="M14.2817 100.386C14.9147 100.386 15.3578 100.891 15.3578 101.523C15.3578 102.155 14.8514 102.597 14.2184 102.597C13.5853 102.534 13.2055 102.155 13.2055 101.523C13.2055 100.828 13.7119 100.386 14.2817 100.386Z" fill="#322D3E"/>
<path d="M25.7394 107.019C25.7394 107.651 25.233 108.093 24.6633 108.093C24.0303 108.093 23.5238 107.588 23.5871 106.956C23.6504 106.325 24.0303 105.946 24.6633 105.882C25.233 105.946 25.7394 106.451 25.7394 107.019Z" fill="#322D3E"/>
<path d="M32.3862 111.947C32.3862 112.579 31.8798 113.084 31.2468 113.021C30.6137 112.958 30.2339 112.579 30.2339 111.947C30.1706 111.315 30.6771 110.81 31.3101 110.81C31.9431 110.873 32.4495 111.379 32.3862 111.947Z" fill="#322D3E"/>
<path d="M38.0202 115.801C38.6532 115.927 39.033 116.243 39.0963 116.875C39.1596 117.444 38.5266 118.012 37.9569 117.949C37.3238 117.886 36.944 117.507 36.944 116.875C36.944 116.18 37.3871 115.864 38.0202 115.801Z" fill="#322D3E"/>
<path d="M61.9486 150.232C62.8348 150.422 63.2146 150.738 63.2779 151.369C63.2779 151.938 62.7082 152.506 62.1385 152.443C61.5055 152.317 61.0623 151.938 61.189 151.306C61.2523 150.864 61.7587 150.548 61.9486 150.232Z" fill="#322D3E"/>
<path d="M47.7055 127.11C47.0725 127.11 46.6927 126.794 46.6927 126.162C46.6927 125.53 47.0092 125.151 47.5789 125.151C48.2119 125.088 48.6551 125.467 48.6551 126.099C48.6551 126.73 48.2752 127.11 47.7055 127.11Z" fill="#322D3E"/>
<path d="M54.7954 134.691C54.7954 135.323 54.4789 135.702 53.8459 135.702C53.2128 135.702 52.833 135.386 52.833 134.817C52.7697 134.185 53.1495 133.743 53.7826 133.743C54.4156 133.743 54.7321 134.059 54.7954 134.691Z" fill="#322D3E"/>
<path d="M51.8202 130.521C51.7569 131.153 51.4404 131.469 50.8073 131.469C50.111 131.469 49.7945 131.09 49.7945 130.395C49.7945 129.763 50.2376 129.447 50.8073 129.447C51.5037 129.573 51.7569 129.953 51.8202 130.521Z" fill="#322D3E"/>
<path d="M57.7706 139.113C57.7073 139.745 57.3908 140.124 56.8211 140.124C56.1247 140.124 55.8082 139.745 55.8082 139.113C55.8082 138.481 56.188 138.165 56.8211 138.165C57.4541 138.102 57.7073 138.481 57.7706 139.113Z" fill="#322D3E"/>
<path d="M18.0165 101.144C18.6495 101.207 19.0294 101.523 19.0294 102.155C19.0294 102.85 18.6495 103.166 17.9532 103.103C17.3202 103.039 17.0037 102.66 17.067 102.029C17.0037 101.46 17.4468 101.207 18.0165 101.144Z" fill="#322D3E"/>
<path d="M33.0192 108.283C32.9559 108.915 32.6394 109.294 32.0064 109.231C31.3733 109.231 31.0568 108.852 31.0568 108.22C31.0568 107.651 31.4366 107.335 32.0064 107.272C32.6394 107.272 32.9559 107.651 33.0192 108.283Z" fill="#322D3E"/>
<path d="M65.1771 154.718C65.8101 154.781 66.1899 155.097 66.1899 155.728C66.1899 156.36 65.8101 156.676 65.1771 156.676C64.6074 156.676 64.2275 156.297 64.2275 155.728C64.2275 155.097 64.6074 154.844 65.1771 154.718Z" fill="#322D3E"/>
<path d="M35.9945 112.642C35.9312 113.274 35.6146 113.653 34.9816 113.653C34.4119 113.653 34.0321 113.337 33.9688 112.769C33.9055 112.137 34.2853 111.758 34.9183 111.695C35.6146 111.631 35.9312 112.01 35.9945 112.642Z" fill="#322D3E"/>
<path d="M21.6881 101.713C22.3211 101.776 22.7009 102.092 22.6376 102.723C22.6376 103.355 22.2578 103.671 21.6248 103.671C21.0551 103.671 20.6752 103.292 20.6752 102.723C20.6752 102.029 21.055 101.713 21.6881 101.713Z" fill="#322D3E"/>
<path d="M44.667 120.918C45.3 120.981 45.6798 121.297 45.6165 121.929C45.6165 122.561 45.2367 122.877 44.6037 122.877C44.0339 122.877 43.6541 122.498 43.6541 121.929C43.6541 121.297 44.0339 120.981 44.667 120.918Z" fill="#322D3E"/>
<path d="M54.4789 130.205C55.1119 130.268 55.4918 130.521 55.4918 131.153C55.4918 131.785 55.1119 132.164 54.5422 132.164C53.9725 132.164 53.5927 131.848 53.5927 131.279C53.4661 130.647 53.8459 130.332 54.4789 130.205Z" fill="#322D3E"/>
<path d="M29.3477 107.714C29.2844 108.346 28.9679 108.725 28.3349 108.725C27.7651 108.725 27.3853 108.346 27.3853 107.778C27.3853 107.146 27.7018 106.767 28.3349 106.767C28.9679 106.767 29.2844 107.146 29.3477 107.714Z" fill="#322D3E"/>
<path d="M69.1651 159.961C69.1018 160.593 68.7853 160.972 68.1523 160.909C67.5193 160.909 67.2028 160.53 67.2028 159.898C67.2028 159.329 67.5826 158.95 68.1523 158.95C68.7853 158.95 69.1018 159.329 69.1651 159.961Z" fill="#322D3E"/>
<path d="M11.3064 96.09C11.9394 96.1531 12.3193 96.469 12.256 97.1008C12.256 97.7325 11.8761 98.0484 11.2431 98.0484C10.6734 98.0484 10.3569 97.6694 10.3569 97.1008C10.3569 96.469 10.7367 96.1531 11.3064 96.09Z" fill="#322D3E"/>
<path d="M7.63486 95.5214C8.26789 95.5845 8.6477 95.9004 8.6477 96.5322C8.6477 97.1639 8.26789 97.543 7.63486 97.543C7.06514 97.543 6.68532 97.2271 6.68532 96.5954C6.62202 95.9636 7.00183 95.6477 7.63486 95.5214Z" fill="#322D3E"/>
<path d="M3.77335 96.9744C3.52014 96.5954 3.07702 96.2795 3.01372 95.8372C2.88711 95.2686 3.33023 94.8896 3.96326 94.8264C4.59629 94.8264 5.03941 95.2055 4.9128 95.7741C4.8495 96.2163 4.46968 96.5322 4.21647 96.9112C4.02656 96.9744 3.89996 96.9744 3.77335 96.9744Z" fill="#322D3E"/>
<path d="M68.4688 163.626C68.4055 164.257 68.0257 164.573 67.3927 164.573C66.8229 164.573 66.4431 164.194 66.4431 163.626C66.4431 162.994 66.8229 162.615 67.456 162.615C68.089 162.678 68.4055 163.057 68.4688 163.626Z" fill="#322D3E"/>
<path d="M41.6284 118.581C40.9954 118.518 40.6789 118.139 40.6789 117.57C40.6789 117.001 41.0587 116.622 41.6284 116.622C42.2615 116.622 42.6413 117.001 42.6413 117.633C42.6413 118.202 42.2615 118.518 41.6284 118.581Z" fill="#322D3E"/>
<path d="M63.7211 147.705C63.6578 148.337 63.278 148.716 62.645 148.653C62.0753 148.653 61.6954 148.274 61.6954 147.705C61.6954 147.073 62.0753 146.694 62.7083 146.694C63.4046 146.694 63.6578 147.136 63.7211 147.705Z" fill="#322D3E"/>
<path d="M59.733 142.461C60.366 142.525 60.7459 142.84 60.7459 143.472C60.7459 144.104 60.366 144.483 59.733 144.483C59.1633 144.483 58.7835 144.167 58.7835 143.535C58.7202 142.904 59.1 142.588 59.733 142.461Z" fill="#322D3E"/>
<path d="M69.8615 170.701C70.4945 170.764 70.8743 171.08 70.9377 171.712C70.9377 172.281 70.6211 172.66 70.0514 172.723C69.4184 172.786 69.0386 172.407 68.9753 171.775C68.912 171.08 69.2918 170.764 69.8615 170.701Z" fill="#322D3E"/>
<path d="M70.3679 169.059C70.1147 168.68 69.7348 168.364 69.6715 167.922C69.6082 167.29 70.0514 166.974 70.6844 167.037C71.2541 167.1 71.6339 167.479 71.5073 168.048C71.444 168.427 71.0009 168.743 70.7477 169.122C70.6844 169.122 70.4945 169.122 70.3679 169.059Z" fill="#322D3E"/>
<path d="M48.1487 123.572C47.8954 123.193 47.4523 122.877 47.389 122.498C47.2624 121.929 47.7055 121.487 48.3386 121.55C48.9083 121.55 49.3514 121.929 49.2248 122.498C49.1615 122.877 48.7817 123.256 48.5285 123.572C48.4652 123.572 48.2753 123.572 48.1487 123.572Z" fill="#322D3E"/>
<path d="M70.9376 165.394C70.6844 165.015 70.3046 164.7 70.2413 164.32C70.1147 163.752 70.5578 163.373 71.1275 163.373C71.7606 163.373 72.2037 163.752 72.0771 164.32C72.0138 164.7 71.5707 165.015 71.3174 165.394C71.1908 165.394 71.0642 165.394 70.9376 165.394Z" fill="#322D3E"/>
<path d="M46.4395 118.454C46.0597 118.707 45.7431 119.149 45.3633 119.213C44.7936 119.339 44.4138 118.96 44.3505 118.391C44.2872 117.759 44.667 117.317 45.3 117.38C45.6798 117.444 46.0597 117.823 46.3762 118.075C46.4395 118.139 46.4395 118.265 46.4395 118.454Z" fill="#322D3E"/>
<path d="M39.7927 113.527C39.4129 113.779 39.0964 114.222 38.7165 114.285C38.1468 114.411 37.767 114.032 37.7037 113.463C37.6404 112.832 38.0202 112.389 38.6532 112.453C39.0331 112.516 39.4129 112.895 39.7294 113.148C39.7927 113.274 39.7927 113.4 39.7927 113.527Z" fill="#322D3E"/>
<path d="M69.1018 155.16C69.3551 155.539 69.7349 155.855 69.7982 156.234C69.8615 156.803 69.4817 157.182 68.9119 157.182C68.2789 157.182 67.8358 156.803 67.9624 156.234C68.0257 155.855 68.4688 155.539 68.722 155.16C68.8486 155.16 68.9752 155.16 69.1018 155.16Z" fill="#322D3E"/>
<path d="M18.8394 97.3535C19.0926 97.7326 19.5358 98.0485 19.5991 98.4275C19.7257 98.9961 19.2825 99.4383 18.6495 99.3751C18.0798 99.3751 17.6367 98.9961 17.7633 98.4275C17.8266 98.0485 18.2064 97.6694 18.4596 97.3535C18.5862 97.3535 18.7128 97.3535 18.8394 97.3535Z" fill="#322D3E"/>
<path d="M61.5688 139.998C61.1889 140.25 60.8724 140.692 60.4926 140.756C59.9229 140.882 59.5431 140.503 59.4798 139.934C59.4165 139.303 59.7963 138.86 60.4293 138.924C60.8091 138.987 61.1889 139.366 61.5055 139.618C61.5688 139.682 61.5688 139.808 61.5688 139.998Z" fill="#322D3E"/>
<path d="M16.1174 97.9852C15.7376 98.2379 15.4211 98.617 15.0413 98.6802C14.4082 98.7433 14.0917 98.3011 14.0917 97.7325C14.0917 97.1639 14.5349 96.7849 15.0413 96.8481C15.4211 96.9112 15.7376 97.3535 16.1174 97.6062C16.1174 97.7325 16.1174 97.8589 16.1174 97.9852Z" fill="#322D3E"/>
<path d="M57.3275 136.523C57.0743 136.144 56.6312 135.828 56.5679 135.449C56.4413 134.88 56.8844 134.438 57.5175 134.501C58.0872 134.501 58.5303 134.88 58.4037 135.449C58.3404 135.828 57.9606 136.207 57.7074 136.523C57.5808 136.523 57.4542 136.523 57.3275 136.523Z" fill="#322D3E"/>
<path d="M26.4357 103.608C26.0559 103.861 25.7394 104.24 25.3596 104.303C24.7899 104.429 24.41 103.987 24.41 103.418C24.41 102.787 24.7899 102.344 25.3596 102.471C25.7394 102.534 26.0559 102.976 26.4357 103.229C26.4357 103.292 26.4357 103.482 26.4357 103.608Z" fill="#322D3E"/>
<path d="M5.73577 92.3625C5.35596 92.6152 5.03944 92.9943 4.65962 93.0575C4.0899 93.1838 3.71008 92.7416 3.71008 92.173C3.71008 91.5412 4.0899 91.099 4.65962 91.2253C5.03944 91.2885 5.35596 91.6676 5.73577 91.9203C5.73577 92.1098 5.73577 92.2362 5.73577 92.3625Z" fill="#322D3E"/>
<path d="M28.9046 105.187C28.6514 104.808 28.2082 104.492 28.1449 104.113C28.0183 103.545 28.3982 103.166 28.9679 103.103C29.6009 103.039 30.044 103.418 29.9807 104.05C29.9174 104.429 29.5376 104.808 29.2844 105.124C29.1578 105.187 29.0312 105.187 28.9046 105.187Z" fill="#322D3E"/>
<path d="M1.8743 91.4149C1.811 91.0358 1.36788 90.7199 1.11467 90.3409C0.988065 90.3409 0.924762 90.3409 0.798157 90.3409V92.3625C0.861459 92.3625 0.988065 92.3625 1.05137 92.3625C1.62109 92.3625 2.00091 91.9835 1.8743 91.4149Z" fill="#322D3E"/>
<path d="M65.7467 153.138C65.4935 152.759 65.0504 152.443 64.9871 152.064C64.8605 151.496 65.2403 151.117 65.81 151.053C66.4431 150.99 66.8862 151.369 66.8229 152.001C66.7596 152.38 66.3798 152.759 66.1265 153.075C65.9999 153.138 65.8733 153.138 65.7467 153.138Z" fill="#322D3E"/>
<path d="M63.278 145.115C63.0248 144.736 62.5817 144.42 62.5184 144.041C62.3917 143.472 62.7716 143.093 63.3413 143.03C63.9743 142.967 64.4174 143.346 64.3541 143.978C64.2908 144.357 63.911 144.736 63.6578 145.052C63.5312 145.115 63.4046 145.115 63.278 145.115Z" fill="#322D3E"/>
<path d="M36.8175 109.167C36.4376 109.42 36.1211 109.862 35.7413 109.926C35.1716 110.052 34.7918 109.673 34.7285 109.104C34.6652 108.473 35.045 108.03 35.678 108.093C36.0578 108.157 36.4376 108.536 36.7542 108.788C36.8175 108.852 36.8175 109.041 36.8175 109.167Z" fill="#322D3E"/>
<path d="M51.5669 125.783C51.8201 126.162 52.1999 126.478 52.2632 126.857C52.3266 127.489 51.8834 127.805 51.3137 127.805C50.744 127.805 50.3642 127.362 50.4275 126.857C50.4908 126.478 50.9339 126.162 51.1871 125.783C51.3137 125.72 51.4403 125.72 51.5669 125.783Z" fill="#322D3E"/>
<path d="M67.7725 148.337C67.2028 148.779 66.823 149.284 66.5064 149.284C66.1266 149.221 65.8101 148.779 65.4936 148.463C65.8101 148.147 66.0633 147.579 66.3798 147.579C66.6963 147.516 67.0762 147.895 67.7725 148.337Z" fill="#322D3E"/>
<path d="M9.66055 92.9311C9.02753 93.3102 8.64771 93.7524 8.26789 93.7524C7.95138 93.7524 7.69817 93.1838 7.38165 92.8679C7.69817 92.5521 8.01468 92.0466 8.3945 92.0466C8.71101 91.9835 9.09083 92.4889 9.66055 92.9311Z" fill="#322D3E"/>
<path d="M53.0862 123.319C52.7697 123.572 52.3899 124.014 52.0734 124.014C51.7569 124.014 51.4404 123.509 51.1238 123.193C51.4404 122.877 51.6936 122.371 52.0101 122.308C52.3266 122.245 52.7064 122.687 53.0229 122.94C53.0862 123.066 53.0862 123.193 53.0862 123.319Z" fill="#322D3E"/>
<path d="M74.6725 172.344C74.356 172.597 73.9761 173.039 73.6596 173.039C73.3431 173.039 73.0266 172.533 72.7101 172.217C73.0266 171.902 73.2798 171.396 73.5963 171.333C73.9128 171.27 74.2927 171.712 74.6092 171.965C74.6725 172.091 74.6725 172.217 74.6725 172.344Z" fill="#322D3E"/>
<path d="M43.4009 114.032C43.0844 114.285 42.7046 114.727 42.3881 114.727C42.0716 114.727 41.7551 114.222 41.4385 113.906C41.7551 113.59 42.0083 113.084 42.3248 113.021C42.6413 112.958 43.0211 113.4 43.4009 113.653C43.4009 113.779 43.4009 113.906 43.4009 114.032Z" fill="#322D3E"/>
<path d="M54.8587 128.563C54.6055 128.247 54.1624 127.868 54.1624 127.552C54.1624 127.236 54.6688 126.667 54.9853 126.667C55.3018 126.667 55.8082 127.173 55.8715 127.489C55.9348 127.804 55.4917 128.184 55.2385 128.499C55.1119 128.563 54.9853 128.563 54.8587 128.563Z" fill="#322D3E"/>
<path d="M12.066 92.3626C12.3192 92.7416 12.699 93.1207 12.699 93.3734C12.6357 93.6893 12.1293 93.942 11.8128 94.2578C11.4963 93.942 11.0532 93.6893 10.9899 93.3102C10.9899 92.9943 11.433 92.6784 11.6862 92.2994C11.8128 92.3626 11.9394 92.3626 12.066 92.3626Z" fill="#322D3E"/>
<path d="M21.1817 98.7433C21.5615 98.4906 21.9413 98.1116 22.1945 98.1116C22.511 98.1747 22.7642 98.6802 23.0807 98.996C22.7642 99.3119 22.4477 99.7542 22.1312 99.8173C21.8147 99.8173 21.4349 99.3751 21.1183 99.1224C21.1816 98.996 21.1817 98.8697 21.1817 98.7433Z" fill="#322D3E"/>
<path d="M59.0367 131.911C58.7202 132.164 58.3404 132.606 58.0239 132.606C57.7074 132.606 57.3909 132.1 57.0743 131.785C57.3909 131.469 57.6441 130.963 57.9606 130.9C58.2771 130.837 58.6569 131.279 58.9734 131.532C59.0367 131.658 59.0367 131.785 59.0367 131.911Z" fill="#322D3E"/>
<path d="M61.3789 135.133C61.6321 135.512 62.0119 135.891 62.0119 136.144C61.9486 136.46 61.4422 136.712 61.1257 137.028C60.8092 136.712 60.366 136.46 60.3027 136.081C60.3027 135.765 60.7459 135.449 60.9991 135.07C61.1257 135.07 61.2523 135.133 61.3789 135.133Z" fill="#322D3E"/>
<path d="M48.845 119.718C48.6551 119.402 48.2753 119.086 48.2753 118.77C48.2753 118.518 48.7817 118.012 48.9716 118.012C49.2881 118.075 49.7312 118.454 49.7945 118.77C49.8578 119.023 49.4147 119.402 49.2248 119.718C49.0982 119.718 48.9716 119.718 48.845 119.718Z" fill="#322D3E"/>
<path d="M70.9376 160.467C71.2541 160.277 71.5706 159.835 71.8872 159.835C72.2037 159.898 72.5835 160.277 72.6468 160.593C72.7101 160.783 72.2037 161.288 71.9505 161.351C71.6339 161.351 71.3174 161.035 70.9376 160.846C70.9376 160.783 70.9376 160.656 70.9376 160.467Z" fill="#322D3E"/>
<path d="M46.3128 113.653C46.5027 113.969 46.8826 114.348 46.8826 114.601C46.8193 114.916 46.3761 115.296 46.0596 115.296C45.8697 115.296 45.3633 114.853 45.3633 114.537C45.3633 114.222 45.7431 113.906 45.933 113.59C45.9963 113.653 46.1229 113.653 46.3128 113.653Z" fill="#322D3E"/>
<path d="M18.966 95.7109C18.7761 95.395 18.3963 95.0159 18.4596 94.7632C18.5229 94.4474 18.966 94.1315 19.2825 94.0683C19.4725 94.0683 19.9156 94.5737 19.9789 94.8264C19.9789 95.1423 19.5991 95.4582 19.3458 95.7741C19.2192 95.7109 19.0926 95.7109 18.966 95.7109Z" fill="#322D3E"/>
<path d="M73.4697 157.182C73.1532 157.371 72.7734 157.75 72.5202 157.75C72.2037 157.687 71.8239 157.245 71.8239 156.929C71.8239 156.739 72.267 156.234 72.5835 156.234C72.9 156.234 73.2165 156.613 73.533 156.802C73.4697 156.929 73.4697 157.055 73.4697 157.182Z" fill="#322D3E"/>
<path d="M39.6027 108.725C39.7926 109.041 40.1725 109.42 40.1725 109.673C40.1092 109.989 39.666 110.368 39.3495 110.431C39.1596 110.431 38.6532 109.989 38.6532 109.673C38.6532 109.357 39.033 109.041 39.2229 108.725C39.3495 108.725 39.4761 108.725 39.6027 108.725Z" fill="#322D3E"/>
<path d="M15.7376 93.1838C15.9275 93.4997 16.3073 93.8156 16.3073 94.1315C16.3073 94.3842 15.8009 94.8896 15.611 94.8264C15.2945 94.7633 14.8514 94.3842 14.7881 94.0683C14.7248 93.8156 15.1679 93.4365 15.3578 93.1207C15.4844 93.1838 15.611 93.1838 15.7376 93.1838Z" fill="#322D3E"/>
<path d="M70.4945 152.759C70.178 152.949 69.7982 153.391 69.545 153.328C69.2284 153.265 68.8486 152.822 68.7853 152.506C68.722 152.317 69.2284 151.812 69.4817 151.812C69.7982 151.812 70.1147 152.191 70.4312 152.38C70.4945 152.506 70.4945 152.633 70.4945 152.759Z" fill="#322D3E"/>
<path d="M32.7661 103.671C32.956 103.987 33.3358 104.366 33.3358 104.619C33.2725 104.935 32.8294 105.314 32.5129 105.377C32.3229 105.377 31.8165 104.935 31.8165 104.619C31.8165 104.303 32.1963 103.987 32.3863 103.671C32.5129 103.671 32.6395 103.671 32.7661 103.671Z" fill="#322D3E"/>
<path d="M68.089 144.925C67.7725 145.115 67.456 145.494 67.1394 145.494C66.8862 145.494 66.3798 144.989 66.4431 144.799C66.5064 144.483 66.8862 144.041 67.2027 144.041C67.456 143.978 67.8358 144.42 68.1523 144.609C68.089 144.673 68.089 144.799 68.089 144.925Z" fill="#322D3E"/>
<path d="M65.0504 140.566C64.7339 140.756 64.3541 141.135 64.1009 141.135C63.7844 141.072 63.4046 140.629 63.3412 140.313C63.3412 140.124 63.7844 139.619 64.1009 139.619C64.4174 139.619 64.7339 139.998 65.0504 140.187C65.1137 140.25 65.0504 140.44 65.0504 140.566Z" fill="#322D3E"/>
<path d="M26.8156 99.8806C26.499 100.07 26.1825 100.449 25.866 100.449C25.6128 100.449 25.1064 100.007 25.1064 99.7542C25.1697 99.4383 25.5495 98.9961 25.8027 98.9329C26.0559 98.8697 26.4357 99.2488 26.7523 99.4383C26.8156 99.6279 26.8156 99.7542 26.8156 99.8806Z" fill="#322D3E"/>
<path d="M75.2422 168.743C74.9257 168.932 74.5459 169.311 74.2927 169.248C74.0395 169.248 73.5331 168.743 73.5964 168.49C73.6597 168.174 74.0395 167.732 74.356 167.732C74.6092 167.669 74.989 168.111 75.3055 168.301C75.2422 168.49 75.2422 168.616 75.2422 168.743Z" fill="#322D3E"/>
<path d="M75.9385 164.889C75.4321 165.205 75.0523 165.584 74.7991 165.584C74.5458 165.521 74.1027 165.079 74.1027 164.826C74.1027 164.573 74.5458 164.131 74.8624 164.131C75.1789 164.131 75.4321 164.51 75.9385 164.889Z" fill="#322D3E"/>
<path d="M58.7201 129.194C58.3403 128.689 57.9605 128.373 57.9605 128.12C57.9605 127.868 58.4036 127.425 58.6568 127.362C58.91 127.362 59.3532 127.804 59.4165 128.057C59.4798 128.31 59.1 128.626 58.7201 129.194Z" fill="#322D3E"/>
<path d="M55.7449 124.962C55.3651 124.456 54.9853 124.14 54.9853 123.888C54.9853 123.635 55.4284 123.129 55.6816 123.129C55.9348 123.129 56.3779 123.572 56.4412 123.824C56.5045 124.14 56.1247 124.456 55.7449 124.962Z" fill="#322D3E"/>
<path d="M62.7716 132.48C62.2651 132.795 61.8853 133.174 61.6321 133.174C61.3789 133.111 60.9358 132.669 60.9358 132.416C60.9358 132.164 61.3789 131.721 61.6954 131.721C62.0119 131.721 62.2651 132.1 62.7716 132.48Z" fill="#322D3E"/>
<path d="M8.90093 90.2777C8.52111 89.7723 8.1413 89.4564 8.1413 89.2037C8.1413 88.951 8.58442 88.5088 8.83763 88.4456C9.09084 88.4456 9.53396 88.8879 9.59726 89.1406C9.59726 89.4564 9.21744 89.7723 8.90093 90.2777Z" fill="#322D3E"/>
<path d="M70.1779 150.169C69.7981 149.664 69.355 149.348 69.4183 149.095C69.4183 148.779 69.8614 148.337 70.1146 148.337C70.3679 148.337 70.811 148.716 70.8743 149.032C70.8743 149.348 70.4945 149.664 70.1779 150.169Z" fill="#322D3E"/>
<path d="M5.22934 87.3716C5.54585 87.877 5.92567 88.2561 5.92567 88.5088C5.86237 88.7615 5.41925 89.0142 5.16604 89.2669C4.91282 89.0142 4.4697 88.7615 4.4697 88.4456C4.4064 88.1929 4.84952 87.877 5.22934 87.3716Z" fill="#322D3E"/>
<path d="M44.0339 110.241C43.5275 110.557 43.1477 110.936 42.8944 110.936C42.6412 110.873 42.1981 110.431 42.1981 110.178C42.1981 109.926 42.6412 109.483 42.9578 109.483C43.211 109.483 43.5275 109.862 44.0339 110.241Z" fill="#322D3E"/>
<path d="M37.3872 105.314C36.8807 105.693 36.5642 106.072 36.2477 106.009C35.9945 105.945 35.5514 105.503 35.5514 105.251C35.5514 104.998 35.9945 104.556 36.311 104.556C36.5009 104.556 36.8174 104.935 37.3872 105.314Z" fill="#322D3E"/>
<path d="M64.734 135.512C65.0505 136.017 65.4303 136.396 65.4303 136.649C65.367 136.902 64.9239 137.155 64.6707 137.407C64.4175 137.155 63.9743 136.902 63.9743 136.586C63.911 136.333 64.3542 136.017 64.734 135.512Z" fill="#322D3E"/>
<path d="M30.677 100.386C30.1706 100.765 29.8541 101.144 29.6009 101.144C29.3477 101.144 28.8412 100.702 28.8412 100.449C28.8412 100.196 29.2844 99.7542 29.5376 99.691C29.8541 99.6278 30.1706 100.007 30.677 100.386Z" fill="#322D3E"/>
<path d="M24.0302 95.5845C23.4605 95.9004 23.144 96.2795 22.8908 96.2163C22.6376 96.1531 22.1945 95.7109 22.1945 95.4582C22.1945 95.2055 22.7009 94.7632 22.9541 94.7632C23.2073 94.7632 23.5238 95.1423 24.0302 95.5845Z" fill="#322D3E"/>
<path d="M75.4954 160.277C75.8752 160.783 76.2551 161.098 76.2551 161.351C76.2551 161.604 75.8119 162.046 75.5587 162.046C75.3688 162.109 74.8624 161.667 74.8624 161.414C74.7991 161.098 75.1789 160.783 75.4954 160.277Z" fill="#322D3E"/>
<path d="M73.0266 154.402C72.7101 153.896 72.3303 153.517 72.3303 153.265C72.3936 153.012 72.8367 152.633 73.0899 152.57C73.2799 152.57 73.723 153.012 73.723 153.265C73.7863 153.58 73.4065 153.896 73.0266 154.402Z" fill="#322D3E"/>
<path d="M52.7697 120.602C52.3899 120.097 52.0101 119.844 52.0101 119.528C52.0101 119.276 52.4532 118.77 52.6431 118.833C52.9596 118.897 53.4027 119.213 53.466 119.465C53.466 119.718 53.1495 120.034 52.7697 120.602Z" fill="#322D3E"/>
<path d="M50.6807 115.296C50.1743 115.611 49.7945 115.99 49.5413 115.99C49.2881 115.927 48.9083 115.485 48.9083 115.232C48.9083 115.043 49.3514 114.601 49.6046 114.601C49.8578 114.601 50.1743 114.98 50.6807 115.296Z" fill="#322D3E"/>
<path d="M39.9193 107.083C39.5395 106.514 39.223 106.198 39.223 105.945C39.223 105.693 39.6661 105.314 39.9193 105.314C40.1725 105.314 40.6156 105.756 40.6156 106.009C40.6156 106.261 40.2991 106.577 39.9193 107.083Z" fill="#322D3E"/>
<path d="M67.8991 139.934C68.2156 140.44 68.5954 140.756 68.5954 141.072C68.5954 141.324 68.089 141.766 67.8991 141.703C67.5826 141.64 67.2027 141.261 67.1394 141.008C67.0761 140.756 67.5193 140.44 67.8991 139.934Z" fill="#322D3E"/>
<path d="M34.3486 100.891C33.8422 101.27 33.5257 101.586 33.2725 101.586C33.0192 101.586 32.766 101.144 32.5128 100.891C32.766 100.639 33.0192 100.196 33.3358 100.133C33.5257 100.196 33.8422 100.575 34.3486 100.891Z" fill="#322D3E"/>
<path d="M13.6486 89.8987C13.1422 90.2146 12.8257 90.5936 12.5091 90.5936C12.2559 90.5936 11.8128 90.0882 11.8761 89.8987C11.9394 89.5828 12.3192 89.2037 12.5724 89.1406C12.8257 89.1406 13.1422 89.5828 13.6486 89.8987Z" fill="#322D3E"/>
<path d="M59.4165 123.382C59.7331 123.888 60.1129 124.14 60.0496 124.393C60.0496 124.646 59.6064 124.898 59.3532 125.088C59.1 124.835 58.7202 124.646 58.7202 124.393C58.7202 124.14 59.1 123.824 59.4165 123.382Z" fill="#322D3E"/>
<path d="M26.6257 97.0376C26.2459 96.5954 25.8661 96.2795 25.9294 96.0268C25.9294 95.7741 26.3725 95.5214 26.5624 95.2687C26.8156 95.5214 27.1954 95.7109 27.2587 95.9636C27.322 96.2163 26.9422 96.5322 26.6257 97.0376Z" fill="#322D3E"/>
<path d="M16.244 89.3932C16.5605 89.8987 16.9403 90.1514 16.877 90.4041C16.8137 90.6568 16.4339 90.9095 16.1807 91.099C15.9275 90.8463 15.5477 90.6568 15.5477 90.3409C15.5477 90.1514 15.9275 89.8355 16.244 89.3932Z" fill="#322D3E"/>
<path d="M77.9009 170.259C77.5211 169.817 77.1413 169.501 77.2046 169.248C77.2046 168.996 77.6477 168.743 77.8376 168.49C78.0908 168.743 78.4706 168.932 78.5339 169.185C78.5339 169.438 78.2174 169.754 77.9009 170.259Z" fill="#322D3E"/>
<path d="M62.3918 127.741C62.7083 128.247 63.0881 128.499 63.0248 128.752C63.0248 129.005 62.5817 129.258 62.3285 129.447C62.0753 129.194 61.6954 129.005 61.6954 128.752C61.6954 128.499 62.0753 128.247 62.3918 127.741Z" fill="#322D3E"/>
<path d="M70.8743 144.357C71.1908 144.862 71.5706 145.178 71.5073 145.431C71.444 145.683 71.0642 145.873 70.811 146.126C70.5578 145.873 70.178 145.62 70.178 145.368C70.1147 145.115 70.4945 144.862 70.8743 144.357Z" fill="#322D3E"/>
<path d="M46.566 109.862C46.8825 110.368 47.2624 110.62 47.2624 110.873C47.2624 111.126 46.8192 111.568 46.566 111.568C46.3128 111.568 45.933 111.189 45.8697 110.873C45.8697 110.684 46.2495 110.368 46.566 109.862Z" fill="#322D3E"/>
<path d="M43.5908 107.399C43.2743 106.956 43.0211 106.704 43.0211 106.514C43.0211 106.261 43.4009 106.072 43.5908 105.882C43.7808 106.072 44.1606 106.261 44.2239 106.514C44.2239 106.767 43.9074 107.02 43.5908 107.399Z" fill="#322D3E"/>
<path d="M19.9156 92.0466C19.5991 91.6044 19.2826 91.4149 19.3459 91.1622C19.3459 90.9095 19.6624 90.7199 19.8523 90.5304C20.1055 90.7199 20.422 90.9095 20.4853 91.1622C20.5486 91.2885 20.2321 91.6044 19.9156 92.0466Z" fill="#322D3E"/>
<path d="M69.2284 137.407C68.7853 137.66 68.5321 137.976 68.3422 137.976C68.089 137.913 67.8991 137.534 67.7092 137.344C67.8991 137.155 68.1523 136.839 68.4055 136.839C68.5954 136.776 68.8486 137.091 69.2284 137.407Z" fill="#322D3E"/>
<path d="M3.07707 84.2759C2.63395 84.5918 2.38074 84.8445 2.19083 84.8445C1.93762 84.8445 1.74771 84.4655 1.5578 84.2759C1.74771 84.0864 1.93762 83.7073 2.19083 83.6442C2.44404 83.6442 2.69725 84.0232 3.07707 84.2759Z" fill="#322D3E"/>
<path d="M65.4303 132.227C65.6835 132.732 65.9367 132.985 65.9367 133.238C65.9367 133.427 65.4936 133.806 65.367 133.743C65.1138 133.68 64.8605 133.364 64.7972 133.111C64.7972 132.859 65.1138 132.669 65.4303 132.227Z" fill="#322D3E"/>
<path d="M76.255 158.571C75.9385 158.129 75.622 157.876 75.622 157.687C75.6853 157.434 76.0018 157.118 76.255 157.055C76.3816 156.992 76.8248 157.371 76.8248 157.624C76.8248 157.876 76.5715 158.129 76.255 158.571Z" fill="#322D3E"/>
<path d="M31.1835 96.7849C30.7403 97.0376 30.4871 97.3535 30.2972 97.3535C30.044 97.2903 29.8541 96.9113 29.6642 96.7217C29.9174 96.5322 30.1073 96.2163 30.3605 96.2163C30.5504 96.1531 30.7403 96.469 31.1835 96.7849Z" fill="#322D3E"/>
<path d="M56.378 121.108C56.0615 120.666 55.745 120.35 55.8083 120.223C55.8716 119.971 56.1881 119.781 56.4413 119.592C56.6312 119.781 57.011 119.971 57.011 120.223C57.011 120.413 56.6945 120.666 56.378 121.108Z" fill="#322D3E"/>
<path d="M79.4201 165.584C78.977 165.9 78.7238 166.153 78.5339 166.153C78.2807 166.153 78.0908 165.773 77.9009 165.584C78.0908 165.394 78.2807 165.015 78.5339 164.952C78.7238 164.952 79.0403 165.268 79.4201 165.584Z" fill="#322D3E"/>
<path d="M72.9 149.6C73.3431 149.284 73.5964 148.969 73.7863 149.032C74.0395 149.095 74.2294 149.411 74.4193 149.664C74.2294 149.853 73.9762 150.169 73.7863 150.169C73.5331 150.232 73.2798 149.916 72.9 149.6Z" fill="#322D3E"/>
<path d="M37.0074 102.534C36.6908 102.092 36.3743 101.839 36.3743 101.649C36.4376 101.397 36.6908 101.081 36.9441 101.018C37.0707 100.955 37.5138 101.334 37.5138 101.586C37.5138 101.839 37.2606 102.092 37.0074 102.534Z" fill="#322D3E"/>
<path d="M54.1624 115.801C53.7193 116.117 53.5294 116.37 53.2762 116.37C53.0229 116.37 52.833 116.054 52.6431 115.864C52.833 115.675 53.0229 115.296 53.2762 115.232C53.4661 115.169 53.7193 115.548 54.1624 115.801Z" fill="#322D3E"/>
<path d="M10.4202 85.6027C10.0404 85.8554 9.78716 86.1081 9.53395 86.1081C9.34404 86.1081 9.02753 85.6658 9.02753 85.5395C9.09083 85.2868 9.40734 85.0341 9.66056 85.0341C9.78716 84.9709 10.0404 85.2868 10.4202 85.6027Z" fill="#322D3E"/>
<path d="M48.1486 107.272C47.7688 107.525 47.5156 107.778 47.2624 107.778C47.0725 107.778 46.6926 107.399 46.7559 107.272C46.8192 107.019 47.1358 106.767 47.3257 106.704C47.5156 106.64 47.7688 106.956 48.1486 107.272Z" fill="#322D3E"/>
<path d="M51.1238 111.631C50.744 111.884 50.4908 112.137 50.2376 112.137C50.0477 112.137 49.6679 111.758 49.7312 111.631C49.7945 111.379 50.111 111.126 50.3009 111.063C50.4908 111 50.744 111.315 51.1238 111.631Z" fill="#322D3E"/>
<path d="M23.6504 92.6152C23.3339 92.2362 23.0174 92.0466 23.0174 91.8571C23.0807 91.6044 23.3339 91.3517 23.5238 91.2253C23.6504 91.1622 24.0302 91.5412 24.0935 91.7308C24.1568 91.9835 23.9036 92.2362 23.6504 92.6152Z" fill="#322D3E"/>
<path d="M14.0917 86.1712C13.7119 86.4871 13.522 86.803 13.3321 86.803C13.0789 86.7398 12.8257 86.4871 12.699 86.2976C12.6357 86.1712 13.0156 85.7922 13.2055 85.729C13.3954 85.6658 13.6486 85.9185 14.0917 86.1712Z" fill="#322D3E"/>
<path d="M6.74861 84.8445C6.24219 85.0972 5.98898 85.3499 5.79907 85.3499C5.60916 85.3499 5.29265 84.9709 5.35595 84.7814C5.35595 84.5918 5.73577 84.2759 5.92568 84.2759C6.11558 84.2759 6.30549 84.5286 6.74861 84.8445Z" fill="#322D3E"/>
<path d="M72.3302 141.766C71.9504 142.019 71.6972 142.272 71.444 142.272C71.2541 142.272 70.8743 141.893 70.9376 141.766C71.0009 141.514 71.3174 141.261 71.5073 141.198C71.7605 141.135 71.9504 141.451 72.3302 141.766Z" fill="#322D3E"/>
<path d="M41.5019 102.344C41.0587 102.597 40.8055 102.913 40.5523 102.85C40.3624 102.85 40.0459 102.471 40.0459 102.281C40.0459 102.092 40.3624 101.776 40.5523 101.776C40.8055 101.776 41.0587 102.029 41.5019 102.344Z" fill="#322D3E"/>
<path d="M79.9899 161.92C79.6734 162.173 79.4202 162.488 79.2303 162.425C78.977 162.362 78.8504 162.046 78.5972 161.857C78.7871 161.667 79.0403 161.351 79.2303 161.351C79.4835 161.288 79.6734 161.667 79.9899 161.92Z" fill="#322D3E"/>
<path d="M82.3321 169.943C81.9523 170.196 81.6991 170.512 81.5092 170.512C81.3193 170.512 80.9395 170.133 81.0028 170.006C81.0661 169.754 81.3193 169.501 81.5725 169.438C81.6991 169.375 81.9523 169.627 82.3321 169.943Z" fill="#322D3E"/>
<path d="M75.3688 145.999C74.8624 146.252 74.6092 146.505 74.4193 146.442C74.2293 146.442 73.9761 146.062 73.9761 145.873C73.9761 145.683 74.356 145.368 74.4826 145.368C74.7358 145.431 74.9257 145.683 75.3688 145.999Z" fill="#322D3E"/>
<path d="M76.7614 154.907C76.5082 154.465 76.1917 154.212 76.255 153.96C76.255 153.77 76.6348 153.454 76.8247 153.454C77.0146 153.454 77.3312 153.77 77.3312 153.96C77.3312 154.212 77.0779 154.402 76.7614 154.907Z" fill="#322D3E"/>
<path d="M60.8092 120.918C60.3661 121.171 60.1128 121.424 59.8596 121.424C59.6697 121.424 59.3532 121.045 59.3532 120.855C59.3532 120.666 59.6697 120.35 59.8596 120.35C60.1128 120.35 60.3661 120.602 60.8092 120.918Z" fill="#322D3E"/>
<path d="M63.911 125.088C63.5312 125.341 63.278 125.656 63.0881 125.593C62.8349 125.53 62.7083 125.214 62.5184 125.025C62.7083 124.835 62.8982 124.519 63.0881 124.519C63.3413 124.582 63.5312 124.835 63.911 125.088Z" fill="#322D3E"/>
<path d="M33.9688 96.5953C34.222 96.9744 34.4753 97.2271 34.4753 97.4798C34.4753 97.6693 34.0954 98.0484 33.9688 97.9852C33.7156 97.922 33.4624 97.6062 33.3991 97.4166C33.3991 97.2271 33.7156 96.9744 33.9688 96.5953Z" fill="#322D3E"/>
<path d="M16.9404 85.9818C17.1936 86.3608 17.4468 86.5503 17.4468 86.7399C17.4468 86.9294 17.1303 87.1821 16.8771 87.2453C16.7505 87.2453 16.434 86.9294 16.434 86.7399C16.434 86.5503 16.6872 86.3608 16.9404 85.9818Z" fill="#322D3E"/>
<path d="M80.4963 158.192C80.1165 158.445 79.9266 158.698 79.7367 158.698C79.5468 158.698 79.2303 158.382 79.2303 158.256C79.2936 158.066 79.4835 157.75 79.6734 157.687C79.9266 157.687 80.1798 157.94 80.4963 158.192Z" fill="#322D3E"/>
<path d="M66.1266 130.205C65.8734 129.889 65.5569 129.7 65.5569 129.447C65.5569 129.258 65.8734 128.942 66 128.942C66.1899 128.942 66.5697 129.194 66.5697 129.384C66.633 129.573 66.3798 129.826 66.1266 130.205Z" fill="#322D3E"/>
<path d="M57.7073 116.559C57.3275 116.812 57.0743 117.065 56.8844 117.065C56.6945 117.001 56.4413 116.749 56.4413 116.496C56.4413 116.37 56.7578 116.054 56.9477 116.054C57.1376 115.991 57.3275 116.243 57.7073 116.559Z" fill="#322D3E"/>
<path d="M27.2587 93.1206C27.0055 92.7416 26.7523 92.4889 26.7523 92.2994C26.8156 92.1098 27.0688 91.8571 27.322 91.8571C27.4487 91.8571 27.7652 92.173 27.7652 92.3625C27.7652 92.5521 27.512 92.7416 27.2587 93.1206Z" fill="#322D3E"/>
<path d="M69.1018 134.438C68.8486 134.059 68.5954 133.869 68.5954 133.68C68.5954 133.49 68.9119 133.174 69.0385 133.174C69.2284 133.238 69.5449 133.427 69.6082 133.617C69.6082 133.806 69.2917 134.059 69.1018 134.438Z" fill="#322D3E"/>
<path d="M78.2175 150.295C77.901 150.548 77.711 150.801 77.5844 150.801C77.3945 150.801 77.2046 150.548 77.0147 150.422C77.2046 150.232 77.3312 149.916 77.5211 149.853C77.6477 149.79 77.8376 150.043 78.2175 150.295Z" fill="#322D3E"/>
<path d="M38.3367 97.922C38.0202 98.1747 37.8303 98.4274 37.7037 98.4274C37.5138 98.4274 37.3239 98.1747 37.134 98.0484C37.3239 97.8588 37.4505 97.543 37.6404 97.4798C37.767 97.4166 38.0202 97.6693 38.3367 97.922Z" fill="#322D3E"/>
<path d="M72.0137 137.344C72.2669 137.66 72.5202 137.85 72.5202 138.039C72.4569 138.229 72.2036 138.418 72.0137 138.608C71.8871 138.418 71.5706 138.229 71.5706 138.102C71.5706 137.85 71.8238 137.66 72.0137 137.344Z" fill="#322D3E"/>
<path d="M45.0468 102.976C44.7303 103.229 44.5404 103.482 44.4138 103.482C44.2239 103.482 44.034 103.229 43.8441 103.103C44.034 102.913 44.1606 102.597 44.3505 102.534C44.4771 102.534 44.667 102.787 45.0468 102.976Z" fill="#322D3E"/>
<path d="M54.6688 112.137C54.3523 112.326 54.0991 112.642 53.9725 112.579C53.7826 112.516 53.5927 112.2 53.4661 112.01C53.656 111.884 53.8459 111.568 54.0358 111.568C54.1624 111.631 54.3523 111.884 54.6688 112.137Z" fill="#322D3E"/>
<path d="M41.3119 99.1856C41.122 98.9329 40.9321 98.7434 40.9954 98.617C40.9954 98.4907 41.2486 98.3011 41.3752 98.3011C41.5018 98.3011 41.6917 98.5539 41.6917 98.6802C41.6917 98.8066 41.5018 98.9329 41.3119 99.1856Z" fill="#322D3E"/>
<path d="M51.5036 107.904C51.2504 108.093 51.1238 108.283 50.9972 108.283C50.8706 108.283 50.744 108.093 50.5541 107.967C50.6807 107.841 50.8073 107.588 50.9972 107.588C51.1238 107.525 51.3137 107.778 51.5036 107.904Z" fill="#322D3E"/>
<path d="M82.7752 166.279C82.522 166.468 82.3321 166.658 82.2688 166.658C82.0789 166.595 82.0156 166.405 81.889 166.216C82.0156 166.089 82.1422 165.9 82.3321 165.9C82.3954 165.9 82.522 166.089 82.7752 166.279Z" fill="#322D3E"/>
<path d="M75.5587 142.272C75.3055 142.461 75.1789 142.651 75.0523 142.651C74.9257 142.651 74.7991 142.461 74.6092 142.335C74.7358 142.209 74.8624 141.956 75.0523 141.956C75.1789 141.83 75.3055 142.082 75.5587 142.272Z" fill="#322D3E"/>
<path d="M64.1642 121.424C63.911 121.613 63.7211 121.803 63.5945 121.74C63.4679 121.74 63.2147 121.487 63.2147 121.36C63.2147 121.234 63.4679 121.045 63.5945 120.981C63.7844 121.045 63.911 121.234 64.1642 121.424Z" fill="#322D3E"/>
<path d="M67.3293 125.72C67.0761 125.909 66.9495 126.162 66.8229 126.162C66.6963 126.162 66.5697 125.972 66.3798 125.846C66.5064 125.72 66.5697 125.467 66.7596 125.467C66.8862 125.404 67.0761 125.593 67.3293 125.72Z" fill="#322D3E"/>
<path d="M81.0027 154.655C80.7495 154.844 80.6229 155.034 80.4963 155.034C80.3697 155.034 80.1165 154.844 80.1165 154.718C80.1165 154.591 80.3064 154.339 80.433 154.339C80.5596 154.339 80.7495 154.528 81.0027 154.655Z" fill="#322D3E"/>
<path d="M3.45686 80.5486C3.20365 80.7381 3.07705 80.9908 2.95044 80.9276C2.76054 80.8644 2.63393 80.6749 2.50732 80.5486C2.63393 80.4222 2.76054 80.2327 2.88714 80.2327C3.01375 80.2327 3.20365 80.4222 3.45686 80.5486Z" fill="#322D3E"/>
<path d="M7.12843 81.1803C6.87521 81.3699 6.68531 81.5594 6.622 81.4962C6.4321 81.433 6.36879 81.2435 6.24219 81.054C6.36879 80.9276 6.4954 80.7381 6.68531 80.7381C6.74861 80.7381 6.87521 80.9908 7.12843 81.1803Z" fill="#322D3E"/>
<path d="M10.8 81.812C10.5468 82.0016 10.4202 82.1911 10.2936 82.1911C10.167 82.1911 9.91376 82.0016 9.91376 81.8752C9.91376 81.7489 10.1037 81.4962 10.2303 81.4962C10.3569 81.433 10.5468 81.6225 10.8 81.812Z" fill="#322D3E"/>
<path d="M20.6752 87.9402C20.4853 87.7507 20.2954 87.6243 20.2321 87.4348C20.2321 87.3084 20.422 87.1189 20.5486 86.9926C20.6752 87.1189 20.9284 87.1821 20.9917 87.3716C21.055 87.498 20.8018 87.7507 20.6752 87.9402Z" fill="#322D3E"/>
<path d="M24.8532 88.1297C24.6 88.3192 24.4101 88.5087 24.2835 88.5087C24.1569 88.5087 24.0303 88.256 23.9037 88.1297C24.0303 88.0033 24.1569 87.8138 24.2835 87.7506C24.4734 87.7506 24.6 87.9401 24.8532 88.1297Z" fill="#322D3E"/>
<path d="M30.9936 92.4889C31.1835 92.7416 31.3734 92.9311 31.3101 92.9943C31.2468 93.1838 31.0569 93.247 30.867 93.3734C30.7404 93.247 30.5505 93.1207 30.5505 92.9311C30.6138 92.868 30.8037 92.7416 30.9936 92.4889Z" fill="#322D3E"/>
<path d="M42.5149 154.844C72.7736 166.153 106.134 155.476 128.797 144.546C140.444 138.924 151.775 132.227 162.79 125.783C176.97 117.444 191.72 108.788 207.165 102.344C222.231 96.09 260.53 83.581 290.092 103.103C307.057 114.348 318.895 135.07 325.225 164.7C325.795 167.479 326.365 170.322 326.871 173.165H327.504C326.998 170.322 326.428 167.416 325.858 164.573C319.528 134.754 307.627 113.906 290.472 102.597C260.656 82.8861 222.168 95.4582 206.975 101.776C191.466 108.22 176.78 116.875 162.537 125.214C151.586 131.658 140.254 138.355 128.607 143.978C106.071 154.844 72.9002 165.458 42.8314 154.275C32.1333 150.295 22.3213 143.662 12.8892 137.281C8.96445 134.628 4.97637 131.911 0.861694 129.384V130.142C4.84977 132.606 8.71124 135.196 12.5094 137.786C21.9415 144.23 31.7534 150.864 42.5149 154.844Z" fill="white"/>
<path d="M122.656 110.178C140.241 110.178 154.497 95.9509 154.497 78.4005C154.497 60.8502 140.241 46.6228 122.656 46.6228C105.07 46.6228 90.8146 60.8502 90.8146 78.4005C90.8146 95.9509 105.07 110.178 122.656 110.178Z" stroke="white" stroke-width="0.25" stroke-miterlimit="10"/>
</g>
</g>
<defs>
<linearGradient id="paint0_linear" x1="66.0116" y1="0.981689" x2="66.0116" y2="171.838" gradientUnits="userSpaceOnUse">
<stop stop-color="#40AB91"/>
<stop offset="1" stop-color="#667FA0"/>
</linearGradient>
<clipPath id="clip0">
<rect width="326.642" height="126.606" fill="white" transform="translate(0.798157 46.5596)"/>
</clipPath>
</defs>
</svg>
