<?xml version="1.0" encoding="utf-8"?>
<!-- Generator: Adobe Illustrator 16.0.2, SVG Export Plug-In . SVG Version: 6.00 Build 0)  -->
<!DOCTYPE svg PUBLIC "-//W3C//DTD SVG 1.1//EN" "http://www.w3.org/Graphics/SVG/1.1/DTD/svg11.dtd">
<svg version="1.1" id="Layer_1" xmlns="http://www.w3.org/2000/svg" xmlns:xlink="http://www.w3.org/1999/xlink" x="0px" y="0px"
	 width="1007.086px" height="185.76px" viewBox="8.022 293.536 1007.086 185.76"
	 enable-background="new 8.022 293.536 1007.086 185.76" xml:space="preserve">
<g>
	<path fill="#BD2127" d="M107.764,412.994c0,1.257,0,2.513,0,3.673c19.522-2.706,47.551-22.423,49.871-57.217
		c8.118,0,16.14,0,24.259,0c-0.193,33.731-26.192,74.613-74.227,82.249c0,8.505,0,17.011,0,25.612c-8.409,0-16.721,0-25.129,0
		c0-8.506,0-17.107,0-25.612c-24.259-3.963-43.782-15.561-58.28-35.277c-11.888-16.044-16.14-34.601-16.236-46.972
		c8.118,0,16.14,0,24.259,0c1.449,18.074,8.892,32.861,22.713,44.459c8.988,7.539,21.069,12.274,27.352,12.854
		c0-1.257,0-2.513,0-3.673c0-3.576,0-7.152,0-10.728c0-4.253,0-8.603,0-12.854c0-1.74,0-3.383,0-5.123
		c0-0.579,0.097-1.256,0.097-1.836c0-7.056,0-14.11,0-21.166c0-0.58,0-1.257,0-2.03c0.773,0,1.353,0,2.029,0
		c2.609,0,5.315-0.097,7.926-0.097c1.643,0,3.382,0,5.025,0c3.286,0.097,6.572,0.097,10.148,0.193c0,0.773,0,1.354,0,1.934
		c0,7.056,0,14.11,0,21.166c0,0.58,0.097,1.257,0.097,1.836c0,1.644,0,3.383,0,5.026c0,4.252,0,8.505,0,12.758
		C107.668,405.842,107.668,409.418,107.764,412.994z"/>
	<path fill="#637C9E" d="M82.442,402.364c0,3.575,0,7.151,0,10.728c-6.186-1.256-11.888-3.576-17.301-6.766
		c-11.888-7.055-20.393-17.106-25.322-30.058c-2.996-7.925-4.155-16.141-3.479-24.452c0.869-11.888,5.025-22.52,12.468-31.895
		c5.509-6.959,12.371-12.468,20.296-16.431c6.186-2.996,12.758-4.929,19.62-5.605c15.367-1.546,29.381,2.223,41.655,11.502
		c11.889,8.988,19.33,20.876,22.326,35.566c1.063,5.219,1.354,10.535,0.87,15.851c-0.967,11.984-5.315,22.616-12.854,31.895
		c-8.505,10.438-19.427,17.203-32.475,20.296c-0.192,0-0.386,0-0.482,0c0-3.576,0-7.152,0-10.824
		c4.735-3.963,7.925-8.988,10.438-14.691c-3.673,0.677-7.055,1.257-10.438,1.934c0-1.644,0-3.383,0-5.026
		c4.349-0.772,8.602-1.546,12.854-2.996c2.416-7.441,3.575-14.98,3.865-22.712c-9.085,0-17.977,0-26.771,0
		c0,0.29-0.097,0.482-0.097,0.579c-1.644,0-3.383,0-5.025,0c0-0.192-0.097-0.386-0.097-0.579c-8.989,0-17.784,0-26.772,0
		c0.387,7.828,1.45,15.464,3.963,22.809c4.349,1.354,8.602,2.32,12.951,2.899c0,1.74,0,3.383,0,5.123
		c-3.479-0.677-6.959-1.354-10.438-1.934C72.777,391.345,78.189,398.981,82.442,402.364z M43.782,340.894
		c0.29-0.193,0.483-0.386,0.773-0.676c4.06-4.543,8.892-8.022,14.304-10.632c2.224-1.063,4.35-2.029,6.669-2.996
		c0.097-0.193,0.29-0.483,0.387-0.773c2.319-5.799,5.219-11.308,9.375-15.947c1.45-1.643,3.093-3.093,4.64-4.639
		c0.097-0.097,0.193-0.097,0.289-0.193l-0.096-0.097c-0.097,0.097-0.193,0.097-0.29,0.193c-0.58,0-1.16,0-1.644,0.097
		c-7.731,2.609-14.594,6.669-20.489,12.274s-10.245,12.274-13.048,19.813c-0.387,1.063-0.677,2.223-0.967,3.382
		c-0.097,0.193-0.097,0.387-0.193,0.483c0.097,0,0.097,0,0.193,0C43.685,341.184,43.782,341.087,43.782,340.894z M146.134,340.894
		c0.097,0.193,0.097,0.29,0.193,0.483c0.097,0,0.097-0.097,0.193-0.097c-0.097-0.193-0.193-0.29-0.29-0.483
		c-0.097-0.482-0.193-0.966-0.387-1.449c-2.513-7.829-6.765-14.69-12.564-20.49c-6.282-6.379-13.724-11.018-22.325-13.724
		c-0.387-0.097-0.773-0.193-1.16-0.29c6.959,5.992,11.308,13.531,14.594,21.843c0.483,0.193,0.87,0.387,1.257,0.58
		c5.219,2.029,10.148,4.542,14.4,8.118C142.268,337.029,144.201,339.058,146.134,340.894z M43.782,371.146
		c-0.097-0.193-0.097-0.29-0.193-0.483c-0.097,0-0.097,0.097-0.193,0.097c0.097,0.193,0.193,0.29,0.29,0.483
		c0.097,0.482,0.193,0.966,0.29,1.449c2.513,7.636,6.572,14.305,12.081,20.007c6.089,6.379,13.338,10.921,21.649,13.82
		c0.773,0.29,1.45,0.483,2.224,0.677c-6.959-5.992-11.309-13.628-14.498-21.939c-0.58-0.193-0.966-0.387-1.449-0.58
		c-6.282-2.513-12.178-5.799-17.107-10.534C45.812,373.175,44.845,372.112,43.782,371.146z M146.134,371.146
		c-0.29,0.29-0.676,0.579-0.966,0.966c-3.866,4.35-8.603,7.732-13.821,10.342c-2.223,1.063-4.542,2.029-6.862,3.189
		c-1.546,3.963-3.479,8.021-5.896,11.694s-5.315,7.056-8.988,10.052c0.483,0,0.677,0,0.87,0c8.505-2.706,16.044-7.056,22.423-13.338
		c4.542-4.542,8.312-9.762,10.921-15.657c0.967-2.223,1.644-4.639,2.513-6.958c0.097-0.193,0.097-0.387,0.193-0.58h-0.097
		C146.23,370.856,146.23,370.952,146.134,371.146z M124.291,353.458c0.193-5.605-1.739-17.977-3.962-22.905
		c-6.476-2.32-19.04-4.156-22.81-3.576c0,8.795,0,17.59,0,26.385C106.604,353.458,115.399,353.458,124.291,353.458z M69.394,330.553
		c-2.416,7.538-3.576,15.077-3.866,22.809c9.085,0,17.88,0,26.772,0c0-8.892,0-17.687,0-26.578
		C84.471,326.977,76.837,328.233,69.394,330.553z M126.611,379.071c0.676-0.193,0.966-0.29,1.256-0.483
		c2.126-1.159,4.253-2.223,6.186-3.479c4.35-2.803,8.119-6.282,10.632-11.018c0.869-1.74,1.643-3.479,1.739-5.509
		c-5.605,0-11.211,0-16.816,0C129.317,365.539,128.35,372.208,126.611,379.071z M92.301,304.844
		c-4.156,0.773-7.539,2.609-10.535,5.315c-4.156,3.77-7.152,8.313-9.472,13.338c-0.097,0.29-0.193,0.58-0.387,1.16
		c6.862-1.74,13.531-2.707,20.49-2.899C92.301,316.055,92.301,310.546,92.301,304.844z M126.804,333.162
		c1.546,6.669,2.416,13.435,2.803,20.199c5.605,0,11.211,0,16.72,0c-0.193-2.706-1.256-4.929-2.609-7.055
		C139.755,339.928,133.666,336.158,126.804,333.162z M43.685,358.678c0,0.387,0,0.579,0,0.772c0,0.29,0.097,0.58,0.193,0.87
		c0.967,3.77,2.996,6.862,5.605,9.568c3.576,3.77,8.022,6.476,12.661,8.795c0.29,0.193,0.677,0.193,1.354,0.387
		c-1.74-6.862-2.706-13.531-2.996-20.393C54.801,358.678,49.291,358.678,43.685,358.678z M118.105,324.464
		c-0.193-0.58-0.29-0.87-0.483-1.257c-1.546-3.286-3.382-6.379-5.702-9.182c-2.706-3.286-5.799-6.089-9.762-7.828
		c-1.449-0.58-2.899-1.257-4.542-1.16c0,5.605,0,11.114,0,16.527c3.479,0.289,6.862,0.482,10.245,0.966
		S114.529,323.787,118.105,324.464z M63.305,333.162c-0.097-0.097-0.193-0.193-0.29-0.193c-1.546,0.87-3.189,1.546-4.735,2.513
		c-4.833,2.803-9.086,6.089-12.082,10.922c-1.353,2.126-2.319,4.349-2.609,6.958c5.605,0,11.115,0,16.817,0
		C60.696,346.5,61.662,339.831,63.305,333.162z"/>
	<path fill="#BD2127" d="M214.271,359.74c1.74,0,3.286,0,4.93,0c1.546,7.346,2.803,14.691,4.349,21.939c0.193,0,0.387,0,0.58,0
		c1.354-7.345,2.706-14.594,4.06-21.939c1.449,0,2.899,0,4.639,0c-1.836,8.892-3.672,17.688-5.509,26.676c-2.223,0-4.445,0-6.862,0
		c-1.159-6.089-2.319-12.274-3.382-18.363c-0.097,0-0.29,0-0.387,0c-1.063,6.089-2.224,12.178-3.383,18.363
		c-2.224,0-4.446,0-6.862,0c-1.836-8.795-3.673-17.591-5.605-26.579c1.546,0,3.093,0,4.639,0c1.354,7.346,2.706,14.595,4.06,21.939
		c0.097,0,0.29,0,0.387,0c0.773-1.256,0.677-2.803,0.967-4.252c0.386-1.45,0.579-2.899,0.772-4.35c0.29-1.546,0.58-2.996,0.87-4.446
		c0.29-1.449,0.483-2.899,0.773-4.349C213.595,362.833,213.885,361.384,214.271,359.74z"/>
	<path fill="#BD2127" d="M405.734,440.733c1.449,0,2.803,0,4.253,0c0,8.892,0,17.784,0,26.676c-2.224,0-4.446,0-6.766,0
		c-2.803-6.959-5.51-14.015-8.313-20.974c-0.193,0-0.29,0-0.29,0s-0.097,0-0.097,0.097c0,0.193-0.096,0.29-0.096,0.483
		c0,6.766,0,13.531,0,20.394c-1.45,0-2.804,0-4.253,0c0-8.795,0-17.688,0-26.579c2.319,0,4.542,0,7.056,0
		c2.609,6.959,5.315,13.918,8.021,20.877c0.097,0,0.29,0,0.387,0c0.29-1.354,0.097-2.707,0.097-4.06c0-1.45,0-2.803,0-4.253
		c0-1.353,0-2.706,0-4.059c0-1.45,0-2.804,0-4.253C405.734,443.632,405.734,442.28,405.734,440.733z"/>
	<path fill="#BD2127" d="M278.35,386.416c-1.74,0-3.286,0-4.833,0c-1.159-2.996-2.319-5.992-3.479-8.988c-1.836,0-3.575,0-5.412,0
		c0,2.996,0,5.896,0,8.892c-1.546,0-2.996,0-4.445,0c0-8.795,0-17.688,0-26.772c0.966,0,1.836,0,2.706,0
		c2.513,0,5.122,0,7.635,0.097c0.483,0,1.063,0.097,1.547,0.193c3.673,0.58,5.702,2.513,6.186,6.186c0.193,1.45,0.193,2.996,0,4.446
		c-0.29,2.416-1.547,4.349-3.77,5.605C275.741,379.554,276.997,382.937,278.35,386.416z M264.626,372.885c1.74,0,3.286-0.097,4.93,0
		c2.223,0.097,3.962-0.773,4.252-3.963c0.097-0.676-0.097-1.449-0.193-2.126c-0.29-1.45-1.159-2.319-2.609-2.513
		c-2.029-0.193-4.156-0.193-6.282-0.29C264.626,366.99,264.626,369.792,264.626,372.885z"/>
	<path fill="#BD2127" d="M372.873,416.571c0.677,1.836,1.354,3.479,2.03,5.219c0.677,1.644,1.256,3.383,1.933,5.123
		c-1.643,0-3.189,0-4.832,0c-1.16-2.899-2.32-5.896-3.479-8.988c-1.837,0-3.576,0-5.509,0c0,2.996,0,5.896,0,8.988
		c-1.45,0-2.803,0-4.253,0c0-8.892,0-17.688,0-26.772c0.773,0,1.45,0,2.223,0c3.286,0.097,6.572,0,9.858,0.29
		s5.122,2.127,5.702,5.316c0.29,1.836,0.29,3.769,0.097,5.605C376.352,413.671,375,415.314,372.873,416.571z M363.015,413.381
		c2.126,0,4.155,0.097,6.186,0c1.739-0.097,2.803-1.546,3.093-3.673c0.29-2.319-0.58-4.155-2.127-4.735
		c-0.097,0-0.193-0.097-0.29-0.097c-2.223-0.483-4.445-0.193-6.668-0.29C363.015,407.679,363.015,410.482,363.015,413.381z"/>
	<path fill="#BD2127" d="M300.967,386.416c0-8.988,0-17.784,0-26.772c4.059,0,8.118-0.387,12.081,0.387
		c2.899,0.58,5.025,2.319,5.799,5.315c0.387,1.547,0.773,3.189,0.87,4.833c0.192,3.093,0.096,6.089-0.483,9.182
		c-0.967,4.64-3.963,7.056-8.796,7.152c-2.996,0-5.896,0-8.892,0C301.352,386.513,301.256,386.416,300.967,386.416z
		 M305.315,363.993c0,6.186,0,12.081,0,18.073c1.45,0,2.899,0,4.35,0c2.706,0,4.445-1.256,5.025-3.866
		c0.773-3.479,0.773-7.055,0-10.631c-0.387-1.837-1.643-3.093-3.673-3.286C309.181,364.09,307.345,364.09,305.315,363.993z"/>
	<path fill="#BD2127" d="M255.831,373.465c0,2.513-0.193,5.122-0.967,7.635c-1.159,3.479-3.769,5.51-7.441,5.703
		c-1.837,0.097-3.77,0-5.605-0.387c-2.417-0.387-4.156-1.934-5.026-4.156c-0.58-1.354-1.063-2.899-1.256-4.35
		c-0.483-3.575-0.483-7.248,0.289-10.824c0.29-1.45,0.87-2.803,1.547-4.06c0.87-1.643,2.416-2.706,4.253-3.189
		c2.513-0.772,5.025-0.772,7.538-0.097c2.899,0.773,4.736,2.803,5.605,5.605C255.637,367.956,255.831,370.662,255.831,373.465z
		 M251.385,373.272c-0.193-2.126-0.193-4.35-0.967-6.379c-0.58-1.547-1.547-2.513-3.189-2.996c-2.996-0.677-6.379,0.193-6.959,4.35
		c-0.387,2.706-0.29,5.509-0.29,8.312c0,0.773,0.29,1.546,0.483,2.319c0.773,2.609,2.416,3.576,5.412,3.479
		c2.706-0.097,4.35-1.257,4.833-3.77C251.095,376.848,251.192,375.011,251.385,373.272z"/>
	<path fill="#BD2127" d="M365.238,454.167c-0.097-2.513,0.193-5.122,0.967-7.636c1.256-3.962,3.962-6.089,8.118-6.186
		c1.45,0,2.996,0.097,4.35,0.29c2.416,0.387,4.252,1.837,5.315,4.06c0.483,1.063,0.967,2.223,1.16,3.383
		c0.772,4.06,0.772,8.215,0,12.274c-0.967,4.929-3.963,7.442-8.989,7.442c-1.256,0-2.513,0-3.672-0.193
		c-3.383-0.58-5.413-2.609-6.379-5.799C365.335,459.289,365.141,456.777,365.238,454.167z M369.588,454.264
		c0.192,1.836,0.289,3.576,0.676,5.412c0.193,1.257,0.87,2.416,2.127,3.093c3.575,2.03,7.828,0.193,8.408-3.866
		c0.387-2.609,0.29-5.315,0.29-7.925c0-1.16-0.483-2.416-0.87-3.576c-0.387-1.063-1.16-1.739-2.223-2.223
		c-3.383-1.547-6.862,0.097-7.636,3.673C369.877,450.591,369.877,452.428,369.588,454.264z"/>
	<path fill="#BD2127" d="M262.403,454.361c-0.097-2.706,0.097-5.315,0.967-7.829c1.256-4.059,4.059-6.186,8.312-6.282
		c1.45,0,2.803,0.097,4.253,0.29c2.609,0.483,4.445,1.934,5.509,4.35c0.483,0.967,0.87,2.029,1.063,3.093
		c0.772,4.06,0.869,8.215,0,12.274c-0.29,1.45-0.967,2.899-1.644,4.253c-0.967,1.643-2.513,2.609-4.35,2.996
		c-2.513,0.579-5.122,0.579-7.538-0.097c-2.803-0.773-4.543-2.706-5.412-5.413C262.5,459.483,262.306,456.873,262.403,454.361z
		 M266.849,454.264c0.192,1.836,0.386,3.576,0.676,5.412c0.193,1.16,0.773,2.223,1.837,2.899c3.383,2.32,8.021,0.483,8.602-3.479
		c0.387-2.706,0.29-5.412,0.29-8.118c0-1.16-0.483-2.416-0.967-3.576c-0.387-1.063-1.159-1.739-2.223-2.223
		c-3.383-1.45-6.862,0.193-7.636,3.77C267.042,450.591,267.042,452.428,266.849,454.264z"/>
	<path fill="#BD2127" d="M298.84,410.965c0-3.576,0-7.152,0-10.729c1.547,0,2.899,0,4.446,0c0,8.892,0,17.688,0,26.676
		c-1.354,0-2.803,0-4.35,0c0-3.673,0-7.346,0-11.115c-3.576,0-6.862,0-10.341,0c0,3.673,0,7.346,0,11.212c-1.547,0-2.9,0-4.35,0
		c0-8.892,0-17.688,0-26.676c1.353,0,2.803,0,4.253,0c0,3.576,0,7.056,0,10.729C291.977,410.965,295.36,410.965,298.84,410.965z"/>
	<path fill="#BD2127" d="M320.682,440.733c2.899,0,5.605,0,8.602,0c2.03,8.892,3.963,17.688,5.993,26.676c-1.547,0-2.9,0-4.446,0
		c-0.483-1.644-0.87-3.286-1.354-5.026c-3.093,0-5.992,0-9.085,0c-0.387,1.644-0.869,3.383-1.256,5.026c-1.45,0-2.899,0-4.446,0
		C316.72,458.517,318.653,449.721,320.682,440.733z M324.162,445.082c-0.87,4.253-2.029,8.408-2.706,12.661c2.416,0,4.735,0,7.152,0
		c-0.967-4.253-1.837-8.408-2.706-12.661C325.225,445.082,324.742,445.082,324.162,445.082z"/>
	<path fill="#BD2127" d="M331.411,421.789c-3.093,0-5.992,0-9.085,0c-0.387,1.644-0.87,3.383-1.257,5.123c-1.449,0-2.803,0-4.445,0
		c2.029-8.988,4.059-17.784,6.089-26.676c2.899,0,5.605,0,8.602,0c2.029,8.892,3.963,17.688,5.992,26.676c-1.45,0-2.899,0-4.446,0
		C332.377,425.269,331.894,423.53,331.411,421.789z M326.094,404.49c-0.966,4.253-1.836,8.312-2.803,12.564c2.417,0,4.736,0,7.249,0
		c-0.967-4.253-1.836-8.408-2.706-12.564C327.158,404.49,326.771,404.49,326.094,404.49z"/>
	<path fill="#BD2127" d="M215.238,462.285c-2.996,0-5.896,0-8.988,0c-0.387,1.644-0.87,3.286-1.354,5.123c-1.353,0-2.706,0-4.349,0
		c1.933-8.892,3.963-17.688,5.992-26.676c2.899,0,5.702,0,8.602,0c1.934,8.892,3.963,17.688,5.992,26.676c-1.546,0-2.899,0-4.445,0
		C216.205,465.765,215.721,464.122,215.238,462.285z M211.662,444.986c-0.677,0-1.159,0.097-1.643,0.097
		c-0.967,4.253-1.837,8.408-2.803,12.564c2.513,0,4.832,0,7.248,0C213.499,453.394,212.532,449.335,211.662,444.986z"/>
	<path fill="#BD2127" d="M202.577,400.043c3.963,0.097,7.829,0.097,11.694,0.483c2.996,0.29,4.93,2.224,5.703,5.123
		c0.676,2.513,0.676,5.122-0.097,7.731c-0.967,3.479-3.576,5.509-7.249,5.605c-1.836,0.097-3.673,0-5.702,0c0,2.706,0,5.316,0,8.022
		c-1.547,0-2.899,0-4.446,0C202.577,418.021,202.577,409.225,202.577,400.043z M206.927,414.348c1.933,0,3.77,0.097,5.605,0
		c1.45-0.097,2.416-1.063,2.899-2.513c0.483-1.547,0.58-3.093,0.097-4.64c-0.387-1.16-1.063-2.029-2.319-2.319
		c-2.127-0.483-4.253-0.29-6.379-0.29C206.927,407.969,206.927,411.158,206.927,414.348z"/>
	<path fill="#BD2127" d="M223.646,466.828c0.193-1.45,0.29-2.706,0.387-4.06c1.74,0.193,3.479,0.387,5.123,0.483
		c1.449,0.097,2.803,0.097,4.252-0.193c1.45-0.193,2.127-1.16,2.32-2.803c0.192-1.354-0.29-2.513-1.547-3.093
		c-1.16-0.483-2.319-0.87-3.479-1.257c-1.353-0.482-2.706-0.869-3.963-1.546c-2.319-1.16-3.575-3.093-3.575-5.702
		c0-0.967,0-1.934,0.192-2.899c0.677-3.286,3.286-5.316,7.056-5.51c1.16-0.097,2.416-0.097,3.576,0
		c1.836,0.193,3.576,0.483,5.509,0.773c0.193,1.45,0.097,2.803-0.29,4.253c-1.739-0.193-3.286-0.387-4.929-0.483
		c-1.547,0-3.093,0-4.543,0.193c-1.159,0.193-1.933,1.063-2.029,2.416c-0.097,1.354,0.29,2.513,1.644,3.093
		c1.159,0.483,2.416,0.87,3.672,1.354c1.257,0.483,2.61,0.869,3.77,1.449c2.029,0.87,3.189,2.513,3.479,4.736
		c0.097,1.159,0.097,2.416-0.097,3.576c-0.58,3.575-2.706,5.702-6.282,6.186C230.315,468.181,227.029,467.602,223.646,466.828z"/>
	<path fill="#BD2127" d="M223.453,426.429c0.097-1.354,0.29-2.706,0.387-4.06c1.644,0.193,3.189,0.387,4.64,0.483
		c1.449,0.097,2.996,0.097,4.349-0.097c1.644-0.29,2.32-1.16,2.514-2.803s-0.387-2.706-1.934-3.383
		c-1.063-0.483-2.126-0.677-3.189-1.063c-1.353-0.482-2.803-0.966-4.059-1.643c-1.74-0.87-2.899-2.223-3.093-4.156
		c-0.193-1.353-0.29-2.706-0.097-4.059c0.579-3.383,3.189-5.51,6.958-5.8c3.093-0.289,6.089,0.29,9.278,0.87
		c-0.097,1.354-0.193,2.706-0.193,4.156c-1.836-0.193-3.575-0.387-5.219-0.483c-1.449-0.097-2.899,0-4.349,0.193
		c-1.257,0.193-2.03,1.063-2.127,2.319c-0.193,1.45,0.193,2.513,1.547,3.093c1.159,0.58,2.416,0.967,3.673,1.354
		c1.449,0.58,2.899,1.063,4.252,1.643c1.644,0.773,2.706,2.223,2.996,4.06c0.29,1.836,0.29,3.77-0.387,5.509
		c-1.063,2.899-3.383,4.35-6.379,4.64C229.832,427.685,226.739,427.009,223.453,426.429z"/>
	<path fill="#BD2127" d="M243.17,466.828c0.193-1.45,0.29-2.706,0.387-4.06c1.643,0.193,3.286,0.387,4.929,0.483
		c1.547,0.097,2.996,0,4.543-0.193c1.354-0.193,1.933-1.256,2.126-2.513c0.193-1.354-0.097-2.609-1.449-3.286
		c-0.773-0.387-1.644-0.677-2.513-0.967c-1.16-0.387-2.417-0.676-3.576-1.159c-4.06-1.547-5.702-4.64-4.93-8.892
		c0.58-3.383,3.093-5.51,6.766-5.896c2.513-0.289,6.669,0.097,9.568,0.967c-0.097,1.257-0.193,2.609-0.193,4.06
		c-1.739-0.193-3.286-0.387-4.832-0.483c-1.547,0-3.189,0-4.736,0.193c-1.256,0.193-2.029,1.063-2.126,2.319
		c-0.193,1.354,0.29,2.513,1.546,3.093c1.257,0.58,2.514,0.967,3.77,1.45c1.354,0.483,2.706,1.063,4.06,1.643
		c1.836,0.773,2.803,2.319,2.996,4.253c0.097,1.643,0.097,3.479-0.29,5.025c-0.773,3.093-3.189,4.543-6.282,4.93
		C249.645,468.181,246.456,467.602,243.17,466.828z"/>
	<path fill="#BD2127" d="M279.896,404.78c-1.933-0.193-3.769-0.387-5.605-0.483c-0.967,0-2.029,0-2.996,0.193
		c-1.643,0.29-2.513,1.546-2.803,3.093c-0.677,2.706-0.773,5.509-0.58,8.312c0.097,1.257,0.29,2.609,0.58,3.866
		c0.387,1.643,1.45,2.706,3.189,2.899c1.257,0.193,2.513,0.193,3.673,0.097c1.449-0.097,2.899-0.29,4.542-0.483
		c0,1.45,0,2.706,0,4.156c-3.383,0.677-6.669,1.353-10.147,0.677c-2.707-0.58-4.446-2.224-5.316-4.736
		c-0.387-1.256-0.676-2.609-0.869-3.963c-0.387-4.059-0.483-8.118,0.482-12.178c0.967-4.155,3.479-6.282,7.829-6.379
		c1.063,0,2.029,0,3.093,0.097c1.643,0.193,3.383,0.58,5.025,0.87C279.896,402.073,279.896,403.426,279.896,404.78z"/>
	<path fill="#BD2127" d="M302.706,441.216c0,1.547,0,2.706,0,4.06c-1.836-0.193-3.479-0.29-5.122-0.483
		c-0.483,0-1.063-0.097-1.547-0.097c-3.189,0.097-4.639,1.45-5.122,4.543c-0.483,3.189-0.483,6.475,0,9.664
		c0.483,2.996,1.933,4.35,5.025,4.35c1.644,0,3.383-0.29,5.026-0.387c0.482,0,0.966-0.097,1.643-0.193c0,1.45,0,2.706,0,4.156
		c-1.353,0.193-2.706,0.58-4.156,0.677c-1.643,0.097-3.382,0.29-5.122,0.097c-3.673-0.387-5.896-2.514-6.669-6.476
		c-0.966-4.93-0.966-9.955,0.193-14.884c0.967-4.06,3.576-6.09,7.829-6.186c1.256,0,2.609,0,3.865,0.192
		C299.903,440.636,301.256,440.926,302.706,441.216z"/>
	<path fill="#BD2127" d="M406.508,400.817c-0.097,1.45-0.097,2.609-0.193,3.963c-1.934-0.193-3.866-0.387-5.799-0.483
		c-1.063,0-2.127,0.097-3.189,0.387c-1.16,0.29-1.837,1.159-2.224,2.223c-0.29,0.58-0.387,1.257-0.483,1.934
		c-0.386,3.285-0.579,6.668,0.097,9.954c0.483,2.803,1.934,3.963,4.833,4.06c1.836,0,3.77-0.29,5.605-0.483
		c0.29,0,0.677-0.097,1.16-0.193c0,1.354,0,2.706,0,4.156c-3.093,0.773-6.379,1.257-9.665,0.773
		c-3.093-0.483-5.026-2.417-5.896-5.413c-0.773-2.609-0.967-5.219-0.967-7.925c0-2.803,0.097-5.702,0.967-8.408
		c0.966-3.479,3.286-5.316,6.862-5.703C400.515,399.561,403.511,400.043,406.508,400.817z"/>
	<path fill="#BD2127" d="M256.411,400.237c1.643,0,3.093,0,4.832,0c-0.193,0.387-0.29,0.87-0.483,1.16
		c-2.126,4.35-4.252,8.602-6.475,12.854c-0.483,0.87-0.677,1.739-0.677,2.803c0,3.189,0,6.476,0,9.858c-1.547,0-2.899,0-4.543,0
		c0-2.127-0.193-4.253,0-6.282c0.29-3.576-0.58-6.766-2.416-9.858c-1.836-3.189-3.383-6.572-5.025-9.762
		c-0.097-0.193-0.097-0.387-0.29-0.677c1.643,0,3.093,0,4.832,0c1.547,3.093,3.189,6.379,5.026,9.955
		C253.221,406.615,254.864,403.426,256.411,400.237z"/>
	<path fill="#BD2127" d="M342.719,445.082c-2.416,0-4.639,0-6.959,0c0-1.547,0-2.899,0-4.35c6.089,0,12.178,0,18.363,0
		c0,1.354,0,2.803,0,4.35c-2.223,0-4.445,0-6.861,0c0,7.538,0,14.884,0,22.326c-1.547,0-2.899,0-4.446,0
		C342.719,460.063,342.719,452.62,342.719,445.082z"/>
	<path fill="#BD2127" d="M344.749,426.912c0-7.442,0-14.788,0-22.326c-2.32,0-4.64,0-6.959,0c0-1.547,0-2.803,0-4.35
		c6.089,0,12.081,0,18.363,0c0,0.677,0,1.354,0,2.03c0,0.676,0,1.353,0,2.223c-2.319,0-4.64,0-6.959,0c0,7.538,0,14.884,0,22.326
		C347.745,426.912,346.295,426.912,344.749,426.912z"/>
	<path fill="#BD2127" d="M282.892,359.644c1.45,0,2.706,0,4.253,0c0,7.442,0,14.788,0,22.326c3.383,0,6.572,0,9.858,0
		c0,1.45,0,2.803,0,4.156c-1.16,0.387-9.955,0.483-14.111,0.193C282.892,377.525,282.892,368.632,282.892,359.644z"/>
	<path fill="#BD2127" d="M306.862,440.733c1.449,0,2.803,0,4.349,0c0,8.892,0,17.688,0,26.676c-1.449,0-2.803,0-4.349,0
		C306.862,458.517,306.862,449.721,306.862,440.733z"/>
	<path fill="#BD2127" d="M313.048,426.912c-1.354,0-2.706,0-4.156,0c0-8.892,0-17.688,0-26.676c1.354,0,2.706,0,4.156,0
		C313.048,409.128,313.048,418.021,313.048,426.912z"/>
	<path fill="#BD2127" d="M360.888,467.408c-1.449,0-2.803,0-4.252,0c0-8.892,0-17.688,0-26.772c0.772,0,1.449,0,2.223,0
		c0.677,0,1.354,0,2.029,0C360.888,449.624,360.888,458.517,360.888,467.408z"/>
	<path fill="#BD2127" d="M385.437,426.912c-1.449,0-2.803,0-4.252,0c0-8.892,0-17.784,0-26.676c1.353,0,2.706,0,4.059,0
		C385.631,401.493,385.824,421.983,385.437,426.912z"/>
</g>
<g>
	<polygon fill="#B2D235" points="450.193,293.536 450.193,342.827 461.791,342.827 461.791,305.134 499.484,305.134 
		499.484,293.536 	"/>
	<path fill="#231F20" d="M998.485,373.658c0.772,0.193,1.643,0.387,2.609,0.58c0.966,0.193,2.126,0.29,3.189,0.29
		c1.933,0,3.575-0.193,4.929-0.58s2.513-0.87,3.383-1.644c0.87-0.772,1.45-1.643,1.934-2.706c0.386-1.063,0.579-2.416,0.579-3.866
		c0-1.159-0.193-2.223-0.483-3.093c-0.289-0.869-0.772-1.546-1.449-2.223c-0.677-0.58-1.547-1.16-2.609-1.643
		c-1.063-0.483-2.416-0.87-3.963-1.354c-1.063-0.29-1.933-0.58-2.609-0.87c-0.773-0.29-1.354-0.579-1.74-0.966
		c-0.482-0.387-0.772-0.773-0.966-1.354c-0.193-0.483-0.29-1.16-0.29-1.933c0-0.677,0.097-1.257,0.29-1.74s0.483-0.869,0.966-1.256
		c0.483-0.29,1.063-0.58,1.74-0.773s1.547-0.193,2.609-0.193c0.967,0,1.836,0.097,2.513,0.29c0.773,0.193,1.354,0.387,1.837,0.677
		c0.58,0.29,1.063,0.579,1.546,0.869c0.387-0.579,0.677-1.063,0.87-1.546s0.387-0.87,0.483-1.257s0.193-0.772,0.29-1.159
		c-0.58-0.387-1.16-0.677-1.934-0.87c-0.676-0.193-1.449-0.387-2.319-0.58s-2.029-0.29-3.189-0.29c-1.546,0-2.996,0.193-4.253,0.483
		c-1.256,0.29-2.416,0.87-3.286,1.547c-0.869,0.676-1.643,1.546-2.126,2.609c-0.483,1.063-0.773,2.416-0.773,3.865
		c0,1.063,0.193,2.03,0.483,2.804c0.29,0.869,0.773,1.546,1.547,2.223c0.676,0.677,1.643,1.256,2.706,1.739
		c1.063,0.483,2.513,0.967,4.059,1.354c0.967,0.29,1.74,0.483,2.417,0.773s1.256,0.579,1.643,0.966s0.773,0.87,0.967,1.354
		s0.29,1.159,0.29,1.933c0,0.677-0.097,1.257-0.29,1.74s-0.58,0.869-1.063,1.256c-0.483,0.29-1.063,0.58-1.933,0.773
		s-1.74,0.29-2.899,0.29c-0.773,0-1.547-0.097-2.416-0.193c-0.87-0.097-1.644-0.29-2.32-0.483c-0.773-0.193-1.643-0.387-2.416-0.677
		c-0.29,0.58-0.483,1.063-0.58,1.547s-0.193,0.87-0.29,1.257c-0.097,0.386-0.097,0.772-0.193,1.159
		C996.745,373.175,997.615,373.465,998.485,373.658 M973.84,373.658c0.772,0.193,1.643,0.387,2.609,0.58s2.126,0.29,3.189,0.29
		c1.933,0,3.576-0.193,4.929-0.58c1.354-0.387,2.513-0.87,3.383-1.644c0.87-0.772,1.45-1.643,1.933-2.706
		c0.387-1.063,0.58-2.416,0.58-3.866c0-1.159-0.193-2.223-0.483-3.093c-0.29-0.869-0.772-1.546-1.449-2.223s-1.547-1.16-2.609-1.643
		c-1.063-0.483-2.417-0.87-3.963-1.354c-1.063-0.29-1.933-0.58-2.609-0.87c-0.773-0.29-1.354-0.579-1.74-0.966
		c-0.483-0.387-0.772-0.773-0.966-1.354c-0.193-0.483-0.29-1.16-0.29-1.933c0-0.677,0.097-1.257,0.29-1.74s0.482-0.869,0.966-1.256
		c0.483-0.29,1.063-0.58,1.74-0.773s1.546-0.193,2.609-0.193c0.967,0,1.836,0.097,2.513,0.29c0.773,0.193,1.354,0.387,1.836,0.677
		c0.58,0.29,1.063,0.579,1.547,0.869c0.387-0.579,0.677-1.063,0.87-1.546s0.387-0.87,0.483-1.257
		c0.096-0.387,0.193-0.772,0.289-1.159c-0.579-0.387-1.159-0.677-1.933-0.87c-0.677-0.193-1.45-0.387-2.319-0.58
		c-0.87-0.193-2.029-0.29-3.189-0.29c-1.547,0-2.996,0.193-4.253,0.483c-1.256,0.29-2.416,0.87-3.286,1.547
		c-0.869,0.676-1.643,1.546-2.126,2.609c-0.483,1.063-0.773,2.416-0.773,3.865c0,1.063,0.193,2.03,0.483,2.804
		c0.29,0.869,0.773,1.546,1.547,2.223c0.676,0.677,1.643,1.256,2.706,1.739c1.063,0.483,2.513,0.967,4.059,1.354
		c0.967,0.29,1.74,0.483,2.417,0.773c0.676,0.29,1.256,0.579,1.643,0.966s0.773,0.87,0.967,1.354s0.29,1.159,0.29,1.933
		c0,0.677-0.097,1.257-0.29,1.74s-0.58,0.869-1.063,1.256c-0.483,0.29-1.063,0.58-1.933,0.773c-0.773,0.193-1.74,0.29-2.899,0.29
		c-0.773,0-1.547-0.097-2.417-0.193c-0.869-0.097-1.643-0.29-2.319-0.483c-0.87-0.193-1.643-0.387-2.416-0.677
		c-0.29,0.58-0.483,1.063-0.58,1.547s-0.193,0.87-0.29,1.257c-0.097,0.386-0.097,0.772-0.193,1.159
		C972.099,373.175,972.969,373.465,973.84,373.658 M949.193,374.432h17.011c0.193-0.58,0.29-1.063,0.29-1.547s0.097-0.87,0.097-1.16
		c0-0.192,0-0.289,0-0.482s0-0.29,0-0.387s0-0.29,0-0.387h-4.253h-3.963h-4.059v-9.665h1.256h1.547h1.643h1.644h3.962
		c0.098-0.193,0.193-0.387,0.193-0.677c0.097-0.29,0.097-0.483,0.193-0.773c0.097-0.289,0.097-0.482,0.097-0.676s0-0.387,0-0.387
		c0-0.193,0-0.29,0-0.483s0-0.29,0-0.387s0-0.29,0-0.387h-3.962h-1.74h-1.739h-1.644h-1.449v-8.698h3.963h3.672h3.77
		c0.29-0.58,0.58-1.16,0.58-1.643c0.097-0.483,0.097-0.87,0.097-1.063s0-0.29,0-0.387s0-0.193,0-0.387c0-0.097,0-0.193,0-0.29
		H949.29v29.865H949.193z M928.027,348.433h4.833c1.546,0,2.706,0.387,3.479,1.257c0.869,0.772,1.256,2.029,1.256,3.479
		c0,1.74-0.483,3.093-1.353,3.866c-0.87,0.87-2.32,1.257-4.156,1.257h-1.257h-1.256c-0.387,0-0.677,0-0.967,0
		s-0.483-0.097-0.677-0.097v-9.762H928.027z M923.292,374.432h4.832v-12.661c0.483,0.097,0.87,0.097,1.354,0.193
		c0.387,0,0.87,0.097,1.256,0.097c0.483,0,0.87,0.097,1.354,0.097h0.29l6.572,12.371h5.315c-0.58-1.063-1.159-2.127-1.739-3.189
		c-0.677-1.063-1.257-2.224-1.934-3.286c-0.676-1.063-1.256-2.224-1.933-3.286c-0.677-1.063-1.257-2.224-1.739-3.286
		c0.966-0.387,1.933-0.773,2.609-1.354c0.772-0.58,1.353-1.159,1.836-1.933c0.483-0.677,0.87-1.45,1.063-2.319
		c0.193-0.87,0.387-1.74,0.387-2.707c0-1.256-0.193-2.416-0.58-3.479c-0.387-1.063-0.967-1.934-1.74-2.707
		c-0.772-0.772-1.739-1.353-2.803-1.739c-1.159-0.387-2.416-0.58-3.866-0.58h-10.438v29.769H923.292z M895.65,366.216
		c0.58,1.837,1.546,3.383,2.706,4.64c1.159,1.256,2.609,2.126,4.349,2.803c1.74,0.58,3.673,0.967,5.896,0.967h2.609
		c0.869,0,1.643,0,2.416-0.097s1.643-0.193,2.416-0.29l0.387-0.29c0-1.16,0.097-2.513,0.097-3.866c0-1.16,0.097-2.513,0.097-4.06
		c0-1.546,0-3.093,0-4.832c-0.29-0.097-0.483-0.097-0.773-0.193c-0.29,0-0.483-0.097-0.87-0.097c-0.289,0-0.579-0.097-0.869-0.097
		s-0.677,0-1.063,0.097c-0.387,0-0.87,0.097-1.449,0.29c0,1.159,0.096,2.319,0.193,3.479c0,0.483,0,0.966,0.096,1.546
		c0,0.58,0,1.063,0.097,1.644c0,0.58,0,1.063,0,1.546s0,0.967,0,1.45c-0.193,0-0.482,0-0.772,0h-0.87h-0.87h-0.772
		c-1.45,0-2.707-0.29-3.77-0.773c-1.063-0.483-2.03-1.16-2.803-2.126c-0.773-0.967-1.354-2.03-1.74-3.383
		c-0.387-1.354-0.58-2.899-0.58-4.543c0-1.739,0.193-3.286,0.58-4.639c0.387-1.354,0.967-2.609,1.74-3.576
		c0.772-0.967,1.643-1.74,2.803-2.319c1.063-0.483,2.319-0.773,3.673-0.773c0.772,0,1.546,0.097,2.319,0.193s1.449,0.29,2.029,0.387
		c0.677,0.193,1.354,0.387,1.933,0.579c0.29-0.482,0.483-0.966,0.58-1.449c0.193-0.483,0.29-0.87,0.29-1.257
		c0.097-0.387,0.193-0.772,0.193-1.159c-0.773-0.193-1.643-0.387-2.416-0.58s-1.547-0.29-2.416-0.387
		c-0.87-0.097-1.74-0.193-2.61-0.193c-2.223,0-4.252,0.387-5.896,1.063c-1.739,0.677-3.188,1.643-4.349,2.996
		c-1.16,1.256-2.029,2.899-2.706,4.735c-0.58,1.934-0.87,4.06-0.87,6.476S895.07,364.38,895.65,366.216 M866.462,374.432h4.736
		l-0.193-18.653l-0.29-8.603l2.996,8.603l7.731,18.653h7.732v-29.769h-4.736l0.193,18.653l0.29,8.505l-2.996-8.505l-7.538-18.653
		h-7.926V374.432z M844.522,369.889c-0.967-0.483-1.739-1.257-2.319-2.126c-0.58-0.967-0.967-2.127-1.257-3.479
		c-0.29-1.354-0.387-2.996-0.387-4.736c0-1.739,0.097-3.286,0.387-4.735c0.29-1.354,0.677-2.513,1.257-3.479
		s1.353-1.643,2.319-2.223c0.967-0.483,2.126-0.773,3.479-0.773s2.513,0.193,3.479,0.677c0.967,0.387,1.643,1.063,2.223,1.933
		s0.967,2.029,1.257,3.383s0.387,2.899,0.387,4.736c0,1.739-0.097,3.285-0.387,4.639c-0.29,1.45-0.677,2.609-1.257,3.673
		c-0.58,0.967-1.353,1.836-2.223,2.319c-0.967,0.58-2.126,0.87-3.479,0.87S845.489,370.372,844.522,369.889 M853.607,373.368
		c1.547-0.773,2.803-1.739,3.77-3.093s1.74-2.899,2.223-4.833c0.483-1.933,0.677-3.962,0.677-6.282c0-2.319-0.193-4.349-0.677-6.186
		c-0.482-1.836-1.159-3.285-2.126-4.542s-2.223-2.223-3.77-2.803c-1.546-0.677-3.479-0.967-5.702-0.967
		c-2.126,0-3.963,0.387-5.605,1.063c-1.547,0.677-2.899,1.643-3.866,2.996c-1.063,1.256-1.739,2.899-2.223,4.735
		c-0.483,1.837-0.773,3.963-0.773,6.282c0,2.32,0.193,4.446,0.677,6.282c0.483,1.837,1.159,3.383,2.223,4.736
		c0.967,1.256,2.319,2.319,3.866,2.996c1.546,0.677,3.479,1.063,5.702,1.063C850.224,374.529,852.061,374.142,853.607,373.368
		 M813.885,370.759c2.223,2.513,5.605,3.673,10.052,3.673c0.87,0,1.739-0.097,2.513-0.193c0.87-0.097,1.546-0.29,2.223-0.387
		c0.773-0.193,1.547-0.387,2.223-0.58c0-0.58,0-1.16-0.096-1.643c-0.097-0.483-0.193-0.87-0.29-1.257s-0.29-0.773-0.387-1.063
		c-0.58,0.193-1.16,0.387-1.837,0.58c-0.58,0.097-1.256,0.29-1.933,0.387c-0.773,0.097-1.547,0.193-2.319,0.193
		c-1.257,0-2.514-0.193-3.479-0.677c-0.967-0.483-1.934-1.16-2.706-2.029c-0.773-0.87-1.354-2.03-1.74-3.286
		c-0.387-1.354-0.58-2.899-0.58-4.64c0-1.739,0.193-3.286,0.58-4.735c0.387-1.354,0.967-2.513,1.74-3.479
		c0.772-0.967,1.643-1.644,2.706-2.223c1.063-0.58,2.223-0.773,3.479-0.773c0.772,0,1.546,0.097,2.319,0.193
		c0.677,0.097,1.353,0.29,1.933,0.483c0.677,0.193,1.257,0.387,1.74,0.676c0.29-0.579,0.483-1.063,0.58-1.546
		c0.193-0.483,0.289-0.967,0.386-1.354c0.097-0.482,0.193-0.869,0.193-1.256c-0.772-0.193-1.449-0.387-2.319-0.58
		c-0.677-0.193-1.449-0.29-2.319-0.387s-1.644-0.193-2.513-0.193c-2.127,0-4.06,0.387-5.799,1.063
		c-1.644,0.677-3.094,1.643-4.253,2.996c-1.16,1.256-2.03,2.899-2.609,4.735c-0.58,1.934-0.87,4.06-0.87,6.476
		C810.502,364.67,811.662,368.343,813.885,370.759 M776.675,374.432h15.851c0,0,0.097-0.193,0.193-0.58s0.193-0.773,0.29-1.257
		s0.193-0.966,0.193-1.449c0.097-0.483,0.097-0.87,0.097-1.063h-3.963h-1.837h-1.933h-2.029h-1.934v-25.419h-5.025v29.769H776.675z
		 M756.089,361.481l3.672-14.595l4.06,14.595H756.089z M747.389,374.432h5.123l2.609-9.086h9.665l2.706,9.086h5.025l-8.988-29.769
		h-7.538L747.389,374.432z M720.521,374.432h4.736l-0.193-18.653l-0.29-8.603l2.996,8.603l7.731,18.653h7.732v-29.769h-4.736
		l0.193,18.653l0.29,8.505l-2.996-8.505l-7.539-18.653h-7.925V374.432z M698.485,369.889c-0.967-0.483-1.739-1.257-2.319-2.126
		c-0.58-0.967-0.967-2.127-1.257-3.479c-0.29-1.354-0.387-2.996-0.387-4.736c0-1.739,0.097-3.286,0.387-4.735
		c0.29-1.354,0.677-2.513,1.257-3.479s1.353-1.643,2.319-2.223c0.967-0.483,2.126-0.773,3.479-0.773
		c1.353,0,2.513,0.193,3.479,0.677c0.966,0.387,1.643,1.063,2.223,1.933s0.967,2.029,1.257,3.383s0.387,2.899,0.387,4.736
		c0,1.739-0.097,3.285-0.387,4.639c-0.29,1.45-0.677,2.609-1.257,3.673c-0.58,0.967-1.353,1.836-2.223,2.319
		c-0.967,0.58-2.127,0.87-3.479,0.87C700.611,370.566,699.452,370.372,698.485,369.889 M707.57,373.368
		c1.547-0.773,2.803-1.739,3.77-3.093s1.739-2.899,2.223-4.833c0.483-1.933,0.677-3.962,0.677-6.282
		c0-2.319-0.193-4.349-0.677-6.186c-0.483-1.836-1.159-3.285-2.126-4.542s-2.223-2.223-3.77-2.803
		c-1.546-0.677-3.479-0.967-5.702-0.967c-2.126,0-3.963,0.387-5.605,1.063c-1.547,0.677-2.899,1.643-3.866,2.996
		c-1.063,1.256-1.739,2.899-2.223,4.735c-0.483,1.837-0.773,3.963-0.773,6.282c0,2.32,0.193,4.446,0.677,6.282
		c0.483,1.837,1.159,3.383,2.223,4.736c0.967,1.256,2.319,2.319,3.866,2.996c1.546,0.677,3.479,1.063,5.702,1.063
		C704.187,374.529,706.024,374.142,707.57,373.368 M678.478,374.432h4.93v-29.769h-4.93V374.432z M650.837,366.216
		c0.58,1.837,1.547,3.383,2.706,4.64c1.16,1.256,2.61,2.126,4.35,2.803c1.74,0.58,3.673,0.967,5.896,0.967h2.609
		c0.87,0,1.644,0,2.417-0.097c0.772-0.097,1.643-0.193,2.416-0.29l0.387-0.29c0-1.16,0.097-2.513,0.097-3.866
		c0-1.16,0.097-2.513,0.097-4.06c0-1.546,0-3.093,0-4.832c-0.29-0.097-0.483-0.097-0.773-0.193c-0.29,0-0.483-0.097-0.87-0.097
		c-0.29,0-0.58-0.097-0.87-0.097c-0.289,0-0.676,0-1.063,0.097c-0.387,0-0.87,0.097-1.45,0.29c0,1.159,0.097,2.319,0.193,3.479
		c0,0.483,0,0.966,0.097,1.546c0,0.58,0,1.063,0.097,1.644c0,0.58,0,1.063,0,1.546s0,0.967,0,1.45c-0.193,0-0.483,0-0.773,0h-0.869
		h-0.87h-0.773c-1.449,0-2.706-0.29-3.77-0.773c-1.063-0.483-2.029-1.16-2.803-2.126c-0.773-0.967-1.353-2.03-1.739-3.383
		c-0.387-1.354-0.58-2.899-0.58-4.543c0-1.739,0.193-3.286,0.58-4.639c0.387-1.354,0.966-2.609,1.739-3.576s1.644-1.74,2.803-2.319
		c1.063-0.483,2.32-0.773,3.673-0.773c0.773,0,1.547,0.097,2.319,0.193c0.773,0.097,1.45,0.29,2.03,0.387
		c0.677,0.193,1.353,0.387,1.933,0.579c0.29-0.482,0.483-0.966,0.58-1.449c0.193-0.483,0.29-0.87,0.29-1.257
		c0.097-0.387,0.193-0.772,0.193-1.159c-0.773-0.193-1.644-0.387-2.417-0.58c-0.772-0.193-1.546-0.29-2.416-0.387
		c-0.869-0.097-1.739-0.193-2.609-0.193c-2.223,0-4.253,0.387-5.896,1.063c-1.739,0.677-3.189,1.643-4.35,2.996
		c-1.159,1.256-2.029,2.899-2.706,4.735c-0.58,1.934-0.869,4.06-0.869,6.476S650.258,364.38,650.837,366.216 M628.994,374.432
		h17.011c0.193-0.58,0.29-1.063,0.29-1.547s0.097-0.87,0.097-1.16c0-0.192,0-0.289,0-0.482s0-0.29,0-0.387s0-0.29,0-0.387h-4.253
		h-3.963h-4.059v-9.665h1.256h1.547h1.643h1.644h3.962c0.097-0.193,0.193-0.387,0.193-0.677c0.097-0.29,0.097-0.483,0.193-0.773
		c0.097-0.289,0.097-0.482,0.097-0.676s0-0.387,0-0.387c0-0.193,0-0.29,0-0.483s0-0.29,0-0.387s0-0.29,0-0.387h-3.962h-1.837h-1.739
		h-1.644h-1.449v-8.698h3.962h3.673h3.77c0.29-0.58,0.58-1.16,0.58-1.643c0.097-0.483,0.097-0.87,0.097-1.063s0-0.29,0-0.387
		s0-0.193,0-0.387c0-0.097,0-0.193,0-0.29h-17.107V374.432L628.994,374.432z M607.828,348.433h4.833
		c1.546,0,2.706,0.387,3.479,1.257c0.869,0.772,1.256,2.029,1.256,3.479c0,1.74-0.483,3.093-1.354,3.866
		c-0.869,0.87-2.319,1.257-4.155,1.257h-1.257h-1.256c-0.387,0-0.677,0-0.967,0s-0.483-0.097-0.677-0.097v-9.762H607.828z
		 M602.996,374.432h4.832v-12.661c0.483,0.097,0.87,0.097,1.354,0.193c0.387,0,0.87,0.097,1.256,0.097
		c0.483,0,0.87,0.097,1.354,0.097h0.29l6.572,12.371h5.315c-0.58-1.063-1.16-2.127-1.739-3.189
		c-0.677-1.063-1.257-2.224-1.934-3.286c-0.677-1.063-1.256-2.224-1.933-3.286c-0.677-1.063-1.257-2.224-1.74-3.286
		c0.967-0.387,1.934-0.773,2.61-1.354c0.772-0.58,1.353-1.159,1.836-1.933c0.483-0.677,0.87-1.45,1.063-2.319
		c0.193-0.87,0.387-1.74,0.387-2.707c0-1.256-0.193-2.416-0.58-3.479c-0.387-1.063-0.967-1.934-1.74-2.707
		c-0.772-0.772-1.739-1.353-2.803-1.739c-1.159-0.387-2.416-0.58-3.865-0.58h-10.438v29.769H602.996z M568.975,361.481l3.673-14.595
		l4.059,14.595H568.975z M560.277,374.432h5.122l2.609-9.086h9.665l2.706,9.086h5.025l-8.892-29.865h-7.538L560.277,374.432z
		 M544.04,348.433h4.929c0.773,0,1.45,0.097,2.029,0.387c0.58,0.29,1.063,0.58,1.354,1.063c0.387,0.483,0.58,1.063,0.773,1.74
		s0.29,1.449,0.29,2.223c0,1.063-0.193,1.934-0.483,2.609c-0.387,0.677-0.87,1.257-1.45,1.74c-0.579,0.483-1.353,0.773-2.223,0.966
		c-0.87,0.193-1.739,0.29-2.803,0.29c-0.58,0-1.16,0-1.547-0.097c-0.482,0-0.772-0.097-0.966-0.097v-10.824H544.04z
		 M539.013,374.432h5.026v-11.309c0.387,0.097,0.772,0.193,1.159,0.193h1.257h1.546c1.74,0,3.286-0.29,4.64-0.773
		c1.353-0.579,2.416-1.256,3.286-2.126s1.546-1.933,2.029-3.093s0.677-2.416,0.677-3.673c0-1.449-0.193-2.706-0.58-3.77
		c-0.387-1.063-1.063-2.029-1.836-2.803c-0.773-0.772-1.837-1.353-2.899-1.739c-1.16-0.387-2.513-0.58-3.963-0.58H539.11v29.672
		H539.013z M503.06,374.432h6.862l4.832-21.553l0.773-5.51l0.773,5.51l4.832,21.553h6.766l7.056-29.865h-4.93l-5.605,25.709
		l-5.799-25.709h-6.186l-5.799,25.612l-5.605-25.612h-5.123L503.06,374.432z"/>
	<g>
		<path fill="#B2D235" d="M775.804,427.299h17.107c0.193-0.58,0.29-1.063,0.29-1.45c0-0.483,0.097-0.87,0.097-1.16
			c0-0.192,0-0.289,0-0.482s0-0.29,0-0.387s0-0.29,0-0.387h-4.253h-3.963h-4.06v-9.375h1.257h1.547h1.643h1.644h3.962
			c0.097-0.193,0.193-0.387,0.193-0.58c0.097-0.29,0.097-0.483,0.193-0.773s0.097-0.483,0.097-0.677c0-0.192,0-0.289,0-0.386
			c0-0.193,0-0.29,0-0.483s0-0.29,0-0.387s0-0.29,0-0.387h-3.963h-1.739h-1.739h-1.644h-1.45v-8.505h3.963h3.673h3.77
			c0.29-0.58,0.58-1.16,0.677-1.644s0.097-0.772,0.097-1.063c0-0.193,0-0.29,0-0.387s0-0.193,0-0.29s0-0.193,0-0.29h-17.204v29.092
			H775.804z M743.718,427.299h4.832l-0.193-18.268l-0.29-8.408l2.996,8.408l7.732,18.268h7.731v-29.188h-4.735l0.193,18.17
			l0.289,8.312l-2.996-8.312l-7.538-18.17h-7.925v29.188H743.718z M729.413,427.299h5.026v-29.188h-5.026V427.299z M707.473,414.638
			l3.673-14.305l4.06,14.305H707.473z M698.678,427.299h5.122l2.61-8.893h9.664l2.707,8.893h5.025l-8.988-29.188h-7.539
			L698.678,427.299z M679.832,401.88h4.93c1.546,0,2.706,0.387,3.575,1.159c0.87,0.773,1.257,1.934,1.257,3.479
			c0,1.74-0.483,2.996-1.354,3.77c-0.966,0.773-2.319,1.257-4.155,1.257h-1.257h-1.256c-0.387,0-0.677,0-1.063,0
			c-0.29,0-0.483-0.097-0.677-0.097V401.88z M675,427.299h4.832v-12.371c0.483,0.097,0.87,0.097,1.354,0.193
			c0.387,0,0.869,0.096,1.256,0.096c0.483,0,0.87,0.097,1.354,0.097h0.29l6.572,12.082h5.412c-0.58-1.063-1.16-2.127-1.837-3.189
			c-0.676-1.063-1.256-2.127-1.933-3.189c-0.677-1.063-1.257-2.127-1.933-3.189c-0.677-1.063-1.257-2.127-1.837-3.189
			c1.063-0.387,1.934-0.773,2.609-1.354c0.677-0.58,1.354-1.16,1.837-1.836c0.483-0.677,0.87-1.45,1.063-2.32
			c0.193-0.869,0.387-1.739,0.387-2.609c0-1.256-0.193-2.416-0.579-3.383c-0.387-1.063-0.967-1.933-1.74-2.609
			s-1.739-1.256-2.803-1.643c-1.16-0.387-2.416-0.58-3.866-0.58h-10.534v28.995H675z M647.841,427.299h5.026v-13.435h0.29
			l10.051,13.435h6.186l-12.081-14.885l11.309-14.207h-5.992l-9.472,12.758h-0.483v-12.758h-5.026v29.092H647.841z M617.783,420.727
			c0.387,1.449,1.063,2.706,1.933,3.673c0.87,0.966,2.03,1.739,3.479,2.223c1.45,0.483,3.189,0.773,5.22,0.773
			c2.029,0,3.865-0.29,5.219-0.773c1.45-0.483,2.513-1.257,3.383-2.223c0.87-0.967,1.449-2.224,1.836-3.673
			c0.387-1.45,0.58-3.093,0.58-5.026v-17.493h-4.929c0,2.996,0,5.702,0,8.118c0,1.063,0,2.127,0,3.189c0,1.063,0,2.03,0,2.996
			c0,0.87,0,1.74,0,2.417v1.546c0,1.063-0.097,2.029-0.387,2.899c-0.193,0.87-0.58,1.644-1.063,2.223
			c-0.483,0.58-1.159,1.063-1.933,1.45s-1.74,0.483-2.899,0.483c-1.16,0-2.127-0.193-2.899-0.483
			c-0.773-0.387-1.45-0.773-1.934-1.45c-0.483-0.579-0.869-1.353-1.063-2.223s-0.29-1.836-0.29-2.899v-18.17h-4.93
			c0,2.609,0,5.122,0,7.442c0,0.966,0,2.029,0,2.996c0,0.966,0,1.933,0,2.899c0,0.869,0,1.739,0,2.513v1.739
			C617.203,417.537,617.396,419.277,617.783,420.727z M587.435,434.547v0.29c0.193,0.29,0.483,0.483,0.773,0.677
			c0.289,0.193,0.676,0.29,0.966,0.29c0.387,0.097,0.773,0.097,1.16,0.193c0.966-1.16,1.739-2.319,2.513-3.576
			c0.29-0.58,0.58-1.16,0.87-1.739c0.29-0.58,0.579-1.257,0.772-2.03c0.193-0.677,0.387-1.449,0.58-2.126
			c0.193-0.773,0.193-1.45,0.193-2.223c-0.193-0.29-0.483-0.483-0.773-0.677c-0.289-0.193-0.579-0.29-0.869-0.387
			s-0.677-0.193-0.967-0.193s-0.677-0.097-0.87-0.097c-0.387,0-0.677,0-0.869,0c-0.29,0-0.387,0.097-0.483,0.097
			c0,1.546-0.193,3.093-0.483,4.446c-0.29,1.353-0.677,2.609-1.063,3.672C588.401,432.421,587.919,433.581,587.435,434.547z
			 M569.941,427.299h7.442l8.988-29.188h-5.122l-6.186,20.779l-1.354,5.51l-1.353-5.51l-5.993-20.779h-5.122L569.941,427.299z
			 M551.094,427.299h5.026v-29.188h-5.026V427.299z M531.765,427.299h5.025v-10.922l8.988-18.17h-5.412l-4.833,10.921l-1.256,3.77
			l-1.257-3.77l-4.832-10.921h-5.412l8.988,18.17V427.299L531.765,427.299z M499.484,427.299h5.025v-13.435h0.29l10.052,13.435
			h6.186l-11.984-14.885l11.404-14.207h-5.992l-9.472,12.758h-0.483v-12.758h-5.025V427.299z"/>
		<path fill="#B2D235" d="M788.562,470.695h4.64V441.99h-3.576c-0.483,0.29-1.063,0.58-1.644,0.87
			c-0.483,0.29-1.063,0.579-1.836,0.869c-0.677,0.29-1.45,0.58-2.319,0.967c0,0.387,0.097,0.773,0.29,1.16
			c0.096,0.29,0.289,0.579,0.482,0.966c0.193,0.29,0.483,0.58,0.773,0.773h0.387c0.483-0.097,0.967-0.29,1.449-0.483
			c0.483-0.193,0.967-0.29,1.257-0.483v24.066H788.562z M761.597,470.695h17.59c0.29-0.387,0.387-0.87,0.483-1.354
			s0.097-0.967,0.097-1.353c0-0.193,0-0.29,0-0.483s0-0.387,0-0.483c0-0.193,0-0.387,0-0.58h-4.253h-1.933h-2.126h-2.127h-2.126
			c1.739-1.354,3.189-2.513,4.445-3.673c1.257-1.063,2.32-2.126,3.189-3.093c0.87-0.966,1.644-1.836,2.127-2.706
			c0.58-0.87,0.967-1.643,1.353-2.416c0.29-0.773,0.58-1.547,0.677-2.223c0.097-0.773,0.193-1.547,0.193-2.32
			c0-1.256-0.193-2.319-0.677-3.383c-0.387-0.966-1.063-1.836-1.836-2.609s-1.739-1.256-2.803-1.643s-2.319-0.58-3.673-0.58
			c-1.16,0-2.223,0.097-3.189,0.387c-0.967,0.193-1.836,0.483-2.513,0.87c-0.773,0.289-1.354,0.676-1.837,0.966
			c-0.482,0.387-0.869,0.58-1.063,0.773c0.097,0.29,0.193,0.677,0.387,1.063c0.097,0.29,0.29,0.772,0.58,1.159
			c0.192,0.483,0.482,0.967,0.869,1.45c0.29-0.387,0.677-0.677,1.16-1.063s0.967-0.677,1.449-0.967
			c0.483-0.289,1.063-0.579,1.74-0.772c0.58-0.193,1.256-0.29,1.836-0.29c0.677,0,1.354,0.097,1.934,0.387
			c0.579,0.193,1.159,0.579,1.643,1.063s0.87,1.063,1.16,1.644s0.387,1.353,0.387,2.223c0,0.483-0.097,1.063-0.193,1.644
			c-0.097,0.579-0.29,1.159-0.677,1.836c-0.29,0.677-0.773,1.354-1.354,2.126c-0.579,0.773-1.353,1.644-2.319,2.706
			c-0.967,1.063-2.126,2.127-3.576,3.286c-1.353,1.257-3.093,2.609-5.025,4.156V470.695z M743.91,466.538
			c-0.676-0.58-1.256-1.257-1.739-2.223c-0.483-0.967-0.773-2.127-0.967-3.479c-0.193-1.354-0.29-2.803-0.29-4.446
			c0-1.643,0.097-3.093,0.29-4.445c0.193-1.354,0.483-2.514,0.967-3.479c0.483-0.967,1.063-1.74,1.739-2.319
			c0.677-0.58,1.547-0.773,2.61-0.773c0.966,0,1.836,0.193,2.513,0.677c0.677,0.482,1.256,1.159,1.739,2.126
			c0.387,0.87,0.773,2.029,0.967,3.383c0.193,1.353,0.29,2.803,0.29,4.445c0,1.547-0.097,2.996-0.29,4.35s-0.483,2.609-0.967,3.576
			c-0.483,1.063-0.966,1.836-1.739,2.416c-0.677,0.58-1.547,0.87-2.513,0.87C745.553,467.312,744.683,467.022,743.91,466.538z
			 M751.256,469.631c1.354-0.677,2.416-1.739,3.286-2.996s1.547-2.899,1.933-4.64c0.387-1.836,0.677-3.769,0.677-5.992
			c0-2.223-0.193-4.252-0.58-5.992c-0.386-1.739-0.966-3.189-1.836-4.349c-0.87-1.16-1.933-2.127-3.286-2.706
			c-1.354-0.58-2.996-0.967-4.832-0.967c-1.837,0-3.383,0.387-4.736,1.063c-1.354,0.676-2.416,1.643-3.383,2.899
			c-0.87,1.256-1.546,2.803-2.029,4.542c-0.483,1.74-0.677,3.77-0.677,5.896c0,2.224,0.193,4.253,0.677,5.992
			c0.387,1.74,1.063,3.286,1.933,4.543c0.87,1.256,1.934,2.223,3.286,2.803c1.354,0.677,2.996,0.967,4.833,0.967
			C748.356,470.695,750,470.405,751.256,469.631z M713.562,470.695h17.591c0.289-0.387,0.386-0.87,0.482-1.354
			s0.097-0.967,0.097-1.353c0-0.193,0-0.29,0-0.483s0-0.387,0-0.483c0-0.193,0-0.387,0-0.58h-4.252h-1.934h-2.126h-2.223h-2.127
			c1.74-1.354,3.189-2.513,4.446-3.673c1.256-1.063,2.319-2.126,3.189-3.093c0.87-0.966,1.643-1.836,2.126-2.706
			c0.58-0.87,0.967-1.643,1.354-2.416c0.29-0.773,0.58-1.547,0.677-2.223c0.097-0.773,0.193-1.547,0.193-2.32
			c0-1.256-0.193-2.319-0.677-3.383c-0.387-0.966-1.063-1.836-1.837-2.609c-0.772-0.677-1.739-1.256-2.803-1.643
			c-1.063-0.387-2.319-0.58-3.673-0.58c-1.159,0-2.223,0.097-3.189,0.387c-0.966,0.193-1.836,0.483-2.513,0.87
			c-0.772,0.289-1.353,0.676-1.836,0.966c-0.483,0.387-0.87,0.58-1.063,0.773c0.097,0.29,0.193,0.677,0.387,1.063
			c0.097,0.29,0.29,0.772,0.58,1.159c0.193,0.483,0.483,0.967,0.87,1.45c0.29-0.387,0.676-0.677,1.159-1.063s0.967-0.677,1.45-0.967
			c0.483-0.289,1.063-0.579,1.739-0.772c0.58-0.193,1.257-0.29,1.837-0.29c0.676,0,1.353,0.097,1.933,0.387s1.16,0.579,1.644,1.063
			c0.482,0.483,0.869,1.063,1.159,1.644c0.29,0.677,0.387,1.353,0.387,2.223c0,0.483-0.097,1.063-0.193,1.644
			c-0.097,0.579-0.29,1.159-0.677,1.836c-0.29,0.677-0.772,1.354-1.353,2.126c-0.58,0.773-1.354,1.644-2.32,2.706
			c-0.966,0.967-2.126,2.127-3.575,3.286c-1.354,1.257-3.093,2.609-4.93,4.156V470.695z M687.468,477.846v0.29
			c0.193,0.29,0.482,0.483,0.772,0.677s0.677,0.29,0.967,0.29c0.387,0.097,0.773,0.097,1.16,0.193
			c0.869-1.063,1.739-2.319,2.416-3.576c0.29-0.58,0.58-1.16,0.87-1.739c0.29-0.58,0.579-1.257,0.772-1.934s0.387-1.353,0.58-2.126
			c0.097-0.677,0.193-1.45,0.193-2.223c-0.193-0.29-0.483-0.483-0.773-0.677c-0.289-0.193-0.579-0.29-0.869-0.387
			s-0.677-0.193-0.967-0.193s-0.58-0.097-0.87-0.097c-0.387,0-0.677,0-0.87,0c-0.289,0-0.386,0.097-0.482,0.097
			c0,1.547-0.193,2.996-0.483,4.35c-0.29,1.353-0.677,2.513-0.967,3.575C688.53,475.72,688.047,476.88,687.468,477.846z
			 M679.252,453.104c0,0.58,0,1.16-0.097,1.644c-0.29,0.29-0.579,0.483-0.869,0.773c-0.387,0.192-0.773,0.482-1.16,0.676
			s-0.87,0.387-1.257,0.483c-0.482,0.097-0.869,0.193-1.353,0.193c-1.45,0-2.609-0.483-3.479-1.353
			c-0.87-0.87-1.257-2.224-1.257-4.06c0-0.773,0.097-1.547,0.29-2.223c0.193-0.677,0.483-1.257,0.87-1.837
			c0.387-0.483,0.87-0.967,1.449-1.256c0.58-0.29,1.257-0.483,2.127-0.483s1.546,0.193,2.126,0.483
			c0.58,0.289,1.063,0.772,1.45,1.256s0.676,1.063,0.869,1.74c0.193,0.676,0.29,1.353,0.387,2.029
			C679.155,451.848,679.252,452.524,679.252,453.104z M683.698,449.721c-0.29-1.546-0.773-2.899-1.547-4.059
			c-0.772-1.16-1.739-2.03-2.996-2.706c-1.256-0.677-2.899-0.967-4.832-0.967c-1.45,0-2.706,0.193-3.866,0.677
			c-1.16,0.387-2.126,1.063-2.996,1.836s-1.449,1.74-1.933,2.899c-0.483,1.16-0.677,2.416-0.677,3.866
			c0,1.546,0.193,2.996,0.58,4.06c0.387,1.159,0.966,2.029,1.739,2.803c0.773,0.772,1.644,1.256,2.609,1.643
			c0.967,0.387,2.127,0.483,3.286,0.483c0.677,0,1.354-0.097,2.03-0.193c0.676-0.097,1.256-0.29,1.739-0.483
			s0.967-0.483,1.354-0.677s0.676-0.482,0.869-0.676c-0.097,1.063-0.193,2.126-0.387,3.189c-0.192,1.063-0.579,2.029-1.063,2.803
			c-0.483,0.772-1.16,1.449-2.029,1.933c-0.87,0.483-1.934,0.773-3.189,0.773c-0.773,0-1.547-0.097-2.127-0.193
			c-0.677-0.097-1.256-0.29-1.739-0.483c-0.58-0.193-1.063-0.387-1.547-0.677c-0.29,0.387-0.579,0.87-0.676,1.257
			c-0.193,0.483-0.29,0.87-0.387,1.256c-0.097,0.483-0.097,0.87-0.097,1.257c0.483,0.29,1.063,0.483,1.643,0.677
			s1.257,0.29,2.029,0.483c0.773,0.097,1.74,0.193,2.804,0.193c3.865,0,6.765-1.354,8.698-4.06
			c1.933-2.706,2.899-6.669,2.899-11.984C684.181,452.91,683.988,451.268,683.698,449.721z M637.113,459.966h19.427v-3.673h-19.427
			V459.966z M616.623,470.018c0.387,0.193,0.87,0.387,1.45,0.483c0.58,0.193,1.16,0.193,1.739,0.193l0.483-0.193
			c1.16-3.093,2.223-5.992,3.286-8.698c1.063-2.707,2.029-5.22,2.899-7.539s1.74-4.35,2.513-6.186
			c0.773-1.836,1.547-3.383,2.224-4.64l-0.87-1.546h-17.59c0,0-0.097,0.097-0.097,0.387c0,0.193,0,0.387-0.097,0.677
			c0,0.192,0,0.482,0,0.579c0,0.387,0,0.773,0.097,1.257s0.29,0.87,0.579,1.354h3.77h3.963h4.735
			c-0.966,2.126-2.029,4.349-3.093,6.861c-0.482,1.063-0.966,2.224-1.546,3.383c-0.58,1.257-1.16,2.513-1.837,3.866
			c-0.676,1.354-1.353,2.803-2.029,4.35c-0.677,1.449-1.449,2.996-2.126,4.542C615.657,469.534,616.14,469.824,616.623,470.018z
			 M586.178,477.846v0.29c0.193,0.29,0.483,0.483,0.773,0.677s0.677,0.29,0.967,0.29c0.386,0.097,0.772,0.097,1.159,0.193
			c0.87-1.063,1.74-2.319,2.416-3.576c0.29-0.58,0.58-1.16,0.87-1.739c0.29-0.58,0.58-1.257,0.773-1.934s0.387-1.353,0.58-2.126
			c0.097-0.677,0.193-1.45,0.193-2.223c-0.193-0.29-0.483-0.483-0.773-0.677s-0.58-0.29-0.87-0.387s-0.677-0.193-0.967-0.193
			c-0.289,0-0.579-0.097-0.869-0.097c-0.387,0-0.677,0-0.87,0c-0.29,0-0.387,0.097-0.483,0.097c0,1.547-0.193,2.996-0.483,4.35
			c-0.29,1.353-0.677,2.513-0.966,3.575C587.145,475.72,586.662,476.88,586.178,477.846z M572.165,470.695h4.929v-10.729
			l8.795-17.88h-5.315l-4.736,10.728l-1.256,3.673l-1.257-3.673l-4.735-10.728h-5.316l8.893,17.88V470.695z M544.523,470.695h15.657
			c0,0,0.097-0.193,0.192-0.483c0.097-0.387,0.193-0.773,0.29-1.257s0.193-0.966,0.193-1.353s0.097-0.773,0.097-1.063h-3.865h-1.837
			h-1.933h-1.934h-1.933V441.99h-4.929V470.695z M516.108,464.219c0.387,1.449,1.063,2.609,1.933,3.576
			c0.87,0.966,2.029,1.739,3.383,2.223s3.093,0.773,5.122,0.773c2.03,0,3.77-0.29,5.123-0.773c1.353-0.483,2.513-1.257,3.383-2.126
			c0.869-0.967,1.449-2.127,1.836-3.576c0.387-1.45,0.58-3.093,0.58-5.026v-17.203h-4.833c0,2.899,0,5.605,0,8.021
			c0,1.063,0,2.127,0,3.093c0,1.063,0,2.03,0,2.899c0,0.87,0,1.644,0,2.32v1.449c0,1.063-0.097,2.029-0.29,2.899
			c-0.192,0.87-0.579,1.547-1.063,2.224c-0.483,0.579-1.16,1.063-1.934,1.449c-0.772,0.29-1.739,0.483-2.803,0.483
			c-1.159,0-2.029-0.193-2.803-0.483s-1.353-0.773-1.836-1.449c-0.483-0.58-0.87-1.354-1.063-2.224s-0.29-1.836-0.29-2.899v-17.88
			h-4.832c0,2.609,0,5.025,0,7.346c0,0.966,0,1.933,0,2.899c0,0.966,0,1.933,0,2.803c0,0.869,0,1.739,0,2.416v1.739
			C515.528,461.126,515.721,462.769,516.108,464.219z M502.964,467.118c0,0.966-0.097,1.836-0.29,2.513s-0.387,1.257-0.773,1.643
			c-0.387,0.483-0.773,0.773-1.256,1.063c-0.483,0.29-1.063,0.483-1.74,0.58c0.097,0.387,0.29,0.773,0.387,1.16
			c0.097,0.386,0.29,0.676,0.483,1.159c0.193,0.387,0.483,0.87,0.677,1.257c1.256-0.29,2.416-0.677,3.286-1.16
			c0.966-0.483,1.643-1.063,2.223-1.739s0.967-1.45,1.257-2.32c0.289-0.869,0.387-1.933,0.387-3.093v-26.095h-4.93v25.032H502.964z"
			/>
	</g>
</g>
</svg>
