<svg width="21" height="20" viewBox="0 0 21 20" fill="none" xmlns="http://www.w3.org/2000/svg">

        <path d="M14.1696 9.60911L10.0166 6.59024C9.86422 6.47976 9.6619 6.46312 9.49485 6.54898C9.32647 6.63416 9.22131 6.8072 9.22131 6.99422V13.03C9.22131 13.219 9.32647 13.3913 9.49485 13.4765C9.56606 13.5125 9.64393 13.5304 9.72246 13.5304C9.82495 13.5304 9.92878 13.4978 10.0166 13.4333L14.1696 10.4171C14.3007 10.3206 14.3772 10.1715 14.3772 10.0131C14.3779 9.85203 14.2993 9.70361 14.1696 9.60911Z"
        fill="red"/>
        <path d="M10.8712 0.00195312C5.34724 0.00195312 0.87085 4.47834 0.87085 10.0023C0.87085 15.5242 5.34724 19.9993 10.8712 19.9993C16.3938 19.9993 20.8708 15.5236 20.8708 10.0023C20.8715 4.47834 16.3938 0.00195312 10.8712 0.00195312ZM10.8712 18.3308C6.271 18.3308 2.54134 14.6031 2.54134 10.0023C2.54134 5.40344 6.271 1.67112 10.8712 1.67112C15.4707 1.67112 19.1997 5.40277 19.1997 10.0023C19.2004 14.6031 15.4707 18.3308 10.8712 18.3308Z"
        fill="red" />


</svg>
