<svg width="56" height="56" viewBox="0 0 56 56" fill="none" xmlns="http://www.w3.org/2000/svg">
<path d="M37.2364 26.9051L25.6082 18.4522C25.1815 18.1429 24.615 18.0963 24.1472 18.3367C23.6758 18.5752 23.3813 19.0597 23.3813 19.5834V36.4834C23.3813 37.0127 23.6758 37.4953 24.1472 37.7339C24.3466 37.8345 24.5646 37.8848 24.7845 37.8848C25.0715 37.8848 25.3622 37.7935 25.6082 37.6127L37.2364 29.1673C37.6035 28.8971 37.8178 28.4797 37.8178 28.0362C37.8197 27.5852 37.5998 27.1697 37.2364 26.9051Z" fill="white"/>
<path d="M28.0009 0.00366211C12.5339 0.00366211 0 12.5376 0 28.0046C0 43.466 12.5339 55.9962 28.0009 55.9962C43.4642 55.9962 56 43.4642 56 28.0046C56.0019 12.5376 43.4642 0.00366211 28.0009 0.00366211ZM28.0009 51.3244C15.1204 51.3244 4.67738 40.887 4.67738 28.0046C4.67738 15.1278 15.1204 4.67732 28.0009 4.67732C40.8796 4.67732 51.3208 15.126 51.3208 28.0046C51.3226 40.887 40.8796 51.3244 28.0009 51.3244Z" fill="white"/>
</svg>
