<svg width="17" height="18" viewBox="0 0 17 18" fill="none" xmlns="http://www.w3.org/2000/svg">

        <path d="M8.5 0.5C13.1943 0.5 17 4.30568 17 9C17 13.6943 13.1943 17.5 8.5 17.5C3.80568 17.5 0 13.6943 0 9C0 4.30568 3.80568 0.5 8.5 0.5ZM8.5 16.0833C12.4119 16.0833 15.5833 12.9119 15.5833 9C15.5833 5.08807 12.4119 1.91668 8.5 1.91668C4.58807 1.91668 1.41668 5.08807 1.41668 9C1.41668 12.9119 4.58807 16.0833 8.5 16.0833Z"
              fill="#7DB30B"/>
        <path d="M9.4158 4.95746C9.69242 4.68085 10.1409 4.68085 10.4175 4.95746C10.6942 5.23408 10.6942 5.68258 10.4175 5.9592L7.37673 9.00001L10.4175 12.0408C10.6942 12.3174 10.6942 12.7659 10.4175 13.0426C10.1409 13.3192 9.69242 13.3192 9.4158 13.0426L5.87412 9.50088C5.59751 9.22426 5.59751 8.77575 5.87412 8.49914L9.4158 4.95746Z"
              fill="#7DB30B"/>


</svg>
