<svg width="35" height="35" viewBox="0 0 35 35" fill="none" xmlns="http://www.w3.org/2000/svg">

        <path d="M172 -234H-148C-164.542 -234 -178 -220.542 -178 -204V248C-178 264.542 -164.542 278 -148 278H172C188.542 278 202 264.542 202 248V-204C202 -220.542 188.542 -234 172 -234ZM182 248C182 253.514 177.514 258 172 258H-148C-153.514 258 -158 253.514 -158 248V-204C-158 -209.514 -153.514 -214 -148 -214H172C177.514 -214 182 -209.514 182 -204V248Z"
             fill="black" />
        <path d="M28.75 8H3.75C1.68225 8 0 9.68225 0 11.75C0 13.3433 0 22.7084 0 24.25C0 26.3177 1.68225 28 3.75 28H28.75C30.8172 28 32.4992 26.3185 32.5 24.2514C32.5 24.2507 32.5 24.25 32.5 24.2494V11.75C32.5 9.68225 30.8177 8 28.75 8ZM3.75 25.5001C3.06075 25.5 2.5 24.9393 2.5 24.25V22.2679L8.75 16.0179C10.2102 17.4781 16.7546 24.0225 18.2321 25.5001H3.75ZM28.75 25.5H21.7679L19.2679 23L23.75 18.5177L29.9195 24.6873C29.7416 25.1613 29.2852 25.5 28.75 25.5ZM30 21.2321L24.6339 15.866C24.1456 15.3779 23.3544 15.3779 22.866 15.866L17.5 21.2321L9.63387 13.366C9.14563 12.8779 8.35437 12.8779 7.866 13.366L2.5 18.7321V11.75C2.5 11.0608 3.06075 10.5 3.75 10.5H28.75C29.4393 10.5 30 11.0608 30 11.75V21.2321Z"
              fill="black" />



</svg>
