<svg width="35" height="35" viewBox="0 0 35 35" fill="none" xmlns="http://www.w3.org/2000/svg">
        <path d="M22.982 17.4378L16.742 12.9018C16.513 12.7358 16.209 12.7108 15.958 12.8398C15.705 12.9678 15.547 13.2278 15.547 13.5088V22.5778C15.547 22.8618 15.705 23.1208 15.958 23.2488C16.065 23.3028 16.182 23.3298 16.3 23.3298C16.454 23.3298 16.61 23.2808 16.742 23.1838L22.982 18.6518C23.179 18.5068 23.294 18.2828 23.294 18.0448C23.295 17.8028 23.177 17.5798 22.982 17.4378Z"
             fill="black" />
        <path d="M18.026 3.00195C9.726 3.00195 3 9.72795 3 18.028C3 26.325 9.726 33.049 18.026 33.049C26.324 33.049 33.051 26.324 33.051 18.028C33.052 9.72795 26.324 3.00195 18.026 3.00195ZM18.026 30.542C11.114 30.542 5.51 24.941 5.51 18.028C5.51 11.118 11.114 5.50995 18.026 5.50995C24.937 5.50995 30.54 11.117 30.54 18.028C30.541 24.941 24.937 30.542 18.026 30.542Z"
             fill="black" />
</svg>
